<svg width="424" height="410" viewBox="0 0 424 410" fill="none" xmlns="http://www.w3.org/2000/svg">
<path d="M218.558 0.0937792C110.035 -3.08841 16.0327 75.0883 1.82934 177.665C-13.6984 289.819 71.7658 390.729 176.928 406.893C307.731 426.997 434.602 310.695 423.21 184.527C414.627 89.4698 328.873 3.32739 218.558 0.0937792Z" fill="#F4F7FA"/>
<path d="M231.874 138.31C235.72 134.234 225.071 118.915 219.372 112.204C214.393 106.34 209.275 100.312 202.991 101.076C197.472 101.746 192.103 107.523 191.782 113.06C190.917 127.954 226.406 144.108 231.875 138.312L231.874 138.31Z" fill="url(#paint0_linear_55_1745)"/>
<path d="M185.688 295.717C184.965 296.302 184.832 297.761 184.744 298.714C184.706 299.14 184.687 299.353 184.734 299.504C185.083 300.601 187.229 300.718 190.591 301.058C195.905 301.597 197.487 302.013 197.903 301.227C198.292 300.491 197.349 299.287 197.243 299.155C196.672 298.441 195.972 298.181 194.616 297.739C192.109 296.919 190.415 296.471 189.901 296.336C186.699 295.487 186.163 295.335 185.688 295.719V295.717Z" fill="url(#paint1_linear_55_1745)"/>
<path d="M188.849 290.897L189.381 296.909C189.23 297.2 187.43 298.069 185.999 297.323L184.633 291.413L188.849 290.895V290.897Z" fill="url(#paint2_linear_55_1745)"/>
<path d="M227.834 294.944C226.967 295.896 226.768 297.647 227.523 298.511C228.264 299.36 229.38 298.723 232.544 298.817C235.933 298.916 236.818 299.711 239.12 299.081C240.051 298.825 241.694 298.207 241.663 297.547C241.641 297.083 240.804 296.844 238.011 295.915C234.045 294.596 234.062 294.524 233.22 294.386C231.106 294.038 228.981 293.688 227.835 294.946L227.834 294.944Z" fill="url(#paint3_linear_55_1745)"/>
<path d="M230.005 289.457L231.704 295.069C231.575 295.37 229.848 296.374 228.365 295.737L225.84 290.29L230.005 289.456V289.457Z" fill="url(#paint4_linear_55_1745)"/>
<path d="M214.905 166.531C215.149 185.394 216.445 206.603 219.556 229.645C222.631 252.418 226.938 272.995 231.64 291.091C229.472 291.67 227.303 292.249 225.135 292.829C219.633 287.737 212.694 279.72 209.345 268.391C207.267 261.36 207.96 257.747 206.641 249.098C204.543 235.328 200.29 228.113 195.896 217.009C191.947 207.03 187.279 192.386 184.777 172.811C194.82 170.719 204.864 168.625 214.906 166.533L214.905 166.531Z" fill="#26264F"/>
<path d="M195.331 164.732C194.004 188.722 192.911 213.16 192.086 238.028C191.464 256.691 191.008 275.115 190.707 293.299C188.491 293.571 186.276 293.843 184.062 294.113C181.922 290.157 179.08 284.108 177.132 276.357C174.767 266.941 175.315 261.351 174.278 251.591C173.114 240.646 171.423 238.262 168.429 224.456C162.352 196.436 159.312 182.426 166.093 173.711C168.293 170.882 175.194 163.784 195.334 164.732H195.331Z" fill="#26264F"/>
<path d="M163.049 104.438C168.235 102.989 175.839 101.295 185.148 100.774C198.428 100.029 205.067 99.6555 209.773 102.795C220.639 110.047 212.226 126.782 216.674 168.268C217.309 174.193 217.453 180.159 217.912 186.099C218.674 195.935 218.847 196.468 218.157 197.466C213.835 203.716 197.706 194.288 174.069 198.015C160.842 200.1 154.844 204.904 151.22 201.44C146.994 197.4 150.62 186.533 153.739 177.177C157.32 166.439 159.533 166.301 161.566 158.213C163.691 149.76 162.405 145.408 162.075 132.078C161.917 125.701 161.951 116.209 163.047 104.439L163.049 104.438Z" fill="url(#paint5_linear_55_1745)"/>
<path d="M195.193 182.322C189.015 181.842 185.006 185.31 179.674 182.607C172.361 178.902 170.011 167.37 170.477 159.211C171.186 146.811 178.317 143.544 177.088 135.528C176.423 131.194 173.305 125.439 162.115 119.56C161.965 124.508 161.993 128.726 162.078 132.075C162.409 145.405 163.694 149.758 161.569 158.21C159.536 166.298 157.323 166.436 153.742 177.174C150.621 186.53 146.997 197.397 151.223 201.437C154.847 204.901 160.845 200.099 174.072 198.013C194.44 194.801 209.224 201.348 215.692 199.225C207.875 186.402 200.786 182.754 195.195 182.319L195.193 182.322Z" fill="url(#paint6_linear_55_1745)"/>
<path d="M171.476 105.288C167.063 101.689 158.192 105.763 155.82 106.853C142.593 112.926 130.719 129.294 133.661 146.591C134.102 149.185 136.148 161.317 146.497 167.197C155.834 172.502 168.443 171.137 178.545 163.624C179.926 162.408 181.307 161.191 182.687 159.976C184.046 158.519 185.404 157.061 186.763 155.604C184.627 153.841 181 151.298 175.905 149.666C169.188 147.513 164.298 151.376 161.181 148.439C159.031 146.413 159.025 142.834 159.556 140.666C160.626 136.295 164.508 135.065 167.747 131.964C175.358 124.675 176.759 109.6 171.476 105.291V105.288Z" fill="url(#paint7_linear_55_1745)"/>
<path d="M234.095 161.616L180.667 160.824L194.874 167.63L234.231 165.073L234.095 161.616Z" fill="#444B8C"/>
<path d="M178.782 162.233C178.782 163.226 179.408 164.112 180.348 164.451L197.419 171.096L197.497 166.49L180.667 160.824C179.723 160.555 178.782 161.259 178.782 162.233V162.233Z" fill="#26264F"/>
<path d="M182.764 158.964C182.402 158.883 184.533 154.667 186.206 155.154C187.879 155.641 196.063 160.349 196.806 162.289L197.551 164.228C197.551 164.228 193.981 164.506 191.768 163.767C189.554 163.028 185.717 159.619 182.766 158.965L182.764 158.964Z" fill="url(#paint8_linear_55_1745)"/>
<path d="M198.914 134.169L195.147 168.211C195.017 169.386 196.675 171.136 197.863 171.08L253.109 167.713C254.016 167.67 254.772 167.006 254.926 166.117L261.861 133.237C262.068 132.042 259.902 130.805 258.679 130.84L200.784 132.456C199.818 132.484 199.019 133.214 198.914 134.169V134.169Z" fill="#26264F"/>
<path d="M200.176 135.16L196.41 169.204C196.279 170.379 197.238 171.39 198.427 171.334L254.373 168.704C255.28 168.662 256.036 167.998 256.19 167.109L261.905 134.079C262.112 132.882 261.164 131.798 259.941 131.831L202.046 133.447C201.08 133.474 200.281 134.205 200.176 135.159V135.16Z" fill="#26264F"/>
<g style="mix-blend-mode:multiply" opacity="0.3">
<path d="M233.028 160.728C228.143 158.673 229.867 154.753 224.099 149.868C216.488 143.425 208.732 146.219 206.017 141.225C205.172 139.669 204.768 137.25 206.24 133.331L202.048 133.449C201.081 133.475 200.282 134.207 200.177 135.161L196.411 169.204C196.281 170.378 197.24 171.39 198.428 171.334L254.374 168.704C255.281 168.662 256.038 167.998 256.192 167.109L256.98 162.552C255.283 161.614 253.254 160.761 250.888 160.285C242.681 158.632 238.653 163.094 233.029 160.728H233.028Z" fill="#26264F"/>
</g>
<path d="M258.475 163.639C258.576 163.335 258.363 163.022 258.04 163.006C256.73 162.939 253.695 162.913 252.02 163.931C249.843 165.255 247.029 167.672 249.398 168.889L251.612 170.028C251.714 170.081 251.825 170.097 251.936 170.072C252.723 169.9 256.033 169.172 256.394 168.991C256.724 168.826 257.987 165.108 258.474 163.637L258.475 163.639Z" fill="url(#paint9_linear_55_1745)"/>
<path d="M186.141 86.3699C186.174 90.2779 185.736 93.3778 185.32 95.5007C184.843 97.9337 184.502 98.561 184.064 99.0708C183.405 99.8377 182.406 100.483 176.765 101.871C173.694 102.626 173.301 102.606 173.233 102.908C172.903 104.383 181.273 109.412 189.921 108.2C195.214 107.458 200.029 104.461 199.733 102.886C199.436 101.302 194.149 102.152 192.573 99.2853C191.476 97.2916 192.706 94.4606 194.157 92.1158C192.75 89.4992 187.547 88.985 186.141 86.3685V86.3699Z" fill="url(#paint10_linear_55_1745)"/>
<path d="M195.964 87.914C197.213 86.2671 197.29 83.3905 195.852 81.5731C194.613 80.0085 192.664 79.7852 191.497 79.6515C188.115 79.2636 183.849 80.6652 182.365 83.7548C181.486 85.5854 183.387 89.3905 183.685 90.0737C184.022 90.8464 184.633 91.1124 185.2 91.6971C185.984 92.5081 187.211 93.798 189.215 95.9547C189.37 95.3186 189.607 94.5311 189.983 93.676C190.128 93.347 190.709 92.0644 191.588 90.9992C193.351 88.866 194.779 89.4743 195.964 87.9126V87.914Z" fill="#26264F"/>
<path d="M186.357 94.1418C186.357 94.1418 188.58 97.7618 193.006 97.4768C196.969 97.2211 197.549 88.3989 195.019 86.5257C194.174 85.9013 192.484 85.6413 191.108 86.0247C190.295 86.251 190.02 86.5859 188.687 86.9297C187.455 87.247 187.108 87.1119 186.736 87.4219C186.272 87.8097 185.931 88.7617 186.707 91.3416C185.95 90.582 185.043 90.2897 184.4 90.5908C184.297 90.6393 184.025 90.823 183.871 91.1006C183.318 92.1085 184.244 93.3955 186.356 94.1418H186.357Z" fill="url(#paint11_linear_55_1745)"/>
<path d="M186.557 86.893C186.748 87.034 186.163 87.7421 186.121 88.7441C186.036 90.6893 188.019 93.0238 190.041 93.2206C191.236 93.3382 191.565 92.6227 193.542 92.4141C194.766 92.2862 195.785 92.4405 196.426 92.5786C197.048 94.7118 196.463 96.8377 195.026 97.8249C193.48 98.8871 191.506 98.2422 190.68 97.9733C190.128 97.7926 188.358 97.2197 187.433 95.608C186.47 93.9288 187.415 92.9165 186.31 91.7808C185.752 91.2079 185.02 90.9596 184.306 89.8504C184.112 89.5492 183.984 89.2818 183.904 89.1026C184.926 88.0272 186.28 86.6858 186.557 86.89V86.893Z" fill="#26264F"/>
<path d="M194.988 93.3719C194.988 93.3719 194.132 93.8156 192.653 93.7333C192.58 93.7289 192.502 93.7495 192.493 93.7877C192.459 93.9272 193.407 94.5515 194.282 94.3077C194.902 94.1343 195.386 93.5512 195.301 93.4028C195.266 93.3396 195.125 93.3484 194.988 93.3734V93.3719Z" fill="url(#paint12_linear_55_1745)"/>
<path d="M62.4755 282.943C62.6812 284.712 63.5469 286.137 64.6878 286.584C67.5379 287.697 71.2242 288.117 75.5349 288.123C79.9122 288.129 83.6488 287.687 86.5211 286.557C87.6265 286.122 88.476 284.768 88.7112 283.062L96.3545 227.761H56.053L62.4755 282.943V282.943Z" fill="url(#paint13_linear_55_1745)"/>
<path d="M76.1683 230.73C87.3168 230.73 96.3545 229.288 96.3545 227.51C96.3545 225.731 87.3168 224.29 76.1683 224.29C65.0197 224.29 55.982 225.731 55.982 227.51C55.982 229.288 65.0197 230.73 76.1683 230.73Z" fill="url(#paint14_linear_55_1745)"/>
<path d="M95.3808 226.757C94.3109 227.404 91.989 229.573 88.8947 229.815C68.303 231.426 59.649 227.209 58.9002 226.596C58.7714 226.492 59.5395 217.765 59.4166 217.657C60.0026 214.48 59.8828 211.045 58.3852 207.625C53.9665 197.526 25.7936 192.688 33.6041 173.42C39.3251 159.306 59.7437 154.498 34.2611 133.371C8.78007 112.242 0.207456 66.1353 28.7814 61.2709C45.1807 58.4795 51.3812 85.484 68.6507 90.0913C85.062 94.4694 90.965 108.697 85.904 126.595C80.843 144.494 90.6039 147.788 102.872 156.75C117.608 167.516 102.916 184.063 96.461 191.038C91.2639 196.655 85.8744 219.887 95.3793 226.757H95.3808Z" fill="url(#paint15_linear_55_1745)"/>
<g style="mix-blend-mode:soft-light" opacity="0.7">
<path d="M74.9459 228.258L74.3555 228.185C82.055 167.726 60.164 103.856 17.2239 61.4987L17.6427 61.08C38.9241 82.0727 55.4729 108.707 65.4987 138.102C75.4683 167.331 78.7342 198.506 74.9444 228.26L74.9459 228.258Z" fill="#FCFDFE"/>
<path d="M76.2718 194.96L75.708 194.772C83.5319 171.685 109.482 160.37 109.742 160.258L109.978 160.8C109.719 160.91 84.0098 172.126 76.2718 194.96Z" fill="#FCFDFE"/>
<path d="M75.4698 216.949C71.3795 193.32 30.4536 176.478 30.0407 176.31L30.2656 175.764C30.6814 175.933 71.9093 192.9 76.0558 216.849L75.4698 216.949V216.949Z" fill="#FCFDFE"/>
<path d="M64.0751 135.904C62.4015 116.341 82.4205 93.9376 82.6232 93.7128L83.0657 94.1065C82.8659 94.3284 63.0156 116.545 64.6671 135.853L64.0751 135.903V135.904Z" fill="#FCFDFE"/>
<path d="M47.6388 100.577C33.616 83.8856 4.11124 80.6858 3.81528 80.6549L3.87743 80.0673C4.17635 80.0981 33.9178 83.3215 48.096 100.198L47.6402 100.575L47.6388 100.577Z" fill="#FCFDFE"/>
</g>
<path d="M267.719 306.745C267.429 306.745 267.184 306.526 267.157 306.235L256.912 196.322C256.884 196.013 257.112 195.74 257.423 195.712C257.732 195.687 258.009 195.91 258.037 196.219L267.154 294.029V193.837C267.154 193.527 267.407 193.276 267.719 193.276C268.032 193.276 268.285 193.527 268.285 193.837V306.182C268.285 306.482 268.048 306.729 267.746 306.743C267.737 306.743 267.728 306.743 267.719 306.743V306.745Z" fill="#B7C0CE"/>
<path d="M381.953 205.861L269.568 193.636L53.6557 203.379L166.736 216.824L381.953 205.861Z" fill="#D8DEE8"/>
<path d="M166.736 216.824L381.953 205.861V211.156L166.736 222.118L53.6557 208.674V203.379L166.736 216.824Z" fill="#B7C0CE"/>
<path d="M167.5 345.079C167.493 345.079 167.485 345.079 167.478 345.079C167.174 345.068 166.935 344.819 166.935 344.518V220.83C166.935 220.52 167.188 220.269 167.5 220.269C167.812 220.269 168.065 220.52 168.065 220.83V330.145L176.679 220.787C176.704 220.479 176.974 220.248 177.287 220.272C177.598 220.297 177.831 220.566 177.807 220.876L168.065 344.564C168.042 344.856 167.796 345.081 167.501 345.081L167.5 345.079Z" fill="#B7C0CE"/>
<path d="M54.8913 323.107C54.8839 323.107 54.8765 323.107 54.8691 323.107C54.5658 323.095 54.326 322.847 54.326 322.546V208.382C54.326 208.072 54.5791 207.821 54.8913 207.821C55.2036 207.821 55.4566 208.072 55.4566 208.382V308.23L63.3574 208.338C63.3826 208.029 63.6593 207.797 63.9656 207.822C64.2764 207.847 64.5087 208.116 64.485 208.426L55.4566 322.59C55.433 322.882 55.1873 323.107 54.8928 323.107H54.8913Z" fill="#B7C0CE"/>
<path d="M380.887 323.107C380.594 323.107 380.349 322.883 380.325 322.593L370.737 208.429C370.711 208.12 370.943 207.849 371.254 207.824C371.566 207.799 371.838 208.028 371.863 208.336L380.322 309.063V211.157C380.322 210.847 380.575 210.596 380.887 210.596C381.2 210.596 381.453 210.847 381.453 211.157V322.547C381.453 322.848 381.214 323.095 380.911 323.108C380.904 323.108 380.895 323.108 380.887 323.108V323.107Z" fill="#B7C0CE"/>
<path d="M319.202 207.286L241.984 206.716V208.404C241.984 208.862 242.321 209.251 242.777 209.32L264.612 212.643C264.871 212.683 265.134 212.693 265.395 212.674L318.363 208.884C318.837 208.85 319.202 208.459 319.202 207.989V207.284V207.286Z" fill="#26264F"/>
<path d="M291.179 204.496L242.781 207.584C241.916 207.64 241.211 207.052 241.211 206.272V175.035C241.211 174.255 241.916 173.623 242.781 173.623H291.179C291.892 173.623 292.469 174.195 292.469 174.9V203.137C292.469 203.842 291.892 204.45 291.179 204.496V204.496Z" fill="#444B8C"/>
<path d="M291.952 204.496L243.554 207.584C242.688 207.64 241.984 207.052 241.984 206.272V175.035C241.984 174.255 242.688 173.623 243.554 173.623H291.952C292.665 173.623 293.242 174.195 293.242 174.9V203.137C293.242 203.842 292.665 204.45 291.952 204.496V204.496Z" fill="#26264F"/>
<path d="M290.444 202.505L245.365 205.188C244.661 205.23 244.088 204.747 244.088 204.111V176.764C244.088 176.128 244.661 175.609 245.365 175.606L290.444 175.437C291.033 175.435 291.508 175.903 291.508 176.484V201.392C291.508 201.972 291.031 202.47 290.444 202.505V202.505Z" fill="#EFF2F6"/>
<path d="M269.461 174.478C269.461 174.769 269.213 175.004 268.905 175.005C268.597 175.005 268.347 174.772 268.347 174.481C268.347 174.19 268.597 173.954 268.905 173.954C269.213 173.954 269.461 174.189 269.461 174.478Z" fill="white"/>
<g style="mix-blend-mode:soft-light" opacity="0.48">
<path d="M280.487 195.944C276.737 194.131 273.788 196.429 270.942 194.16C269.217 192.785 270.065 191.761 267.941 189.706C265.59 187.43 264.06 188.196 261.697 186.148C258.709 183.559 260.203 181.543 257.63 179.685C254.508 177.43 251.141 179.517 248.168 177.355C246.886 176.422 246.182 175.066 245.815 173.623H242.907C242.398 173.623 241.984 173.995 241.984 174.452V206.852C241.984 207.311 242.398 207.655 242.907 207.622L292.486 204.459C292.728 204.443 292.944 204.317 293.084 204.132C289.455 204.013 287.225 202.92 285.8 201.788C283.012 199.577 283.496 197.396 280.489 195.941L280.487 195.944Z" fill="white"/>
</g>
<path d="M293.881 204.409L241.984 207.659L264.612 211.104C264.871 211.144 265.134 211.154 265.395 211.135L319.202 207.286L294.705 204.431C294.432 204.399 294.155 204.392 293.88 204.409H293.881Z" fill="#26264F"/>
<g style="mix-blend-mode:soft-light" opacity="0.47">
<path d="M249.556 207.688L292.762 204.941L306.134 206.486L263.299 209.421L249.556 207.688Z" fill="#D8DEE8"/>
</g>
<path d="M303.71 305.96C303.71 305.96 292.358 306.743 292.193 307.479C292.026 308.215 299.898 311.059 302.648 311.165C305.399 311.27 307.661 310.464 307.411 309.308C307.163 308.152 306.199 305.243 306.199 305.243L303.71 305.962V305.96Z" fill="url(#paint16_linear_55_1745)"/>
<path d="M303.175 300.953L302.973 306.271C302.973 306.271 304.7 307.239 306.071 306.682L307.595 301.074L303.175 300.952V300.953Z" fill="url(#paint17_linear_55_1745)"/>
<path d="M271.965 303.817C271.965 303.817 260.613 304.6 260.448 305.336C260.28 306.071 268.153 308.915 270.903 309.021C273.654 309.127 275.916 308.32 275.666 307.164C275.418 306.008 274.454 303.1 274.454 303.1L271.965 303.818V303.817Z" fill="url(#paint18_linear_55_1745)"/>
<path d="M271.428 298.808L271.227 304.126C271.227 304.126 272.954 305.094 274.324 304.537L275.848 298.929L271.428 298.807V298.808Z" fill="url(#paint19_linear_55_1745)"/>
<path d="M301.968 301.706C304.089 301.939 306.211 302.174 308.332 302.408C311.197 299.255 315.473 293.759 317.758 286.03C322.165 271.129 315.783 260.391 319.879 257.719C325.677 253.936 338.242 275.713 358.412 275.153C366.687 274.924 377.488 270.9 381.641 262.137C382.268 260.813 385.346 253.889 382.348 247.397C379.252 240.693 363.898 237.777 333.313 232.216C320.184 229.829 313.556 228.639 310.892 229.901C292.015 238.848 299.886 289.435 301.968 301.704V301.706Z" fill="url(#paint20_linear_55_1745)"/>
<path d="M269.583 301.795C271.777 302.174 273.97 302.553 276.165 302.932C278.83 299.036 282.862 292.93 287.373 285.183C296.774 269.034 296.603 265.754 300.947 263.675C310.143 259.276 317.091 271.16 339.833 274.438C347.272 275.511 363.788 277.891 370.469 269.057C373.179 265.475 374.734 259.439 372.59 254.316C368.747 245.133 356.086 246.236 314.38 238.172C298.115 235.026 295.898 234.467 291.959 235.857C269.957 243.624 269.528 291.186 269.583 301.795V301.795Z" fill="url(#paint21_linear_55_1745)"/>
<path d="M315.148 175.33C317.313 170.074 321.961 167.05 324.37 165.483C325.576 164.698 326.69 164.109 327.822 163.65C336.55 160.113 345.264 160.357 346.817 160.473C350.587 160.753 359.896 161.445 366.794 167.378C370.132 170.25 372.8 174.259 376.692 196.858C382.119 228.376 377.715 225.145 381.994 237.919C384.26 244.679 387.788 252.436 384.056 257.388C382.85 258.988 381.129 259.448 377.617 261.016C364.503 266.875 352.744 265.865 345.6 265.162C337.737 264.389 333.764 263.947 331.679 261.188C328.349 256.782 331.777 251.183 332.374 241.494C332.804 234.537 331.211 229.023 328.024 217.999C320.616 192.368 310.998 185.398 315.146 175.329L315.148 175.33Z" fill="url(#paint22_linear_55_1745)"/>
<path d="M278.195 206.716L269.815 205.116C269.213 205.001 268.595 204.995 267.99 205.098L260.742 206.335C260.742 206.335 265.455 208.217 269.461 207.626C273.467 207.036 277.844 209.273 277.844 209.273L278.194 206.714L278.195 206.716Z" fill="url(#paint23_linear_55_1745)"/>
<path d="M333.684 154.647C332.275 152.533 334.384 148.467 335.219 146.858C335.247 146.802 335.284 146.73 335.362 146.586C336.644 144.239 336.972 143.918 337.583 143.511L338.433 142.99C338.433 142.99 338.482 142.971 338.533 142.952C339.08 142.759 340.938 142.703 341.316 142.783C342.519 143.038 343.8 147.904 343.435 154.786C343.485 155.049 343.532 155.313 343.58 155.579C343.769 156.666 343.92 157.731 344.035 158.771C344.146 159.767 345.57 159.745 346.576 159.681C350.665 159.422 352.667 159.767 352.84 160.371C353.166 161.504 348.317 165.209 342.326 166.041C334.288 166.101 327.75 165.25 328.453 163.994C328.765 163.436 334.992 161.821 336.744 160.22C338.348 158.754 338.217 157.241 338.35 156.156C337.521 156.2 334.757 156.258 333.681 154.646L333.684 154.647Z" fill="url(#paint24_linear_55_1745)"/>
<path d="M335.941 141.034C335.279 142.481 336.883 145.387 337.475 145.809C337.542 145.856 337.916 146.15 338.254 146.652C338.3 146.721 338.34 146.801 338.377 146.905C338.847 148.248 336.696 149.829 337.111 150.431C337.413 150.867 338.875 150.284 339.048 150.66C339.213 151.016 337.996 151.749 338.183 152.173C338.323 152.494 339.071 152.201 339.543 152.692C339.907 153.071 339.95 153.61 339.959 153.879C340.016 155.789 335.655 162.687 334.747 165.798C333.783 169.1 335.507 172.241 341.77 180.92C350.678 193.269 355.131 199.442 357.608 201.208C369.71 209.833 383.942 208.776 389.777 207.876C396.788 206.795 411.271 204.562 415.936 193.488C421.297 180.757 410.741 163.338 399.911 160.38C394.958 159.027 392.321 161.082 385.888 158.86C378.783 156.405 379.644 152.065 373.067 149.502C364.294 146.084 358.634 152.195 352.658 147.745C349.406 145.324 349.943 142.665 345.941 140.726C341.995 138.813 336.809 139.139 335.944 141.036L335.941 141.034Z" fill="#26264F"/>
<path d="M337.881 149.928C338.408 149.21 339.333 149.884 339.337 150.814C339.343 151.743 338.436 152.709 337.557 152.526C336.678 152.342 337.172 150.895 337.881 149.93V149.928Z" fill="url(#paint25_linear_55_1745)"/>
<path style="mix-blend-mode:multiply" opacity="0.3" d="M352.386 256.007C350.073 251.435 355.741 245.358 352.038 238.386C348.894 232.466 343.18 233.792 340.553 228.367C337.381 221.813 344.281 216.915 344.034 206.945C343.738 195.026 333.409 183.095 327.328 184.141C323.395 184.818 322.889 190.643 320.121 197.021C322.571 202.352 325.431 209.031 328.024 218C331.21 229.026 332.804 234.539 332.374 241.495C331.777 251.186 328.348 256.785 331.679 261.189C333.764 263.947 337.737 264.39 345.6 265.163C352.744 265.865 364.503 266.875 377.617 261.017C379.277 260.275 380.52 259.72 381.534 259.172C361.044 262.226 354.221 259.633 352.386 256.007V256.007Z" fill="url(#paint26_linear_55_1745)"/>
<path d="M276.061 209.143C276.299 208.081 276.536 207.02 276.774 205.958C292.875 208.823 299.914 205.607 303.315 201.849C306.436 198.399 305.106 196.617 310.102 183.45C314.861 170.91 320.259 167.686 322.979 166.52C324.499 165.869 325.546 165.437 326.807 165.743C332.608 167.15 334.525 182.156 332.898 193.383C331.981 199.708 330.183 212.114 319.935 218C319.747 218.109 319.448 218.28 319.055 218.49C317.764 219.176 312.635 221.623 302.534 219.815C290.624 217.682 279.005 210.906 276.063 209.141L276.061 209.143Z" fill="url(#paint27_linear_55_1745)"/>
<path d="M350.606 342.284C370.033 342.284 385.781 335.903 385.781 328.031C385.781 320.16 370.033 313.779 350.606 313.779C331.179 313.779 315.43 320.16 315.43 328.031C315.43 335.903 331.179 342.284 350.606 342.284Z" fill="url(#paint28_linear_55_1745)"/>
<path d="M385.783 326.361C385.783 333.792 370.034 339.815 350.607 339.815C331.18 339.815 315.432 333.792 315.432 326.361C315.432 318.93 331.18 306.773 350.607 306.773C370.034 306.773 385.783 318.931 385.783 326.361Z" fill="url(#paint29_linear_55_1745)"/>
<path style="mix-blend-mode:multiply" opacity="0.3" d="M385.783 326.361C385.783 318.93 370.034 306.773 350.607 306.773C341.637 306.773 333.456 309.367 327.242 312.889C326.807 313.794 326.605 314.693 326.687 315.546C327.091 319.728 333.959 322.297 337.902 323.145C347.83 325.28 352.678 319.385 360.862 319.61C365.923 319.748 372.936 322.272 381.254 332.962C384.134 331.011 385.784 328.76 385.784 326.359L385.783 326.361Z" fill="url(#paint30_linear_55_1745)"/>
<path d="M352.533 313.521C351.127 313.867 349.816 313.854 348.581 313.543C347.463 313.26 346.695 312.232 346.695 311.086V271.708H354.517V311.041C354.517 312.222 353.688 313.235 352.533 313.521V313.521Z" fill="white"/>
<path style="mix-blend-mode:multiply" opacity="0.65" d="M352.533 313.521C351.127 313.867 349.816 313.854 348.581 313.543C347.463 313.26 346.695 312.232 346.695 311.086V271.708H354.517V311.041C354.517 312.222 353.688 313.235 352.533 313.521V313.521Z" fill="url(#paint31_linear_55_1745)"/>
<path d="M309.277 255.136L321.227 247.636C321.724 244.835 327.356 215.528 350.224 206.325C359.523 202.583 369.531 203.027 375.023 203.271C385.987 203.757 393.806 204.104 397.568 209.296C402.398 215.963 394.298 222.008 395.974 241.078C396.658 248.854 398.398 252.308 396.232 257.46C393.636 263.632 387.618 267.053 382.938 268.979C377.345 272.203 367.605 276.799 354.74 277.918C333.071 279.803 316.894 270.576 311.331 267.044C308.857 266.27 306.998 264.227 306.473 261.706C305.94 259.15 307.059 256.532 309.282 255.136H309.277Z" fill="url(#paint32_linear_55_1745)"/>
<g style="mix-blend-mode:soft-light" opacity="0.26">
<path d="M314.77 260.477C315.211 257.84 322.615 260.026 329.617 254.862C340.086 247.143 334.652 234.066 343.757 221.521C352.114 210.008 368.936 204.149 374.159 208.535C381.111 214.373 364.097 236.209 374.159 250.298C379.046 257.143 386.493 256.813 386.531 260.828C386.592 267.172 368.059 274.484 350.474 274.165C331.569 273.821 314.069 264.662 314.77 260.478V260.477Z" fill="white"/>
</g>
<path opacity="0.82" d="M299.806 68.7856L246.067 157.282H390.225L339.05 70.6147L299.806 68.7856Z" fill="white"/>
<path d="M318.787 23.2985C318.631 23.2985 318.505 23.1736 318.505 23.0194V18.9048C318.505 18.7506 318.631 18.6257 318.787 18.6257C318.942 18.6257 319.068 18.7506 319.068 18.9048V23.0194C319.068 23.1736 318.942 23.2985 318.787 23.2985Z" fill="#6567D9"/>
<path d="M318.787 52.9437C318.631 52.9437 318.505 52.8189 318.505 52.6646V23.02C318.505 22.8657 318.631 22.7408 318.787 22.7408C318.942 22.7408 319.068 22.8657 319.068 23.02V52.6661C319.068 52.8203 318.942 52.9452 318.787 52.9452V52.9437Z" fill="#6567D9"/>
<path d="M318.787 57.0582C318.631 57.0582 318.505 56.9333 318.505 56.7791V52.6646C318.505 52.5103 318.631 52.3855 318.787 52.3855C318.942 52.3855 319.068 52.5103 319.068 52.6646V56.7791C319.068 56.9333 318.942 57.0582 318.787 57.0582Z" fill="#6567D9"/>
<path d="M318.787 10.5579C318.631 10.5579 318.505 10.4331 318.505 10.2788V6.1643C318.505 6.01006 318.631 5.8852 318.787 5.8852C318.942 5.8852 319.068 6.01006 319.068 6.1643V10.2788C319.068 10.4331 318.942 10.5579 318.787 10.5579Z" fill="#6567D9"/>
<path d="M318.787 11.2974C318.631 11.2974 318.505 11.1725 318.505 11.0183V10.2779C318.505 10.1237 318.631 9.99883 318.787 9.99883C318.942 9.99883 319.068 10.1237 319.068 10.2779V11.0183C319.068 11.1725 318.942 11.2974 318.787 11.2974Z" fill="#6567D9"/>
<path d="M318.787 15.412C318.631 15.412 318.505 15.2872 318.505 15.1329V11.0184C318.505 10.8641 318.631 10.7393 318.787 10.7393C318.942 10.7393 319.068 10.8641 319.068 11.0184V15.1329C319.068 15.2872 318.942 15.412 318.787 15.412Z" fill="#6567D9"/>
<path d="M318.787 3.23582C318.631 3.23582 318.505 3.11096 318.505 2.95672V0.56232C318.505 0.40808 318.631 0.283218 318.787 0.283218C318.942 0.283218 319.068 0.40808 319.068 0.56232V2.95672C319.068 3.11096 318.942 3.23582 318.787 3.23582V3.23582Z" fill="#6567D9"/>
<path d="M340.229 72.8523V66.3542C340.229 61.3003 336.065 57.1661 330.974 57.1661H306.597C301.507 57.1661 297.343 61.3003 297.343 66.3542V72.8523H340.228H340.229Z" fill="url(#paint33_linear_55_1745)"/>
<path d="M318.818 76.8469C330.677 76.8469 340.291 74.9578 340.291 72.6275C340.291 70.2971 330.677 68.4081 318.818 68.4081C306.958 68.4081 297.344 70.2971 297.344 72.6275C297.344 74.9578 306.958 76.8469 318.818 76.8469Z" fill="url(#paint34_linear_55_1745)"/>
<path d="M318.818 67.1735C309.576 67.1735 301.815 65.919 299.944 64.1239C299.877 64.0608 299.876 63.955 299.94 63.8889C300.005 63.8228 300.111 63.8213 300.176 63.8845C301.961 65.5973 309.801 66.8415 318.818 66.8415C327.199 66.8415 334.708 65.7486 337.079 64.1827C337.156 64.1328 337.259 64.1519 337.311 64.2282C337.363 64.3046 337.342 64.4075 337.265 64.4589C334.806 66.0835 327.393 67.1735 318.818 67.1735V67.1735Z" fill="#726BDF"/>
<path d="M327.253 57.4932C327.223 55.5233 325.592 53.9207 323.601 53.9207H313.973C311.963 53.9207 310.318 55.5527 310.318 57.549H310.322C310.322 57.549 310.318 57.5608 310.318 57.5667C310.318 58.4862 314.113 59.2325 318.794 59.2325C323.475 59.2325 327.27 58.4862 327.27 57.5667C327.27 57.5417 327.257 57.5182 327.251 57.4947L327.253 57.4932Z" fill="url(#paint35_linear_55_1745)"/>
<path opacity="0.82" d="M84.7971 78.8993L31.0588 167.395H175.217L124.04 80.7284L84.7971 78.8993Z" fill="white"/>
<path d="M103.779 21.8396C103.623 21.8396 103.498 21.7147 103.498 21.5605V17.4459C103.498 17.2917 103.623 17.1668 103.779 17.1668C103.934 17.1668 104.06 17.2917 104.06 17.4459V21.5605C104.06 21.7147 103.934 21.8396 103.779 21.8396Z" fill="#6567D9"/>
<path d="M103.779 63.0589C103.623 63.0589 103.498 62.934 103.498 62.7797V21.5626C103.498 21.4083 103.623 21.2834 103.779 21.2834C103.934 21.2834 104.06 21.4083 104.06 21.5626V62.7797C104.06 62.934 103.934 63.0589 103.779 63.0589V63.0589Z" fill="#6567D9"/>
<path d="M103.779 67.1718C103.623 67.1718 103.498 67.047 103.498 66.8927V62.7782C103.498 62.6239 103.623 62.4991 103.779 62.4991C103.934 62.4991 104.06 62.6239 104.06 62.7782V66.8927C104.06 67.047 103.934 67.1718 103.779 67.1718Z" fill="#6567D9"/>
<path d="M103.779 14.6531C103.623 14.6531 103.498 14.5282 103.498 14.374V7.80979C103.498 7.65553 103.623 7.53065 103.779 7.53065C103.934 7.53065 104.06 7.65553 104.06 7.80979V14.3754C104.06 14.5297 103.934 14.6546 103.779 14.6546V14.6531Z" fill="#6567D9"/>
<path d="M103.779 5.3911C103.623 5.3911 103.498 5.26624 103.498 5.112V2.36212C103.498 2.20788 103.623 2.08302 103.779 2.08302C103.934 2.08302 104.06 2.20788 104.06 2.36212V5.112C104.06 5.26624 103.934 5.3911 103.779 5.3911V5.3911Z" fill="#6567D9"/>
<path d="M125.221 82.9659V76.4678C125.221 71.4139 121.057 67.2797 115.967 67.2797H91.5894C86.4988 67.2797 82.3346 71.4139 82.3346 76.4678V82.9659H125.22H125.221Z" fill="url(#paint36_linear_55_1745)"/>
<path d="M103.808 86.9606C115.668 86.9606 125.282 85.0715 125.282 82.7411C125.282 80.4108 115.668 78.5217 103.808 78.5217C91.9487 78.5217 82.3346 80.4108 82.3346 82.7411C82.3346 85.0715 91.9487 86.9606 103.808 86.9606Z" fill="url(#paint37_linear_55_1745)"/>
<path d="M103.808 77.2872C94.5668 77.2872 86.8052 76.0327 84.9347 74.2362C84.8681 74.173 84.8666 74.0672 84.9302 74.0011C84.9953 73.935 85.1019 73.9336 85.167 73.9967C86.9517 75.7095 94.7918 76.9537 103.808 76.9537C112.19 76.9537 119.699 75.8608 122.069 74.2949C122.146 74.245 122.25 74.2641 122.302 74.3405C122.353 74.4168 122.333 74.5197 122.256 74.5711C119.796 76.1957 112.384 77.2857 103.808 77.2857V77.2872Z" fill="#726BDF"/>
<path d="M112.245 67.6069C112.215 65.637 110.584 64.0344 108.593 64.0344H98.9649C96.9553 64.0344 95.3097 65.6664 95.3097 67.6627H95.3141C95.3141 67.6627 95.3097 67.6744 95.3097 67.6803C95.3097 68.5999 99.1054 69.3461 103.786 69.3461C108.467 69.3461 112.263 68.5999 112.263 67.6803C112.263 67.6554 112.249 67.6319 112.243 67.6083L112.245 67.6069Z" fill="url(#paint38_linear_55_1745)"/>
<path d="M79.483 218.626C79.483 218.626 53.0534 173.193 17.3113 250.457C-10.5212 310.622 7.46748 377.555 71.856 395.921C136.245 414.287 236.812 377.195 205.244 351.055C138.285 295.604 87.4652 246.455 79.483 218.628V218.626Z" fill="url(#paint39_linear_55_1745)"/>
<g style="mix-blend-mode:multiply" opacity="0.3">
<path d="M46.3187 259.456C44.4379 264.958 44.0117 280.635 44.8049 298.664C45.5137 314.747 44.0428 323.155 69.8154 334.853C78.6499 338.862 84.7586 351.585 98.2842 359.154C104.417 362.586 127.518 375 157.351 369.985C177.091 366.666 191.788 357.053 201.687 348.096C136.496 293.86 87.3217 245.957 79.4831 218.626C79.4831 218.626 69.8257 202.038 54.2965 205.965C58.0641 210.135 59.3427 221.363 46.3187 259.456V259.456Z" fill="url(#paint40_linear_55_1745)"/>
</g>
<g style="mix-blend-mode:multiply" opacity="0.3">
<path d="M174.914 377.645C144.462 394.339 93.605 404.527 55.7156 376.588C20.6335 350.72 17.5066 307.396 16.3376 294.173C14.2939 271.066 18.8414 250.945 25.397 234.716C22.7629 239.289 20.0652 244.507 17.3128 250.457C-10.5198 310.622 7.46898 377.555 71.8575 395.921C135.235 413.999 233.666 378.346 206.634 352.292C198.951 360.895 188.586 370.149 174.914 377.645V377.645Z" fill="url(#paint41_linear_55_1745)"/>
</g>
<path style="mix-blend-mode:multiply" opacity="0.3" d="M126.941 382.603C126.038 382.603 125.133 382.593 124.217 382.572C100.699 382.051 67.6814 374.295 43.9407 340.312C23.8891 311.609 26.5735 279.216 32.3551 257.095C38.6133 233.155 49.7519 215.757 49.8644 215.584C49.9902 215.39 50.2491 215.335 50.443 215.459C50.6368 215.582 50.6946 215.839 50.5688 216.033C50.4578 216.205 39.3798 233.51 33.1587 257.327C27.4258 279.273 24.7621 311.402 44.6288 339.839C68.1683 373.536 100.912 381.225 124.236 381.742C149.544 382.302 169.496 374.796 169.694 374.72C169.909 374.636 170.152 374.745 170.235 374.958C170.318 375.171 170.209 375.413 169.995 375.494C169.803 375.567 151.093 382.602 126.941 382.602V382.603Z" fill="url(#paint42_linear_55_1745)"/>
<path d="M253.232 378.306C251.554 376.512 248.547 368.792 254.031 367.205C259.546 365.609 262.611 363.589 270.206 357.545C277.8 351.501 279.75 356.692 269.025 366.507C258.299 376.322 255.619 380.856 253.232 378.306Z" fill="url(#paint43_linear_55_1745)"/>
<path d="M246.046 367.03L250.564 370.947C251.508 371.765 252.88 371.869 253.939 371.205C254.432 370.895 254.749 370.372 254.79 369.794C254.832 369.216 254.595 368.652 254.151 368.274L247.548 362.665L246.046 367.03Z" fill="url(#paint44_linear_55_1745)"/>
<path d="M110.739 329.321C102.756 336.263 119.418 359.031 146.035 351.651C178.291 342.708 219.312 346.728 246.964 369.08C248.568 367.663 252.541 365.439 250.724 363.616C225.743 338.537 202.606 324.141 183.442 320.277C154.469 314.437 133.466 309.554 110.737 329.321H110.739Z" fill="url(#paint45_linear_55_1745)"/>
<g style="mix-blend-mode:multiply" opacity="0.24">
<path d="M204.315 338.857C208.994 341.559 209.992 336.069 212.405 332.458C202.043 326.142 192.314 322.066 183.442 320.278C154.469 314.439 133.466 309.555 110.737 329.323C102.755 336.264 119.416 359.032 146.034 351.652C155.66 348.983 166.072 347.499 176.672 347.282C185.197 341.959 192.175 329.744 204.314 338.857H204.315Z" fill="#552D63"/>
</g>
<path d="M106.027 353.038L104.388 353.659C104.388 353.659 93.79 343.725 91.9017 341.193C89.5976 338.105 115.549 330.228 123.977 319.925C132.832 309.097 125.836 332.78 125.836 332.78L106.027 353.038V353.038Z" fill="url(#paint46_linear_55_1745)"/>
<path d="M96.4152 255.571C96.4152 255.571 105.824 256.852 116.141 275.014C123.898 288.67 140.739 299.982 140.739 299.982L142.467 310.728L128.49 313.165L123.49 309.896L109.85 281.085L96.4137 255.57L96.4152 255.571Z" fill="url(#paint47_linear_55_1745)"/>
<path d="M78.1721 254.412C78.1721 254.412 54.9789 257.252 54.4817 283.747C54.0214 308.198 62.9078 317.669 84.7115 338.057C86.9046 340.106 90.4591 340.108 90.7225 340.403C92.1387 341.99 93.5741 343.641 95.0258 345.37C114.539 326.78 136.541 320.484 136.541 320.484C136.541 320.484 116.192 278.691 107.251 264.837C98.0314 250.554 84.127 252.993 78.1736 254.413L78.1721 254.412Z" fill="url(#paint48_linear_55_1745)"/>
<g style="mix-blend-mode:multiply" opacity="0.3">
<path d="M116.678 316.133C106.888 321.334 93.0131 320.744 87.9107 314.309C84.0676 309.463 83.4446 307.657 78.7668 300.045C75.0037 293.922 73.1716 292.941 64.9483 287.785C61.8451 285.84 58.3231 283.024 54.8692 278.803C54.6516 280.353 54.514 281.995 54.48 283.747C54.0198 308.198 62.9061 317.669 84.7098 338.057C86.9029 340.106 90.4574 340.108 90.7208 340.403C92.137 341.99 93.5725 343.641 95.0242 345.37C114.537 326.78 136.539 320.484 136.539 320.484C136.539 320.484 133.162 313.911 128.69 304.667C125.446 310.064 122.959 312.798 116.678 316.134V316.133Z" fill="url(#paint49_linear_55_1745)"/>
</g>
<path d="M100.687 316.911C100.687 316.911 105.083 317.113 108.205 315.864C111.327 314.615 111.07 314.329 114.663 313.876C118.155 313.435 125.035 311.377 121.14 307.861C116.804 303.948 109.374 305.045 107.239 307.642C105.18 310.147 101.612 311.738 101.612 311.738L100.687 316.911V316.911Z" fill="url(#paint50_linear_55_1745)"/>
<path d="M61.4825 267.618C61.4825 267.618 48.6021 269.106 56.1181 310.288C60.016 331.647 79.2862 328.64 102.555 319.814C104.13 316.543 102.104 309.61 102.104 309.61C102.104 309.61 73.1938 321.444 72.4465 304.18C71.6074 284.823 68.9985 265.575 61.484 267.62L61.4825 267.618Z" fill="url(#paint51_linear_55_1745)"/>
<path d="M83.5688 263.172C78.055 263.172 72.4539 259.119 72.186 258.922C72.0928 258.855 72.0736 258.724 72.1416 258.631C72.2112 258.539 72.3414 258.52 72.4347 258.587C72.5086 258.641 79.8708 263.972 85.83 262.491C87.4815 262.081 88.6106 261.279 89.1892 260.108C90.2902 257.876 89.0427 255.016 89.0309 254.986C88.9835 254.88 89.0309 254.759 89.1374 254.713C89.2454 254.667 89.3668 254.714 89.4127 254.819C89.4674 254.944 90.7504 257.886 89.5651 260.29C88.9302 261.577 87.7079 262.452 85.9321 262.893C85.1567 263.086 84.3635 263.169 83.5688 263.169V263.172Z" fill="url(#paint52_linear_55_1745)"/>
<path d="M91.7655 339.557C91.7078 339.557 91.6516 339.533 91.6102 339.488C91.5332 339.403 91.5391 339.272 91.625 339.194C91.8321 339.007 112.596 320.556 131.339 316.006C131.453 315.975 131.564 316.047 131.592 316.159C131.619 316.271 131.551 316.382 131.438 316.41C112.797 320.935 92.1118 339.317 91.9047 339.503C91.8647 339.538 91.8144 339.557 91.7641 339.557H91.7655Z" fill="url(#paint53_linear_55_1745)"/>
<path d="M77.0428 243.492C77.0428 243.492 77.836 252.546 77.1198 254.261C76.4035 255.975 78.6662 258.314 83.1367 259.215C87.6073 260.115 84.0675 250.185 84.0675 250.185L77.0428 243.492V243.492Z" fill="url(#paint54_linear_55_1745)"/>
<path d="M85.0472 240.195C87.375 235.475 80.4198 225.893 77.7517 226.667C76.22 227.111 77.7324 230.509 74.8956 235.085C72.6862 238.649 69.9412 239.538 70.1054 242.197C70.1824 243.448 70.8883 244.873 71.8339 245.828C72.3207 246.32 73.0858 246.862 74.684 247.836C76.1031 248.701 76.0262 248.684 76.4524 248.929C77.4764 249.518 79.3573 250.442 82.3702 251.15C82.2163 250.461 82.0683 249.589 82.0239 248.585C82.0062 248.199 81.9544 246.684 82.2947 245.241C82.9148 242.613 84.3798 241.548 85.0472 240.195V240.195Z" fill="url(#paint55_linear_55_1745)"/>
<path d="M78.7387 250.745C78.7387 250.745 82.6203 253.197 86.7608 250.833C90.4693 248.718 86.8097 239.914 83.4668 239.299C82.351 239.093 80.5929 239.64 79.4461 240.658C78.7683 241.259 78.6632 241.713 77.5386 242.673C76.4997 243.559 76.0987 243.593 75.8886 244.068C75.6252 244.663 75.751 245.742 77.7354 247.87C76.6403 247.492 75.6237 247.638 75.1472 248.233C75.0717 248.328 74.8956 248.634 74.8808 248.975C74.8275 250.21 76.3384 251.017 78.7372 250.743L78.7387 250.745Z" fill="url(#paint56_linear_55_1745)"/>
<path d="M103.776 322.446C103.564 322.476 103.37 322.628 103.317 322.828C103.31 322.857 103.391 323.902 103.388 323.932C103.367 324.175 103.518 324.4 103.751 324.475L123.472 330.835L160.327 316.504L142.816 317.834L103.776 322.446Z" fill="#26264F"/>
<path d="M103.767 322.303C103.524 322.338 103.338 322.535 103.317 322.778C103.296 323.02 103.447 323.245 103.68 323.32L123.401 329.68L160.258 315.35L142.745 316.679L103.765 322.303H103.767Z" fill="#444B8C"/>
<path d="M122.53 329.395L125.467 291.225C125.514 290.613 125.979 290.114 126.589 290.018L170.726 283.16C171.121 283.099 171.524 283.218 171.821 283.482C172.118 283.747 172.281 284.132 172.262 284.528L170.606 320.104C170.578 320.718 170.127 321.231 169.518 321.344L123.666 329.771L122.53 329.393V329.395Z" fill="url(#paint57_linear_55_1745)"/>
<path d="M123.472 330.834L126.503 291.824C126.55 291.213 127.015 290.713 127.625 290.619L171.762 283.761C172.157 283.7 172.559 283.819 172.857 284.083C173.154 284.347 173.317 284.732 173.298 285.129L171.64 320.71C171.612 321.322 171.164 321.834 170.559 321.949L123.471 330.836L123.472 330.834Z" fill="#26264F"/>
<path d="M123.472 330.835L170.56 321.948C171.165 321.833 171.614 321.322 171.642 320.709L172.142 309.978C158.115 317.887 140.536 318.893 124.154 322.065L123.474 330.835H123.472Z" fill="#1F1F44"/>
<path d="M203.226 322.838C202.582 320.619 201.16 318.166 206.237 316.378C209.924 315.079 216.328 314.662 222.148 314.365C230.305 313.949 232.18 318.795 220.26 321.877C212.454 323.896 204.14 325.995 203.226 322.839V322.838Z" fill="url(#paint58_linear_55_1745)"/>
<path d="M209.582 319.441C209.659 320.682 208.863 321.658 207.822 321.804C205.409 322.147 205.861 320.913 205.784 319.672C205.708 318.43 204.732 317.568 207.544 317.308C208.59 317.211 209.505 318.2 209.582 319.441Z" fill="url(#paint59_linear_55_1745)"/>
<path d="M184.817 312.298L187.199 311.925C187.199 311.925 191.84 312.356 204.629 315.857C207.366 316.308 211.099 324.241 203.076 324.553C195.054 324.864 185.29 330.795 185.29 330.795L184.815 312.298H184.817Z" fill="url(#paint60_linear_55_1745)"/>
<path d="M101.525 349.209C101.525 349.209 102.693 359.504 126.803 358.566C150.914 357.629 193.987 332.78 193.715 319.741C193.444 306.702 177.416 311.91 160.82 319.447C146.812 325.809 125.176 329.493 120.742 330.176C115.065 331.05 100.152 344.264 101.524 349.208L101.525 349.209Z" fill="url(#paint61_linear_55_1745)"/>
<g style="mix-blend-mode:multiply" opacity="0.2">
<path d="M133.073 336.307C144.234 335.179 146.74 327.228 160.628 324.929C169.628 323.439 172.805 326.078 177.393 323.028C181.014 320.62 182.862 316.421 183.753 311.861C177.598 312.379 169.291 315.601 160.823 319.447C147.218 325.627 126.416 329.279 121.168 330.11C121.013 330.135 117.495 328.887 117.495 328.887C117.495 328.887 114.877 330.372 113 331.544C120.316 335.438 128.998 336.72 133.073 336.307V336.307Z" fill="url(#paint62_linear_55_1745)"/>
</g>
<path opacity="0.75" d="M269.378 43.5881C269.378 27.7624 255.807 14.9323 239.066 14.9323C222.324 14.9323 208.753 27.7624 208.753 43.5881C208.753 53.192 213.752 61.6925 221.423 66.8919C224.677 69.0971 226.651 72.7332 226.651 76.6456V78.839C226.651 83.6035 230.542 87.4659 235.341 87.4659H242.789C247.588 87.4659 251.478 83.6035 251.478 78.839V76.6456C251.478 72.7332 253.452 69.0971 256.707 66.8919C264.378 61.6925 269.377 53.192 269.377 43.5881H269.378Z" fill="#F4F7FA"/>
<path d="M239.066 103.777C242.779 103.777 245.79 102.194 245.79 100.242C245.79 98.2895 242.779 96.7069 239.066 96.7069C235.352 96.7069 232.341 98.2895 232.341 100.242C232.341 102.194 235.352 103.777 239.066 103.777Z" fill="url(#paint63_linear_55_1745)"/>
<path d="M230.132 93.9287V97.5384C230.132 98.7593 230.832 99.8788 231.942 100.405C233.484 101.135 236.045 101.936 239.77 101.84C242.792 101.764 244.761 101.273 246.013 100.759C247.224 100.262 247.999 99.0737 247.999 97.7735V95.7769L230.132 93.9302V93.9287Z" fill="url(#paint64_linear_55_1745)"/>
<path style="mix-blend-mode:multiply" opacity="0.3" d="M230.132 97.0899C230.404 97.3529 230.719 97.5762 231.075 97.7436C232.803 98.5618 244.13 100.391 246.861 99.3727C247.217 99.2405 247.535 99.0627 247.814 98.8497C247.934 98.5089 247.999 98.1461 247.999 97.773V95.7767L230.132 93.9302V97.0914V97.0899Z" fill="url(#paint65_linear_55_1745)"/>
<path d="M230.925 91.4723C229.919 91.368 229.043 92.1526 229.043 93.156V93.2588C229.043 94.6281 229.829 95.8842 231.073 96.4733C232.802 97.2917 244.128 99.1208 246.86 98.1026C248.235 97.5899 249.087 96.4175 249.087 94.9586V94.8764C249.087 94.0096 248.427 93.2823 247.558 93.1927L230.924 91.4723H230.925Z" fill="url(#paint66_linear_55_1745)"/>
<path style="mix-blend-mode:multiply" opacity="0.3" d="M247.56 93.1925L230.925 91.4723C230.268 91.4048 229.67 91.7147 229.331 92.2171C229.666 92.9986 230.274 93.6523 231.075 94.0312C232.803 94.8495 244.612 96.9177 246.861 95.8645C247.737 95.4547 248.424 94.7628 248.793 93.9225C248.519 93.523 248.078 93.2439 247.561 93.191L247.56 93.1925Z" fill="url(#paint67_linear_55_1745)"/>
<path d="M230.274 85.6251C229.593 85.6251 229.043 86.1731 229.043 86.8474V89.6741C229.043 91.0433 229.829 92.2994 231.073 92.8886C232.802 93.7069 244.611 95.7755 246.86 94.7221C248.189 94.1006 249.087 92.8313 249.087 91.3724V86.8459C249.087 86.1701 248.535 85.6236 247.856 85.6236H230.273L230.274 85.6251Z" fill="url(#paint68_linear_55_1745)"/>
<path d="M248.84 86.5048C248.84 87.7725 244.464 88.7993 239.066 88.7993C233.667 88.7993 229.29 87.7725 229.29 86.5048C229.29 85.2371 233.666 84.2103 239.066 84.2103C244.466 84.2103 248.84 85.2371 248.84 86.5048Z" fill="url(#paint69_linear_55_1745)"/>
<path d="M269.378 43.5881C269.378 27.7624 255.807 14.9323 239.066 14.9323C222.324 14.9323 208.753 27.7624 208.753 43.5881C208.753 53.192 213.752 61.6925 221.423 66.8919C224.677 69.0971 226.651 72.7332 226.651 76.6456V78.839C226.651 83.6035 230.542 87.4659 235.341 87.4659H242.789C247.588 87.4659 251.478 83.6035 251.478 78.839V76.6456C251.478 72.7332 253.452 69.0971 256.707 66.8919C264.378 61.6925 269.377 53.192 269.377 43.5881H269.378Z" fill="url(#paint70_linear_55_1745)"/>
<g style="mix-blend-mode:soft-light" opacity="0.5">
<path d="M239.066 86.3739C243.016 86.3739 246.218 85.6222 246.218 84.6949C246.218 83.7676 243.016 83.0159 239.066 83.0159C235.116 83.0159 231.914 83.7676 231.914 84.6949C231.914 85.6222 235.116 86.3739 239.066 86.3739Z" fill="#F4F7FA"/>
</g>
<path d="M237.201 85.722C236.997 85.722 236.818 85.5707 236.791 85.3636L231.529 44.7385C231.499 44.5137 231.659 44.308 231.886 44.2786C232.112 44.2478 232.319 44.4079 232.349 44.6327L237.611 85.2578C237.641 85.4826 237.481 85.6883 237.254 85.7176C237.237 85.7206 237.219 85.7206 237.201 85.7206V85.722Z" fill="url(#paint71_linear_55_1745)"/>
<path d="M240.47 85.7221C240.452 85.7221 240.434 85.7221 240.417 85.7191C240.19 85.6897 240.03 85.4841 240.06 85.2593L245.322 44.6342C245.352 44.4094 245.558 44.2493 245.785 44.2801C246.012 44.3095 246.172 44.5152 246.142 44.74L240.88 85.3651C240.853 85.5722 240.676 85.7235 240.47 85.7235V85.7221Z" fill="url(#paint72_linear_55_1745)"/>
<path d="M244.756 44.7041C244.621 44.7041 244.489 44.6395 244.411 44.519L242.959 42.3318C242.944 42.3097 242.921 42.2965 242.9 42.2994C242.864 42.2994 242.848 42.3259 242.844 42.3332L241.885 43.927C241.726 44.1915 241.447 44.353 241.139 44.3604C240.833 44.3707 240.544 44.2194 240.372 43.9638L239.055 42.0042C239.04 41.9836 239.021 41.9719 238.999 41.9719C238.971 41.9777 238.958 41.9821 238.944 42.0012L237.787 43.6612C237.62 43.9006 237.346 44.0446 237.055 44.0446H237.053C236.762 44.0446 236.488 43.9021 236.319 43.6626L234.651 41.2917C234.637 41.2697 234.616 41.2624 234.592 41.2609C234.568 41.2609 234.549 41.2741 234.536 41.2961L233.015 43.9035C232.901 44.0989 232.648 44.1665 232.449 44.0534C232.251 43.9403 232.184 43.6891 232.298 43.4922L233.82 40.8848C233.975 40.6204 234.25 40.4544 234.555 40.4412C234.858 40.4265 235.15 40.5705 235.326 40.8231L236.994 43.194C237.009 43.2146 237.028 43.2249 237.05 43.2249C237.072 43.2249 237.092 43.2146 237.105 43.1955L238.262 41.5356C238.431 41.2932 238.71 41.1492 239.003 41.1522C239.299 41.1551 239.576 41.3035 239.74 41.5503L241.057 43.5099C241.072 43.5319 241.094 43.551 241.117 43.5422C241.152 43.5422 241.167 43.5157 241.173 43.5084L242.132 41.9146C242.292 41.6502 242.571 41.4871 242.879 41.4798C243.184 41.4724 243.475 41.6237 243.647 41.8808L245.099 44.0681C245.225 44.2576 245.171 44.5117 244.98 44.6365C244.911 44.6821 244.831 44.7041 244.754 44.7041H244.756Z" fill="url(#paint73_linear_55_1745)"/>
<path style="mix-blend-mode:multiply" opacity="0.3" d="M239.616 66.1911C240.266 55.146 259.02 52.5617 258.94 42.6978C258.891 36.6229 251.437 32.1111 249.846 31.2076C238.12 24.5494 223.687 32.2374 220.705 26.7957C219.963 25.4411 220.312 23.9661 220.51 23.1257C220.809 21.8564 221.488 20.6737 222.493 19.5924C214.219 24.7095 208.753 33.5435 208.753 43.5881C208.753 53.6328 213.752 61.6925 221.423 66.8919C224.679 69.0971 226.651 72.7332 226.651 76.6456V78.8391C226.651 83.6035 230.542 87.4659 235.341 87.4659H242.789C247.588 87.4659 251.478 83.6035 251.478 78.8391V77.0864C250.453 77.8665 249.276 78.4101 247.985 78.3998C243.505 78.3631 239.291 71.6872 239.615 66.1911H239.616Z" fill="url(#paint74_linear_55_1745)"/>
<g style="mix-blend-mode:soft-light" opacity="0.44">
<path d="M239.551 69.6789C253.957 69.6789 265.636 58.4976 265.636 44.7047C265.636 30.9118 253.957 19.7305 239.551 19.7305C225.145 19.7305 213.466 30.9118 213.466 44.7047C213.466 58.4976 225.145 69.6789 239.551 69.6789Z" fill="#F4F7FA"/>
</g>
<defs>
<linearGradient id="paint0_linear_55_1745" x1="222.005" y1="77.9737" x2="178.4" y2="288.556" gradientUnits="userSpaceOnUse">
<stop stop-color="#AA80F9"/>
<stop offset="1" stop-color="#6165D7"/>
</linearGradient>
<linearGradient id="paint1_linear_55_1745" x1="197.946" y1="298.393" x2="184.71" y2="298.78" gradientUnits="userSpaceOnUse">
<stop stop-color="#444B8C"/>
<stop offset="1" stop-color="#26264F"/>
</linearGradient>
<linearGradient id="paint2_linear_55_1745" x1="189.381" y1="294.257" x2="184.633" y2="294.257" gradientUnits="userSpaceOnUse">
<stop stop-color="#FFC444"/>
<stop offset="1" stop-color="#F36F56"/>
</linearGradient>
<linearGradient id="paint3_linear_55_1745" x1="240.891" y1="294.802" x2="227.34" y2="298.554" gradientUnits="userSpaceOnUse">
<stop stop-color="#444B8C"/>
<stop offset="1" stop-color="#26264F"/>
</linearGradient>
<linearGradient id="paint4_linear_55_1745" x1="231.705" y1="292.701" x2="225.842" y2="292.701" gradientUnits="userSpaceOnUse">
<stop stop-color="#FFC444"/>
<stop offset="1" stop-color="#F36F56"/>
</linearGradient>
<linearGradient id="paint5_linear_55_1745" x1="206.696" y1="74.8048" x2="163.091" y2="285.386" gradientUnits="userSpaceOnUse">
<stop stop-color="#AA80F9"/>
<stop offset="1" stop-color="#6165D7"/>
</linearGradient>
<linearGradient id="paint6_linear_55_1745" x1="168.672" y1="254.794" x2="185.222" y2="175.614" gradientUnits="userSpaceOnUse">
<stop stop-color="#AA80F9"/>
<stop offset="1" stop-color="#6165D7"/>
</linearGradient>
<linearGradient id="paint7_linear_55_1745" x1="176.408" y1="68.5329" x2="132.803" y2="279.114" gradientUnits="userSpaceOnUse">
<stop stop-color="#AA80F9"/>
<stop offset="1" stop-color="#6165D7"/>
</linearGradient>
<linearGradient id="paint8_linear_55_1745" x1="197.549" y1="159.696" x2="182.723" y2="159.696" gradientUnits="userSpaceOnUse">
<stop stop-color="#FFC444"/>
<stop offset="1" stop-color="#F36F56"/>
</linearGradient>
<linearGradient id="paint9_linear_55_1745" x1="258.5" y1="166.532" x2="248.498" y2="166.532" gradientUnits="userSpaceOnUse">
<stop stop-color="#FFC444"/>
<stop offset="1" stop-color="#F36F56"/>
</linearGradient>
<linearGradient id="paint10_linear_55_1745" x1="186.385" y1="96.2353" x2="186.903" y2="132.494" gradientUnits="userSpaceOnUse">
<stop stop-color="#FFC444"/>
<stop offset="1" stop-color="#F36F56"/>
</linearGradient>
<linearGradient id="paint11_linear_55_1745" x1="196.544" y1="91.6692" x2="183.716" y2="91.6692" gradientUnits="userSpaceOnUse">
<stop stop-color="#FFC444"/>
<stop offset="1" stop-color="#F36F56"/>
</linearGradient>
<linearGradient id="paint12_linear_55_1745" x1="195.31" y1="93.8582" x2="192.491" y2="93.8582" gradientUnits="userSpaceOnUse">
<stop stop-color="#FFC444"/>
<stop offset="1" stop-color="#F36F56"/>
</linearGradient>
<linearGradient id="paint13_linear_55_1745" x1="91.1219" y1="250.551" x2="39.7474" y2="267.946" gradientUnits="userSpaceOnUse">
<stop stop-color="#AB316D"/>
<stop offset="1" stop-color="#792D3D"/>
</linearGradient>
<linearGradient id="paint14_linear_55_1745" x1="96.3545" y1="227.51" x2="55.9835" y2="227.51" gradientUnits="userSpaceOnUse">
<stop stop-color="#FFC444"/>
<stop offset="1" stop-color="#F36F56"/>
</linearGradient>
<linearGradient id="paint15_linear_55_1745" x1="61.2827" y1="148.158" x2="194.516" y2="427.369" gradientUnits="userSpaceOnUse">
<stop stop-color="#FF9085"/>
<stop offset="1" stop-color="#FB6FBB"/>
</linearGradient>
<linearGradient id="paint16_linear_55_1745" x1="298.347" y1="290.001" x2="300.848" y2="322.07" gradientUnits="userSpaceOnUse">
<stop stop-color="#26264F"/>
<stop offset="1" stop-color="#444B8C"/>
</linearGradient>
<linearGradient id="paint17_linear_55_1745" x1="304.279" y1="307.72" x2="310.277" y2="269.828" gradientUnits="userSpaceOnUse">
<stop stop-color="#FFC444"/>
<stop offset="1" stop-color="#F36F56"/>
</linearGradient>
<linearGradient id="paint18_linear_55_1745" x1="266.602" y1="287.857" x2="269.103" y2="319.925" gradientUnits="userSpaceOnUse">
<stop stop-color="#26264F"/>
<stop offset="1" stop-color="#444B8C"/>
</linearGradient>
<linearGradient id="paint19_linear_55_1745" x1="272.535" y1="305.573" x2="278.533" y2="267.681" gradientUnits="userSpaceOnUse">
<stop stop-color="#FFC444"/>
<stop offset="1" stop-color="#F36F56"/>
</linearGradient>
<linearGradient id="paint20_linear_55_1745" x1="361.518" y1="221.898" x2="347.169" y2="243.403" gradientUnits="userSpaceOnUse">
<stop stop-color="#893976"/>
<stop offset="1" stop-color="#311944"/>
</linearGradient>
<linearGradient id="paint21_linear_55_1745" x1="269.58" y1="269.036" x2="373.596" y2="269.036" gradientUnits="userSpaceOnUse">
<stop stop-color="#893976"/>
<stop offset="1" stop-color="#311944"/>
</linearGradient>
<linearGradient id="paint22_linear_55_1745" x1="325.2" y1="191.539" x2="371.178" y2="235.763" gradientUnits="userSpaceOnUse">
<stop stop-color="#FF9085"/>
<stop offset="1" stop-color="#FB6FBB"/>
</linearGradient>
<linearGradient id="paint23_linear_55_1745" x1="269.837" y1="205.338" x2="268.797" y2="210.124" gradientUnits="userSpaceOnUse">
<stop stop-color="#FFC444"/>
<stop offset="1" stop-color="#F36F56"/>
</linearGradient>
<linearGradient id="paint24_linear_55_1745" x1="331.138" y1="140.839" x2="349.454" y2="183.17" gradientUnits="userSpaceOnUse">
<stop stop-color="#FFC444"/>
<stop offset="1" stop-color="#F36F56"/>
</linearGradient>
<linearGradient id="paint25_linear_55_1745" x1="332.944" y1="139.44" x2="353.389" y2="186.697" gradientUnits="userSpaceOnUse">
<stop stop-color="#FFC444"/>
<stop offset="1" stop-color="#F36F56"/>
</linearGradient>
<linearGradient id="paint26_linear_55_1745" x1="312.531" y1="204.705" x2="358.499" y2="248.917" gradientUnits="userSpaceOnUse">
<stop stop-color="#FF9085"/>
<stop offset="1" stop-color="#FB6FBB"/>
</linearGradient>
<linearGradient id="paint27_linear_55_1745" x1="314.612" y1="199.557" x2="366.758" y2="249.713" gradientUnits="userSpaceOnUse">
<stop stop-color="#FF9085"/>
<stop offset="1" stop-color="#FB6FBB"/>
</linearGradient>
<linearGradient id="paint28_linear_55_1745" x1="316.237" y1="162.44" x2="329.685" y2="228.176" gradientUnits="userSpaceOnUse">
<stop stop-color="#AA80F9"/>
<stop offset="1" stop-color="#6165D7"/>
</linearGradient>
<linearGradient id="paint29_linear_55_1745" x1="315.43" y1="323.293" x2="385.783" y2="323.293" gradientUnits="userSpaceOnUse">
<stop stop-color="#AA80F9"/>
<stop offset="1" stop-color="#6165D7"/>
</linearGradient>
<linearGradient id="paint30_linear_55_1745" x1="326.668" y1="319.867" x2="385.783" y2="319.867" gradientUnits="userSpaceOnUse">
<stop stop-color="#AA80F9"/>
<stop offset="1" stop-color="#6165D7"/>
</linearGradient>
<linearGradient id="paint31_linear_55_1745" x1="346.695" y1="292.744" x2="354.517" y2="292.744" gradientUnits="userSpaceOnUse">
<stop stop-color="#AA80F9"/>
<stop offset="1" stop-color="#6165D7"/>
</linearGradient>
<linearGradient id="paint32_linear_55_1745" x1="389.436" y1="284.487" x2="375.226" y2="265.835" gradientUnits="userSpaceOnUse">
<stop stop-color="#311944"/>
<stop offset="1" stop-color="#893976"/>
</linearGradient>
<linearGradient id="paint33_linear_55_1745" x1="301.16" y1="52.8468" x2="332.049" y2="78.8283" gradientUnits="userSpaceOnUse">
<stop stop-color="#E38DDD"/>
<stop offset="1" stop-color="#9571F6"/>
</linearGradient>
<linearGradient id="paint34_linear_55_1745" x1="298.612" y1="55.8762" x2="329.501" y2="81.8577" gradientUnits="userSpaceOnUse">
<stop stop-color="#E38DDD"/>
<stop offset="1" stop-color="#9571F6"/>
</linearGradient>
<linearGradient id="paint35_linear_55_1745" x1="310.318" y1="56.5751" x2="327.272" y2="56.5751" gradientUnits="userSpaceOnUse">
<stop stop-color="#AA80F9"/>
<stop offset="1" stop-color="#6165D7"/>
</linearGradient>
<linearGradient id="paint36_linear_55_1745" x1="86.1511" y1="62.9604" x2="117.041" y2="88.9419" gradientUnits="userSpaceOnUse">
<stop stop-color="#E38DDD"/>
<stop offset="1" stop-color="#9571F6"/>
</linearGradient>
<linearGradient id="paint37_linear_55_1745" x1="83.6028" y1="65.9898" x2="114.493" y2="91.9714" gradientUnits="userSpaceOnUse">
<stop stop-color="#E38DDD"/>
<stop offset="1" stop-color="#9571F6"/>
</linearGradient>
<linearGradient id="paint38_linear_55_1745" x1="95.3097" y1="66.6888" x2="112.263" y2="66.6888" gradientUnits="userSpaceOnUse">
<stop stop-color="#AA80F9"/>
<stop offset="1" stop-color="#6165D7"/>
</linearGradient>
<linearGradient id="paint39_linear_55_1745" x1="55.1474" y1="232.116" x2="210.16" y2="565.662" gradientUnits="userSpaceOnUse">
<stop stop-color="#AA80F9"/>
<stop offset="1" stop-color="#6165D7"/>
</linearGradient>
<linearGradient id="paint40_linear_55_1745" x1="127.203" y1="281.634" x2="112.912" y2="366.29" gradientUnits="userSpaceOnUse">
<stop stop-color="#AA80F9"/>
<stop offset="1" stop-color="#6165D7"/>
</linearGradient>
<linearGradient id="paint41_linear_55_1745" x1="55.1474" y1="232.116" x2="210.16" y2="565.662" gradientUnits="userSpaceOnUse">
<stop stop-color="#AA80F9"/>
<stop offset="1" stop-color="#6165D7"/>
</linearGradient>
<linearGradient id="paint42_linear_55_1745" x1="28.1583" y1="298.998" x2="170.263" y2="298.998" gradientUnits="userSpaceOnUse">
<stop stop-color="#AA80F9"/>
<stop offset="1" stop-color="#6165D7"/>
</linearGradient>
<linearGradient id="paint43_linear_55_1745" x1="252.04" y1="377.313" x2="273.261" y2="352.768" gradientUnits="userSpaceOnUse">
<stop stop-color="#40447E"/>
<stop offset="1" stop-color="#3C3B6B"/>
</linearGradient>
<linearGradient id="paint44_linear_55_1745" x1="195.159" y1="298.556" x2="427.363" y2="594.509" gradientUnits="userSpaceOnUse">
<stop stop-color="#311944"/>
<stop offset="1" stop-color="#6B3976"/>
</linearGradient>
<linearGradient id="paint45_linear_55_1745" x1="102.473" y1="311.541" x2="268.076" y2="387.47" gradientUnits="userSpaceOnUse">
<stop stop-color="#311944"/>
<stop offset="1" stop-color="#6B3976"/>
</linearGradient>
<linearGradient id="paint46_linear_55_1745" x1="43.9288" y1="353.223" x2="187.951" y2="316.985" gradientUnits="userSpaceOnUse">
<stop stop-color="#311944"/>
<stop offset="1" stop-color="#893976"/>
</linearGradient>
<linearGradient id="paint47_linear_55_1745" x1="123.324" y1="270.301" x2="108" y2="321.752" gradientUnits="userSpaceOnUse">
<stop stop-color="#FFC444"/>
<stop offset="1" stop-color="#F36F56"/>
</linearGradient>
<linearGradient id="paint48_linear_55_1745" x1="93.7219" y1="308.728" x2="43.9599" y2="546.984" gradientUnits="userSpaceOnUse">
<stop stop-color="#FFC444"/>
<stop offset="1" stop-color="#F36F56"/>
</linearGradient>
<linearGradient id="paint49_linear_55_1745" x1="104.056" y1="334.465" x2="84.567" y2="273.477" gradientUnits="userSpaceOnUse">
<stop stop-color="#FFC444"/>
<stop offset="1" stop-color="#F36F56"/>
</linearGradient>
<linearGradient id="paint50_linear_55_1745" x1="98.2928" y1="314.725" x2="173.481" y2="289.598" gradientUnits="userSpaceOnUse">
<stop stop-color="#AB316D"/>
<stop offset="1" stop-color="#792D3D"/>
</linearGradient>
<linearGradient id="paint51_linear_55_1745" x1="77.3072" y1="305.299" x2="27.5453" y2="543.554" gradientUnits="userSpaceOnUse">
<stop stop-color="#FFC444"/>
<stop offset="1" stop-color="#F36F56"/>
</linearGradient>
<linearGradient id="paint52_linear_55_1745" x1="72.1002" y1="258.935" x2="90.0667" y2="258.935" gradientUnits="userSpaceOnUse">
<stop stop-color="#FFC444"/>
<stop offset="1" stop-color="#F36F56"/>
</linearGradient>
<linearGradient id="paint53_linear_55_1745" x1="91.5554" y1="327.779" x2="131.598" y2="327.779" gradientUnits="userSpaceOnUse">
<stop stop-color="#FFC444"/>
<stop offset="1" stop-color="#F36F56"/>
</linearGradient>
<linearGradient id="paint54_linear_55_1745" x1="79.2911" y1="264.609" x2="82.7858" y2="238.119" gradientUnits="userSpaceOnUse">
<stop stop-color="#AB316D"/>
<stop offset="1" stop-color="#792D3D"/>
</linearGradient>
<linearGradient id="paint55_linear_55_1745" x1="80.4317" y1="270.214" x2="76.9515" y2="229.309" gradientUnits="userSpaceOnUse">
<stop stop-color="#311944"/>
<stop offset="1" stop-color="#6B3976"/>
</linearGradient>
<linearGradient id="paint56_linear_55_1745" x1="79.2747" y1="243.091" x2="98.5442" y2="277.85" gradientUnits="userSpaceOnUse">
<stop stop-color="#AB316D"/>
<stop offset="1" stop-color="#792D3D"/>
</linearGradient>
<linearGradient id="paint57_linear_55_1745" x1="121.2" y1="308.059" x2="173.511" y2="304.836" gradientUnits="userSpaceOnUse">
<stop stop-color="#40447E"/>
<stop offset="1" stop-color="#3C3B6B"/>
</linearGradient>
<linearGradient id="paint58_linear_55_1745" x1="203.392" y1="323.274" x2="227.456" y2="313.417" gradientUnits="userSpaceOnUse">
<stop stop-color="#40447E"/>
<stop offset="1" stop-color="#3C3B6B"/>
</linearGradient>
<linearGradient id="paint59_linear_55_1745" x1="198.401" y1="311.444" x2="474.849" y2="567.184" gradientUnits="userSpaceOnUse">
<stop stop-color="#311944"/>
<stop offset="1" stop-color="#6B3976"/>
</linearGradient>
<linearGradient id="paint60_linear_55_1745" x1="90.9362" y1="336.48" x2="210.042" y2="317.331" gradientUnits="userSpaceOnUse">
<stop stop-color="#311944"/>
<stop offset="1" stop-color="#6B3976"/>
</linearGradient>
<linearGradient id="paint61_linear_55_1745" x1="46.2864" y1="362.588" x2="190.309" y2="326.352" gradientUnits="userSpaceOnUse">
<stop stop-color="#311944"/>
<stop offset="1" stop-color="#893976"/>
</linearGradient>
<linearGradient id="paint62_linear_55_1745" x1="97.1301" y1="340.565" x2="184.096" y2="316.167" gradientUnits="userSpaceOnUse">
<stop stop-color="#311944"/>
<stop offset="1" stop-color="#6B3976"/>
</linearGradient>
<linearGradient id="paint63_linear_55_1745" x1="238.434" y1="105.257" x2="238.965" y2="100.98" gradientUnits="userSpaceOnUse">
<stop stop-color="#26264F"/>
<stop offset="1" stop-color="#444B8C"/>
</linearGradient>
<linearGradient id="paint64_linear_55_1745" x1="236.22" y1="101.36" x2="241.544" y2="91.707" gradientUnits="userSpaceOnUse">
<stop stop-color="#26264F"/>
<stop offset="1" stop-color="#444B8C"/>
</linearGradient>
<linearGradient id="paint65_linear_55_1745" x1="230.132" y1="96.8005" x2="247.999" y2="96.8005" gradientUnits="userSpaceOnUse">
<stop stop-color="#26264F"/>
<stop offset="1" stop-color="#444B8C"/>
</linearGradient>
<linearGradient id="paint66_linear_55_1745" x1="236.732" y1="98.7314" x2="241.989" y2="88.544" gradientUnits="userSpaceOnUse">
<stop stop-color="#26264F"/>
<stop offset="1" stop-color="#444B8C"/>
</linearGradient>
<linearGradient id="paint67_linear_55_1745" x1="229.331" y1="93.8109" x2="248.791" y2="93.8109" gradientUnits="userSpaceOnUse">
<stop stop-color="#26264F"/>
<stop offset="1" stop-color="#444B8C"/>
</linearGradient>
<linearGradient id="paint68_linear_55_1745" x1="229.043" y1="90.3205" x2="249.088" y2="90.3205" gradientUnits="userSpaceOnUse">
<stop stop-color="#26264F"/>
<stop offset="1" stop-color="#444B8C"/>
</linearGradient>
<linearGradient id="paint69_linear_55_1745" x1="238.567" y1="88.8184" x2="240.513" y2="79.6389" gradientUnits="userSpaceOnUse">
<stop stop-color="#26264F"/>
<stop offset="1" stop-color="#444B8C"/>
</linearGradient>
<linearGradient id="paint70_linear_55_1745" x1="234.777" y1="37.6219" x2="273.536" y2="99.6043" gradientUnits="userSpaceOnUse">
<stop stop-color="#FCB148"/>
<stop offset="0.05" stop-color="#FDB946"/>
<stop offset="0.14" stop-color="#FEC144"/>
<stop offset="0.32" stop-color="#FFC444"/>
<stop offset="0.48" stop-color="#FDB946"/>
<stop offset="0.78" stop-color="#F99C4C"/>
<stop offset="0.87" stop-color="#F8924F"/>
<stop offset="1" stop-color="#F8924F"/>
</linearGradient>
<linearGradient id="paint71_linear_55_1745" x1="227.622" y1="85.1535" x2="235.504" y2="61.9573" gradientUnits="userSpaceOnUse">
<stop offset="0.49" stop-color="#EBEFF2"/>
<stop offset="1" stop-color="white"/>
</linearGradient>
<linearGradient id="paint72_linear_55_1745" x1="235.257" y1="87.748" x2="243.139" y2="64.5518" gradientUnits="userSpaceOnUse">
<stop offset="0.49" stop-color="#EBEFF2"/>
<stop offset="1" stop-color="white"/>
</linearGradient>
<linearGradient id="paint73_linear_55_1745" x1="224.842" y1="84.2014" x2="232.722" y2="61.0092" gradientUnits="userSpaceOnUse">
<stop offset="0.49" stop-color="#EBEFF2"/>
<stop offset="1" stop-color="white"/>
</linearGradient>
<linearGradient id="paint74_linear_55_1745" x1="236.15" y1="23.7075" x2="228.455" y2="87.5909" gradientUnits="userSpaceOnUse">
<stop stop-color="#FCB148"/>
<stop offset="0.05" stop-color="#FDB946"/>
<stop offset="0.14" stop-color="#FEC144"/>
<stop offset="0.32" stop-color="#FFC444"/>
<stop offset="0.48" stop-color="#FDB946"/>
<stop offset="0.78" stop-color="#F99C4C"/>
<stop offset="0.87" stop-color="#F8924F"/>
<stop offset="1" stop-color="#F8924F"/>
</linearGradient>
</defs>
</svg>
