<svg width="359" height="516" viewBox="0 0 359 516" fill="none" xmlns="http://www.w3.org/2000/svg">
<g clip-path="url(#clip0_64_1947)">
<path d="M291.263 153.693C305.402 175.391 325.899 192.948 349.837 204.344C412.408 234.131 429.149 293.357 425.336 316.267C420.889 342.882 402.288 365.142 378.482 378.684C354.677 392.226 326.087 397.737 297.417 398.729C275.009 399.502 251.73 397.501 230.568 388.419C209.889 379.541 192.526 364.516 175.905 349.49C154.531 330.16 133.304 309.983 118.672 285.832C106.733 266.153 100.072 240.341 113.802 223.849C125.51 209.8 148.315 207.254 159.75 192.988C175.768 173.016 162.019 141.448 171.001 117.491C181.472 89.5501 213.714 79.4754 233.413 90.1039C253.947 101.188 275.587 129.646 291.256 153.7L291.263 153.693Z" fill="#95AFE2"/>
<path d="M216.201 234.264C213.032 239.789 206.208 237.738 203.815 233.19C202.742 231.164 203.42 228.916 204.434 227.033C204.917 226.144 205.56 225.191 206.722 224.548" fill="#4C65BD"/>
<path d="M227.377 281.417C224.4 281.295 222.627 279.619 221.672 276.761C220.738 273.993 221.366 271.822 223.354 269.862" fill="#4C65BD"/>
<path d="M217.274 243.806C218.446 247.499 216.873 250.643 213.056 251.963C209.156 253.312 206.016 251.741 204.64 247.761C203.306 243.893 204.929 240.84 208.927 239.379C210.636 238.75 212.156 238.815 213.796 239.558" fill="#4C65BD"/>
<path d="M218.273 258.818C219.537 262.504 217.929 265.655 214.105 266.983C210.191 268.346 207.051 266.788 205.675 262.808C204.334 258.933 205.928 255.81 209.941 254.434C213.779 253.12 216.876 254.747 218.273 258.818Z" fill="#4C65BD"/>
<path d="M234.401 287.166C235.756 290.705 233.783 294.43 230.352 295.618C227.061 296.736 223.165 295.164 221.943 291.422C220.798 287.912 222.567 284.138 226.23 283.097" fill="#4C65BD"/>
<path d="M201.711 229.307C202.862 232.614 201.282 236.494 197.571 237.738C194.16 238.877 190.313 237.171 189.204 233.486C188.108 229.829 189.709 226.629 193.225 225.287C196.936 223.875 200.587 226.07 201.711 229.307Z" fill="#4C65BD"/>
<path d="M246.37 309.648C242.959 310.787 239.112 309.082 238.002 305.396C236.907 301.739 238.508 298.539 242.023 297.197" fill="#4C65BD"/>
<path d="M210.723 268.85C214.281 267.774 217.974 269.55 219.049 273.186C220.159 276.928 218.221 280.323 214.649 281.469C211.365 282.538 207.644 280.609 206.513 277.239C205.376 273.875 207.033 270.073 210.716 268.843L210.723 268.85Z" fill="#4C65BD"/>
<path d="M192.267 210.204C195.572 209.058 199.454 210.644 200.704 214.358C201.848 217.77 200.149 221.615 196.466 222.718C192.81 223.808 189.608 222.201 188.26 218.684C186.842 214.97 189.031 211.322 192.267 210.204Z" fill="#4C65BD"/>
<path d="M199.683 199.493C200.744 203.283 199.079 206.294 195.564 207.636C192.357 208.852 188.433 207.252 187.141 203.496C186.024 200.042 187.737 196.254 191.393 195.136C195.027 194.025 198.65 195.814 199.683 199.493Z" fill="#4C65BD"/>
<path d="M195.454 192.982C191.749 194.401 188.098 192.205 186.968 188.961C185.809 185.633 187.41 181.774 191.101 180.537" fill="#4C65BD"/>
<path d="M308.308 336.45C305.332 337.506 300.952 335.534 299.899 332.647L308.308 336.45Z" fill="#4C65BD"/>
<path d="M190.245 248.596C189.192 245.485 191.367 241.235 194.561 240.187C197.488 239.223 201.756 241.419 202.774 244.411C203.827 247.522 201.652 251.772 198.459 252.82C195.531 253.784 191.264 251.588 190.245 248.596Z" fill="#4C65BD"/>
<path d="M194.65 177.899C191.478 179.081 187.098 177.151 185.982 174.075C184.886 171.048 186.795 166.699 189.687 165.63" fill="#4C65BD"/>
<path d="M297.178 328.848C298.378 331.756 296.322 336.307 293.283 337.468C290.454 338.544 286.074 336.558 284.874 333.664C283.674 330.756 285.73 326.205 288.769 325.044" fill="#4C65BD"/>
<path d="M227.048 298.165C229.94 297.138 234.25 299.152 235.422 302.06C236.601 304.989 234.475 309.554 231.436 310.63C228.544 311.658 224.234 309.644 223.062 306.736C221.883 303.807 224.008 299.241 227.048 298.165Z" fill="#4C65BD"/>
<path d="M190.461 263.258C189.421 260.203 191.687 255.708 194.713 254.813C197.717 253.926 201.964 256.073 202.954 258.981C203.993 262.036 201.727 266.531 198.702 267.425C195.697 268.313 191.451 266.166 190.461 263.258Z" fill="#4C65BD"/>
<path d="M207.562 292.328C206.502 289.28 208.754 284.771 211.786 283.87C214.798 282.975 219.03 285.094 220.042 288.009C221.102 291.057 218.85 295.567 215.817 296.468C212.806 297.362 208.58 295.236 207.562 292.328Z" fill="#4C65BD"/>
<path d="M250.75 321.574C249.764 322.715 248.658 324.269 247.383 324.52C245.815 324.827 243.895 324.994 242.269 323.97C240.826 323.058 240.089 321.565 238.988 320.366C239.47 318.693 238.593 316.738 239.86 315.261C240.839 314.113 242.043 313.147 243.107 312.139" fill="#4C65BD"/>
<path d="M199.617 281.793C195.794 283.107 193.439 281.914 192.07 277.941C190.771 274.165 192.002 271.826 196.014 270.449C199.6 269.219 202.053 270.482 203.352 274.203C204.686 278.029 203.49 280.458 199.617 281.793Z" fill="#4C65BD"/>
<path d="M185.133 215.823C186.383 219.481 185.054 221.833 180.971 223.21C177.442 224.398 175.059 223.093 173.732 219.246C172.433 215.47 173.671 213.124 177.684 211.761C181.374 210.496 183.75 211.794 185.126 215.83L185.133 215.823Z" fill="#4C65BD"/>
<path d="M174.795 234.322C173.475 230.51 174.685 228.164 178.67 226.802C182.402 225.523 184.771 226.786 186.147 230.794C187.369 234.353 186.096 236.818 182.37 238.104C178.54 239.424 176.143 238.232 174.795 234.322Z" fill="#4C65BD"/>
<path d="M281.382 329.669C282.681 333.403 281.542 335.917 277.991 337.168C273.993 338.573 271.54 337.492 270.227 333.771C268.83 329.798 269.921 327.39 273.716 326.062" fill="#4C65BD"/>
<path d="M173.419 204.235C172.063 200.36 173.224 197.923 177.048 196.595C180.871 195.267 183.303 196.467 184.644 200.342C185.936 204.07 184.796 206.485 181.113 207.771C177.156 209.162 174.746 208.053 173.419 204.235Z" fill="#4C65BD"/>
<path d="M183.006 252.443C181.536 253.969 179.805 252.91 178.536 252.398C177.128 251.829 176.111 250.364 175.451 248.64C174.791 246.903 175.161 245.313 175.763 244.08C176.427 242.715 177.757 241.595 179.578 241.036C181.301 240.519 182.877 240.822 184.131 241.418C185.393 242.022 186.389 243.34 187.027 244.958C187.701 246.682 187.408 248.293 186.835 249.525C186.192 250.884 185.156 252.592 183.013 252.436L183.006 252.443Z" fill="#4C65BD"/>
<path d="M179.7 192.738C178.223 194.271 176.492 193.211 175.23 192.692C173.829 192.116 172.791 190.673 172.145 188.935C171.499 187.197 171.855 185.607 172.457 184.375C173.128 183.002 174.451 181.89 176.279 181.338C177.995 180.814 179.571 181.13 180.825 181.727C182.094 182.323 183.083 183.648 183.714 185.274C184.388 186.997 184.095 188.608 183.515 189.848C182.872 191.206 181.836 192.915 179.693 192.745L179.7 192.738Z" fill="#4C65BD"/>
<path d="M342.079 346.117C341.436 347.475 340.401 349.183 338.257 349.014C336.787 350.539 335.049 349.487 333.788 348.968C332.386 348.392 331.349 346.948 330.703 345.211C330.057 343.473 330.413 341.883 331.014 340.651" fill="#4C65BD"/>
<path d="M209.34 307.138C207.951 305.54 208.741 303.712 209.371 302.34C209.951 301.086 211.239 300.051 212.892 299.436C214.608 298.799 216.184 299.046 217.473 299.607C218.903 300.225 219.913 301.627 220.621 303.33C221.344 305.074 220.96 306.678 220.366 307.89C219.779 309.094 218.736 310.389 216.936 310.899C215.283 311.374 213.609 311.492 212.376 310.846C211.037 310.137 209.229 309.267 209.347 307.131L209.34 307.138Z" fill="#4C65BD"/>
<path d="M266.512 330.994C267.522 332.788 266.361 334.048 265.871 335.547C265.333 337.221 264.08 337.717 262.644 338.353C260.908 339.122 259.57 338.666 258.077 337.873C255.911 336.716 255.876 336.779 254.985 334.193C253.842 332.784 254.982 331.419 255.535 329.914C256.164 328.177 257.487 327.625 258.986 326.897" fill="#4C65BD"/>
<path d="M176.647 263.751C175.629 260.717 177.42 257.258 180.536 256.231C183.512 255.246 186.988 257.112 188.006 260.23C188.926 263.053 187.115 266.547 184.216 267.54C181.162 268.588 177.68 266.841 176.64 263.744L176.647 263.751Z" fill="#4C65BD"/>
<path d="M315.916 346.551C314.807 343.481 316.443 339.938 319.469 338.876C322.375 337.849 325.956 339.456 326.995 342.245C328.139 345.321 326.58 348.955 323.646 350.024C320.55 351.157 316.998 349.564 315.909 346.558L315.916 346.551Z" fill="#4C65BD"/>
<path d="M224.657 321.335C223.611 318.287 225.352 314.807 228.447 313.773C231.48 312.76 234.935 314.563 235.967 317.681C236.908 320.526 235.146 324.027 232.274 325.033C229.235 326.095 225.703 324.383 224.657 321.335Z" fill="#4C65BD"/>
<path d="M304.5 339.866C307.539 338.817 311.057 340.543 312.096 343.612C313.121 346.639 311.352 350.133 308.257 351.154C305.365 352.111 301.903 350.399 300.864 347.512C299.768 344.457 301.454 340.921 304.493 339.873L304.5 339.866Z" fill="#4C65BD"/>
<path d="M193.161 293.129C192.108 290.088 193.828 286.573 196.895 285.539C199.921 284.518 203.411 286.3 204.443 289.39C205.405 292.284 203.698 295.743 200.806 296.771C197.76 297.854 194.214 296.17 193.161 293.129Z" fill="#4C65BD"/>
<path d="M240.71 335.316C239.684 332.289 241.461 328.802 244.549 327.775C247.574 326.769 251.008 328.579 252.048 331.732C252.975 334.549 251.184 338.064 248.306 339.063C245.267 340.111 241.749 338.385 240.71 335.316Z" fill="#4C65BD"/>
<path d="M289.881 340.043C292.92 338.995 296.438 340.721 297.477 343.79C298.502 346.817 296.733 350.311 293.638 351.331C290.745 352.288 287.284 350.576 286.245 347.689C285.149 344.634 286.835 341.098 289.874 340.05L289.881 340.043Z" fill="#4C65BD"/>
<path d="M171.517 174.672C170.471 171.624 172.226 168.144 175.308 167.11C178.34 166.097 181.795 167.9 182.82 171.025C183.754 173.863 181.999 177.371 179.127 178.377C176.088 179.439 172.556 177.713 171.503 174.672L171.517 174.672Z" fill="#4C65BD"/>
<path d="M177.066 278.994C176.048 275.96 177.838 272.501 180.955 271.474C183.931 270.489 187.407 272.355 188.425 275.473C189.345 278.296 187.534 281.79 184.634 282.783C181.581 283.831 178.098 282.084 177.059 278.987L177.066 278.994Z" fill="#4C65BD"/>
<path d="M194.259 308.351C193.206 305.058 195.052 301.417 198.007 300.537C201.075 299.629 204.789 301.481 205.443 304.501C205.759 305.951 205.88 307.541 204.977 309.033C204.18 310.363 203.095 311.308 201.75 311.769C200.286 312.265 198.752 312.201 197.218 311.478C195.655 310.741 195.044 309.333 194.259 308.351Z" fill="#4C65BD"/>
<path d="M181.571 159.963C180.914 161.714 179.367 162.364 178.128 163.477C176.558 163.392 175.018 163.937 173.532 163.011C172.565 162.408 170.784 160.599 170.468 159.639C169.534 156.745 171.142 153.328 173.971 152.196" fill="#4C65BD"/>
<path d="M163.142 212.604C165.677 211.808 169.966 214.011 170.683 216.463C171.42 219.006 169.161 223.284 166.731 223.948C164.287 224.611 160.201 222.514 159.401 220.187C158.53 217.693 160.67 213.38 163.149 212.597L163.142 212.604Z" fill="#4C65BD"/>
<path d="M159.855 235.592C158.893 233.202 160.9 228.84 163.393 227.903C165.683 227.043 169.866 228.903 170.926 231.251C171.964 233.535 170.049 238.003 167.598 239.037C165.266 240.023 160.851 238.058 159.855 235.592Z" fill="#4C65BD"/>
<path d="M271.234 348.707C270.3 346.289 272.356 341.934 274.842 341.06C277.181 340.236 281.337 342.123 282.34 344.471C283.344 346.804 281.407 351.223 278.942 352.229C276.575 353.194 272.196 351.194 271.234 348.707Z" fill="#4C65BD"/>
<path d="M213.381 314.791C215.916 313.994 220.205 316.197 220.921 318.649C221.659 321.193 219.4 325.471 216.969 326.134C214.525 326.798 210.44 324.7 209.639 322.374C208.769 319.879 210.909 315.566 213.388 314.784L213.381 314.791Z" fill="#4C65BD"/>
<path d="M166.025 208.866C164.561 208.76 162.866 209.024 161.591 208.421C160.308 207.81 158.983 206.499 158.513 205.203C158.036 203.9 158.202 202.037 158.811 200.769C159.412 199.495 160.756 198.249 162.072 197.732C163.263 197.256 165.028 197.398 166.219 197.959C167.523 198.577 168.876 199.818 169.395 201.107C169.901 202.396 169.79 204.26 169.217 205.548C168.65 206.844 167.18 207.739 166.032 208.873L166.025 208.866Z" fill="#4C65BD"/>
<path d="M181.829 286.472C183.398 286.655 185.107 286.447 186.361 287.099C187.616 287.752 188.885 289.119 189.299 290.443C189.713 291.767 189.47 293.623 188.812 294.87C188.155 296.116 186.755 297.362 185.431 297.76C184.101 298.151 182.286 297.848 181.004 297.21C179.833 296.627 178.627 295.324 178.262 294.09C177.862 292.738 178.014 290.917 178.63 289.643C179.245 288.368 180.73 287.515 181.836 286.465L181.829 286.472Z" fill="#4C65BD"/>
<path d="M164.259 242.194C165.807 242.356 167.502 242.133 168.764 242.765C170.032 243.403 171.315 244.756 171.758 246.067C172.193 247.384 171.977 249.24 171.341 250.493C170.704 251.747 169.325 252.957 168.002 253.44C166.797 253.873 165.032 253.69 163.862 253.093C162.579 252.441 161.254 251.172 160.777 249.868C160.3 248.565 160.473 246.709 161.068 245.427C161.662 244.146 163.132 243.265 164.252 242.187L164.259 242.194Z" fill="#4C65BD"/>
<path d="M225.615 336.376C225.775 334.842 225.563 333.146 226.207 331.886C226.85 330.626 228.208 329.352 229.525 328.933C230.848 328.506 232.705 328.739 233.959 329.392C235.213 330.044 236.412 331.425 236.89 332.756C237.318 333.969 237.116 335.727 236.515 336.889C235.858 338.163 234.563 339.556 233.274 339.919C231.964 340.29 230.122 340.561 228.819 339.664C227.599 338.822 226.688 337.518 225.622 336.383L225.615 336.376Z" fill="#4C65BD"/>
<path d="M260.336 342.638C261.582 341.673 262.788 342.318 264.189 342.796C265.962 343.407 266.264 344.787 266.896 346.174C267.569 347.632 267.115 348.773 266.654 350.174C266.039 352.009 264.582 352.176 263.231 352.826C261.767 353.532 260.611 353.062 259.245 352.493C257.724 351.855 257.268 350.713 256.741 349.36C256.187 347.938 256.256 346.789 256.864 345.353C257.563 343.715 258.669 343.015 260.343 342.659L260.336 342.638Z" fill="#4C65BD"/>
<path d="M195.601 322.054C194.633 320.806 195.27 319.595 195.752 318.202C196.36 316.43 197.74 316.13 199.119 315.493C200.576 314.822 201.718 315.278 203.119 315.742C204.955 316.36 205.124 317.817 205.777 319.169C206.479 320.641 206.024 321.796 205.451 323.155C204.815 324.674 203.68 325.136 202.329 325.66C200.914 326.205 199.765 326.148 198.322 325.531C196.689 324.822 195.974 323.729 195.622 322.047L195.601 322.054Z" fill="#4C65BD"/>
<path d="M166.862 272.919C168.108 271.954 169.313 272.599 170.715 273.077C172.495 273.68 172.79 275.068 173.422 276.455C174.095 277.913 173.641 279.054 173.173 280.448C172.558 282.282 171.101 282.449 169.749 283.1C168.286 283.806 167.13 283.336 165.763 282.767C164.243 282.129 163.786 280.986 163.26 279.634C162.705 278.212 162.775 277.063 163.383 275.627C164.082 273.989 165.188 273.289 166.862 272.933L166.862 272.919Z" fill="#4C65BD"/>
<path d="M169.05 267.843C167.706 268.64 166.487 268.541 165.051 267.888C163.488 267.18 162.752 266.163 162.225 264.615C161.741 263.192 161.719 262.051 162.341 260.601C163.047 258.969 164.195 258.41 165.666 257.837C167.108 257.278 168.264 257.356 169.666 258.029C171.088 258.71 171.811 259.614 172.288 261.071C172.78 262.585 173.012 263.853 172.138 265.386C171.382 266.717 170.612 267.711 169.057 267.836L169.05 267.843Z" fill="#4C65BD"/>
<path d="M164.709 193.104C163.365 193.901 162.146 193.802 160.71 193.15C159.147 192.441 158.411 191.424 157.884 189.876C157.399 188.454 157.378 187.312 158 185.862C158.706 184.231 159.854 183.671 161.325 183.098C162.767 182.539 163.923 182.617 165.325 183.29C166.747 183.971 167.47 184.875 167.947 186.333C168.439 187.846 168.671 189.114 167.797 190.648C167.041 191.978 166.271 192.972 164.716 193.097L164.709 193.104Z" fill="#4C65BD"/>
<path d="M186.311 311.588C183.328 312.623 180.574 311.254 179.556 308.248C178.538 305.242 179.908 302.568 182.99 301.547C185.826 300.604 188.517 301.937 189.535 304.789C190.609 307.781 189.287 310.561 186.311 311.588Z" fill="#4C65BD"/>
<path d="M160.41 168.786C163.379 167.766 166.133 169.148 167.144 172.161C168.148 175.153 166.756 177.821 163.675 178.841C160.853 179.77 158.162 178.423 157.151 175.564C156.091 172.572 157.419 169.813 160.417 168.779L160.41 168.786Z" fill="#4C65BD"/>
<path d="M214.206 329.894C217.231 328.804 219.838 330.151 221.094 333.045C222.119 335.399 220.587 338.963 218.108 339.774C215.006 340.787 212.21 339.671 211.157 336.784C210.034 333.715 211.257 330.963 214.206 329.894Z" fill="#4C65BD"/>
<path d="M287.23 362.547C286.212 359.541 287.59 356.874 290.664 355.846C293.62 354.868 296.297 356.299 297.315 359.403C298.228 362.192 296.836 364.902 293.979 365.894C291.003 366.921 288.241 365.56 287.223 362.554L287.23 362.547Z" fill="#4C65BD"/>
<path d="M305.619 354.871C308.623 353.858 311.3 355.233 312.325 358.316C313.309 361.273 311.882 363.947 308.779 364.96C305.992 365.869 303.28 364.473 302.283 361.614C301.244 358.629 302.608 355.877 305.612 354.864L305.619 354.871Z" fill="#4C65BD"/>
<path d="M166.987 288.204C169.97 287.17 172.724 288.538 173.742 291.544C174.76 294.55 173.389 297.225 170.308 298.245C167.472 299.188 164.781 297.855 163.763 295.003C162.689 292.011 164.01 289.232 166.987 288.204Z" fill="#4C65BD"/>
<path d="M317.533 361.227C316.493 358.242 317.857 355.49 320.861 354.477C323.866 353.464 326.543 354.839 327.568 357.922C328.516 360.76 327.187 363.449 324.337 364.462C321.347 365.531 318.565 364.205 317.533 361.227Z" fill="#4C65BD"/>
<path d="M241.717 350.294C240.726 347.316 242.118 344.648 245.228 343.628C248.148 342.671 250.748 344.179 251.878 347.241C252.777 349.679 250.944 353.096 248.458 353.76C245.419 354.57 242.742 353.349 241.724 350.301L241.717 350.294Z" fill="#4C65BD"/>
<path d="M335.711 353.537C338.701 352.467 341.49 353.773 342.536 356.736C343.54 359.588 342.282 362.389 339.551 363.396C336.49 364.521 333.688 363.314 332.627 360.406C331.518 357.351 332.749 354.606 335.711 353.537Z" fill="#4C65BD"/>
<path d="M356.973 356.04C357.991 359.046 356.62 361.721 353.539 362.741C350.703 363.685 348.012 362.352 346.994 359.5C345.92 356.508 347.241 353.728 350.217 352.701" fill="#4C65BD"/>
<path d="M155.817 231.988C156.716 234.734 154.883 237.927 152.152 238.793C149.883 239.506 146.75 237.577 145.697 235.265C144.996 233.723 145.66 232.33 146.143 231.356C146.681 230.257 147.612 228.99 149.271 228.48C150.826 228.005 151.913 229.162 153.258 228.882C153.952 230.151 156.089 230.286 155.824 231.981L155.817 231.988Z" fill="#4C65BD"/>
<path d="M156.76 160.405C155.819 157.799 157.358 154.466 159.921 153.571C162.393 152.698 165.567 154.262 166.662 156.505C167.427 158.081 166.994 159.636 166.441 160.736C165.945 161.723 165.287 163.109 163.677 163.542C161.036 164.248 157.659 162.886 156.774 160.419L156.76 160.405Z" fill="#4C65BD"/>
<path d="M226.901 350.541C227.075 349.105 226.906 347.522 227.521 346.345C228.081 345.267 229.376 344.294 230.552 343.917C231.729 343.54 233.473 343.506 234.398 344.151C235.471 344.888 237.012 345.744 237.154 347.341C237.274 348.637 237.457 350.276 236.807 351.207C236.121 352.187 235.274 353.385 233.909 353.867C232.417 354.391 230.932 353.885 229.678 353.485C228.592 353.127 227.876 351.641 226.901 350.541Z" fill="#4C65BD"/>
<path d="M144.81 221.009C144.921 219.58 144.598 217.983 145.234 217.024C145.962 215.932 146.843 214.447 148.398 214.252C149.687 214.099 151.347 213.911 152.272 214.557C153.345 215.307 154.865 216.17 155.014 217.76C155.127 219.063 155.289 220.681 154.653 221.627C153.988 222.614 153.113 223.797 151.734 224.265C150.249 224.768 148.75 224.291 147.509 223.862C146.423 223.49 145.715 222.012 144.817 221.002L144.81 221.009Z" fill="#4C65BD"/>
<path d="M145.976 250.592C146.15 249.156 145.988 247.58 146.596 246.396C147.156 245.318 148.451 244.345 149.627 243.968C150.804 243.591 152.548 243.557 153.473 244.202C154.546 244.939 156.087 245.795 156.229 247.392C156.349 248.688 156.532 250.327 155.882 251.258C155.196 252.238 154.349 253.436 152.984 253.918C151.492 254.442 150.007 253.936 148.753 253.536C147.667 253.178 146.951 251.692 145.976 250.592Z" fill="#4C65BD"/>
<path d="M276.004 356.486C277.517 356.641 279.261 356.341 280.249 357.078C281.195 357.772 282.688 358.537 282.822 360.029C282.935 361.332 283.126 362.838 282.615 363.937C282.105 365.037 280.845 365.89 279.745 366.597C278.394 367.471 276.79 366.777 275.535 366.39C274.463 366.06 273.411 364.658 272.983 363.502C272.548 362.339 272.505 360.714 273.008 359.622C273.56 358.41 274.919 357.571 275.997 356.493L276.004 356.486Z" fill="#4C65BD"/>
<path d="M206.048 334.167C206.779 336.367 204.835 340.232 202.664 340.889C200.444 341.567 196.519 339.574 195.999 337.388C195.437 335.006 197.178 331.75 199.258 330.876C201.24 330.044 205.472 332.079 206.034 334.167L206.048 334.167Z" fill="#4C65BD"/>
<path d="M147.292 265.765C146.422 264.055 148.232 259.707 150.494 258.945C152.504 258.267 156.295 259.959 157.151 261.963C158.036 264.023 156.309 267.993 154.152 268.874C152.072 269.72 148.12 267.924 147.284 265.758L147.292 265.765Z" fill="#4C65BD"/>
<path d="M153.965 202.587C154.66 204.794 152.681 208.652 150.531 209.288C148.29 209.944 144.47 207.903 143.88 205.731C143.304 203.629 145.213 199.967 147.209 199.233C149.38 198.436 153.543 200.653 153.965 202.587Z" fill="#4C65BD"/>
<path d="M183.822 316.644C185.726 315.791 189.959 317.798 190.619 319.914C191.216 321.841 189.86 325.44 187.542 326.524C185.512 327.475 181.517 325.636 180.661 323.478C179.826 321.383 181.651 317.441 183.822 316.644Z" fill="#4C65BD"/>
<path d="M164.566 309.175C164.768 307.907 164.466 306.471 165.242 305.078C165.9 303.887 167.202 303.594 167.909 302.579C169.401 302.937 171.124 302.322 172.393 303.563C173.185 304.342 174.468 305.232 174.454 306.059C174.441 307.306 174.695 308.665 173.946 310.016C173.275 311.234 172.077 311.619 171.251 312.515C170.901 312.893 169.682 312.597 168.891 312.618C167.917 312.638 166.831 311.916 165.976 311.271C165.366 310.815 165.057 309.946 164.566 309.175Z" fill="#4C65BD"/>
<path d="M261.056 357.664C262.653 358.044 264.376 357.401 265.652 358.649C266.444 359.427 267.678 360.269 267.749 361.151C267.862 362.609 268.059 364.36 266.849 365.613C266.079 366.411 265.183 367.629 264.321 367.649C262.97 367.683 261.478 367.829 260.083 366.924C259.039 366.244 258.946 364.906 257.832 364.436C258.083 363.035 257.774 361.62 258.494 360.198C259.138 358.938 260.602 358.848 261.056 357.664Z" fill="#4C65BD"/>
<path d="M151.48 273.944C152.524 274.035 153.638 274.071 154.738 274.233C156.489 274.487 157.317 276.029 158.165 277.241C158.628 277.9 158.279 279.217 158.112 280.197C157.819 281.864 156.482 282.907 155.25 283.775C154.564 284.264 153.261 284.039 152.273 283.891C150.465 283.624 149.322 282.187 148.46 280.848C147.969 280.077 148.381 278.683 148.513 277.584C148.736 275.833 150.465 275.239 151.466 273.944L151.48 273.944Z" fill="#4C65BD"/>
<path d="M148.865 193.763C147.395 194.953 145.881 193.901 144.647 192.961C143.911 192.393 143.798 191.048 143.314 190.102C142.767 189.023 142.934 188.112 143.459 187.041C143.976 185.977 144.592 185.263 145.776 185.033C146.308 184.935 146.868 184.767 147.323 184.494C148.338 183.886 149.172 184.356 150.062 184.784C150.952 185.212 151.828 185.584 151.983 186.761C152.054 187.293 152.264 187.826 152.517 188.316C153.078 189.382 152.897 190.306 152.372 191.377C151.855 192.442 151.246 193.177 150.055 193.372C149.733 193.428 149.432 193.575 148.872 193.77L148.865 193.763Z" fill="#4C65BD"/>
<path d="M218.541 354.274C215.445 355.337 213.819 354.509 212.71 351.3C211.643 348.203 212.468 346.578 215.675 345.474C218.771 344.412 220.396 345.24 221.506 348.449C222.573 351.546 221.748 353.17 218.541 354.274Z" fill="#4C65BD"/>
<path d="M149.718 294.845C148.721 291.944 149.693 289.99 152.627 288.991C155.526 287.999 157.482 288.974 158.486 291.91C159.483 294.811 158.511 296.764 155.576 297.763C152.677 298.756 150.722 297.781 149.718 294.845Z" fill="#4C65BD"/>
<path d="M143.134 175.476C141.913 173.177 143.599 170.328 145.945 169.51C148.375 168.664 151.122 170.067 151.944 172.415C152.793 174.846 151.394 177.591 149.048 178.409C146.618 179.254 143.57 177.956 143.134 175.476Z" fill="#4C65BD"/>
<path d="M246.052 358.731C248.987 357.718 250.928 358.651 251.939 361.58C252.957 364.516 252.027 366.455 249.1 367.462C246.165 368.475 244.224 367.542 243.213 364.613C242.195 361.677 243.125 359.737 246.052 358.731Z" fill="#4C65BD"/>
<path d="M182.291 338.211C181.259 335.289 182.189 333.321 185.074 332.301C187.994 331.273 189.964 332.207 190.989 335.094C192.021 338.015 191.091 339.983 188.205 341.003C185.285 342.031 183.316 341.098 182.291 338.211Z" fill="#4C65BD"/>
<path d="M171.789 327.106C169.338 328.029 166.836 326.563 166.063 323.844C165.353 321.329 166.64 318.878 169.365 318.103C171.879 317.398 174.332 318.688 175.111 321.414C175.821 323.929 174.576 326.534 171.803 327.106L171.789 327.106Z" fill="#4C65BD"/>
<path d="M231.182 359.679C232.134 358.909 233.199 359.414 234.299 360.01C235.427 360.621 236.633 360.972 236.984 362.569C237.23 363.697 237.413 364.622 236.756 365.63C236.077 366.688 235.924 368.046 234.32 368.43C233.122 368.717 232.1 369.052 230.937 368.266C229.892 367.558 228.624 367.312 228.189 365.77C227.521 363.395 228.696 360.538 231.182 359.665L231.182 359.679Z" fill="#4C65BD"/>
<path d="M132.387 251.057C131.616 250.104 132.119 249.039 132.714 247.94C133.329 246.806 133.671 245.608 135.268 245.259C136.396 245.015 137.32 244.834 138.33 245.493C139.388 246.173 140.747 246.328 141.134 247.933C141.422 249.131 141.759 250.154 140.975 251.316C140.269 252.359 140.024 253.627 138.477 254.053C136.103 254.717 133.251 253.53 132.366 251.05L132.387 251.057Z" fill="#4C65BD"/>
<path d="M203.894 355.152C201.268 356.04 198.57 354.531 197.615 352.261C196.991 350.782 197.83 349.802 198.215 348.605C198.641 347.267 199.649 346.904 200.77 346.386C202.268 345.687 203.236 346.669 204.427 347.076C205.576 347.469 206.004 348.303 206.509 349.34C207.225 350.812 206.532 351.841 205.994 353.01C205.483 354.11 205.106 355.342 203.901 355.159L203.894 355.152Z" fill="#4C65BD"/>
<path d="M156.948 312.671C154.321 313.559 151.623 312.05 150.669 309.78C150.044 308.301 150.884 307.321 151.268 306.124C151.694 304.786 152.703 304.423 153.823 303.905C155.322 303.206 156.289 304.188 157.48 304.595C158.629 304.988 159.057 305.822 159.563 306.859C160.278 308.331 159.586 309.36 159.047 310.529C158.537 311.629 158.16 312.861 156.955 312.678L156.948 312.671Z" fill="#4C65BD"/>
<path d="M137.176 239.019C135.775 240.055 134.731 238.926 133.526 238.547C132.215 238.133 131.808 237.152 131.282 236.01C130.587 234.503 131.602 233.558 131.93 232.347C132.322 230.946 133.428 230.695 134.513 230.17C136.012 229.443 136.972 230.515 138.157 230.902C139.313 231.274 139.706 232.157 140.211 233.194C140.927 234.679 140.115 235.674 139.668 236.864C139.206 238.068 138.562 238.979 137.169 239.026L137.176 239.019Z" fill="#4C65BD"/>
<path d="M319.05 375.455C318.195 374.348 318.593 373.276 319.23 372.177C319.859 371.071 320.159 369.831 321.777 369.489C322.898 369.252 323.829 369.05 324.846 369.702C325.904 370.382 327.284 370.531 327.663 372.128C327.945 373.319 328.359 374.349 327.533 375.511C326.805 376.533 326.645 377.871 325.056 378.283C323.83 378.597 322.815 378.8 321.679 378.07C320.614 377.383 319.143 377.186 319.057 375.462L319.05 375.455Z" fill="#4C65BD"/>
<path d="M136.183 224.042C134.005 224.72 130.942 223.141 130.317 221.004C129.671 218.804 131.301 215.786 133.451 215.193C135.496 214.634 138.432 216.142 139.099 218.125C139.899 220.508 137.99 223.539 136.176 224.035L136.183 224.042Z" fill="#4C65BD"/>
<path d="M354.384 377.137C352.192 377.787 349.165 376.173 348.561 374.029C347.942 371.857 349.635 368.804 351.764 368.26C353.823 367.729 356.738 369.287 357.385 371.263C358.087 373.421 356.513 376.508 354.391 377.144L354.384 377.137Z" fill="#4C65BD"/>
<path d="M139.636 283.699C137.913 284.426 134.529 283.239 133.672 280.871C132.956 278.895 134.327 275.898 136.28 275.066C138.332 274.206 141.485 275.567 142.342 277.684C143.177 279.751 141.758 282.881 139.629 283.692L139.636 283.699Z" fill="#4C65BD"/>
<path d="M309.751 379.315C307.573 379.992 304.51 378.414 303.885 376.277C303.239 374.077 304.869 371.059 307.019 370.465C309.064 369.906 312 371.415 312.667 373.398C313.468 375.78 311.558 378.812 309.744 379.307L309.751 379.315Z" fill="#4C65BD"/>
<path d="M142.267 160.933C141.614 158.74 143.223 155.715 145.366 155.114C147.537 154.5 150.592 156.197 151.141 158.327C151.675 160.387 150.122 163.3 148.147 163.943C145.99 164.642 142.9 163.063 142.26 160.94L142.267 160.933Z" fill="#4C65BD"/>
<path d="M294.803 380.297C292.408 381.08 289.423 379.158 288.882 377.371C288.228 375.178 289.788 372.132 291.924 371.51C293.983 370.91 296.842 372.355 297.635 374.338C298.323 376.062 297.191 379.423 294.81 380.304L294.803 380.297Z" fill="#4C65BD"/>
<path d="M273.948 378.606C273.113 376.539 274.532 373.409 276.661 372.598C278.601 371.864 281.635 373.162 282.512 375.117C283.418 377.114 282.089 380.35 280.003 381.231C277.951 382.09 274.798 380.729 273.941 378.613L273.948 378.606Z" fill="#4C65BD"/>
<path d="M132.472 200.846C134.65 200.168 137.713 201.747 138.338 203.884C138.984 206.084 137.354 209.102 135.204 209.695C133.152 210.261 130.223 208.746 129.563 206.756C128.762 204.345 130.693 201.335 132.486 200.846L132.472 200.846Z" fill="#4C65BD"/>
<path d="M138.895 269.268C136.83 270.1 133.697 268.675 132.883 266.545C132.146 264.604 133.439 261.572 135.393 260.698C137.389 259.796 140.626 261.13 141.51 263.218C142.374 265.271 141.017 268.422 138.902 269.275L138.895 269.268Z" fill="#4C65BD"/>
<path d="M333.599 375.278C332.911 373.61 334.057 370.179 336.494 369.354C338.504 368.676 341.454 370.073 342.262 372.042C343.104 374.102 341.712 377.246 339.584 378.071C337.518 378.875 334.371 377.408 333.599 375.278Z" fill="#4C65BD"/>
<path d="M170 333.213C171.311 333.782 172.718 332.767 173.769 333.805C174.569 334.59 175.844 335.431 175.88 336.293C175.923 337.428 176.47 338.871 175.442 339.9C174.658 340.684 173.769 341.377 172.922 342.112C171.905 341.305 170.729 342.439 169.545 341.703C168.473 341.036 168.401 339.663 167.252 339.214C167.798 338.052 166.935 336.811 167.621 335.537C168.236 334.388 169.742 334.495 169.993 333.22L170 333.213Z" fill="#4C65BD"/>
<path d="M213.738 366.634C213.835 365.458 213.877 364.337 214.037 363.223C214.246 361.78 215.906 361.635 216.549 360.556C217.642 360.978 218.749 360.362 219.912 360.755C221.327 361.233 221.336 362.837 222.513 363.384C221.918 364.455 222.718 365.563 222.284 366.753C221.809 368.056 220.233 367.95 219.905 369.189C218.784 369.146 217.67 369.138 216.556 369.046C215.036 368.926 215.091 367.021 213.745 366.627L213.738 366.634Z" fill="#4C65BD"/>
<path d="M265.11 381.569C263.877 380.965 262.449 381.973 261.411 380.935C260.619 380.143 259.28 379.196 259.35 378.426C259.454 377.242 258.647 375.819 259.83 374.791C260.677 374.056 261.587 372.726 262.392 372.789C263.555 372.874 265.005 372.14 266.021 373.339C266.68 374.11 267.886 374.881 267.894 375.645C267.901 376.815 268.519 378.202 267.504 379.273C266.734 380.085 265.887 380.82 265.103 381.562L265.11 381.569Z" fill="#4C65BD"/>
<path d="M134.672 295.785C134.867 294.594 134.81 293.278 135.335 292.248C135.803 291.317 136.818 290.288 137.757 290.065C138.821 289.813 140.215 290.186 141.225 290.719C142.157 291.217 143.131 292.192 143.426 293.158C143.714 294.132 143.421 295.477 142.931 296.415C142.442 297.354 141.49 298.39 140.538 298.655C139.452 298.955 138.016 298.695 136.972 298.197C136.04 297.741 135.422 296.619 134.672 295.785Z" fill="#4C65BD"/>
<path d="M132.054 186.303C134.876 185.29 136.208 185.851 137.169 188.479C138.166 191.184 137.495 192.612 135.121 193.668C132.516 194.829 130.379 193.559 129.746 191.373C128.967 188.689 129.526 187.219 132.054 186.303Z" fill="#4C65BD"/>
<path d="M154.285 319.891C156.385 318.758 158.726 320.147 159.33 322.291C160.124 325.142 159.516 326.382 156.693 327.493C154.488 328.367 152.329 327.062 151.746 324.841C151.057 322.221 151.658 320.792 154.299 319.891L154.285 319.891Z" fill="#4C65BD"/>
<path d="M185.739 348.154C188.358 347.245 189.843 347.947 190.763 350.518C191.788 353.405 191.145 354.722 188.203 355.7C185.647 356.545 184.183 355.781 183.284 353.132C182.392 350.532 183.127 349.069 185.739 348.168L185.739 348.154Z" fill="#4C65BD"/>
<path d="M204.424 369.653C202.148 370.442 200.165 369.481 199.379 367.211C198.585 364.934 199.543 362.952 201.812 362.169C204.088 361.38 206.071 362.341 206.858 364.611C207.651 366.888 206.693 368.87 204.424 369.653Z" fill="#4C65BD"/>
<path d="M136.239 310.329C135.482 309.263 136.364 308.381 136.657 307.373C137.041 306.063 138.19 306.036 139.114 305.533C140.305 304.889 141.146 305.66 142.155 305.955C143.465 306.342 143.494 307.49 143.999 308.416C144.644 309.607 143.875 310.447 143.581 311.455C143.197 312.765 142.048 312.792 141.124 313.296C139.934 313.939 139.051 313.308 138.09 312.838C136.85 312.227 136.85 312.213 136.239 310.329Z" fill="#4C65BD"/>
<path d="M244.843 379.331C244.085 377.103 245.106 375.129 247.403 374.346C249.63 373.591 251.606 374.616 252.393 376.914C253.151 379.142 252.13 381.117 249.833 381.899C247.606 382.654 245.63 381.63 244.843 379.331Z" fill="#4C65BD"/>
<path d="M118.007 251.921C117.592 250.064 118.087 247.788 120.573 246.97C122.366 246.384 124.692 247.03 125.514 249.517C126.104 251.311 125.461 253.636 122.975 254.454C121.182 255.041 118.954 254.366 118 251.914L118.007 251.921Z" fill="#4C65BD"/>
<path d="M119.58 231.895C121.766 231.463 123.847 232.298 124.5 234.533C125.118 236.663 124.139 238.792 121.905 239.441C119.776 240.056 117.646 239.074 116.993 236.839C116.374 234.709 117.389 232.713 119.58 231.895Z" fill="#4C65BD"/>
<path d="M137.386 325.698C136.726 323.694 137.894 321.335 139.876 320.685C141.879 320.028 144.241 321.2 144.894 323.183C145.554 325.187 144.386 327.546 142.404 328.196C140.401 328.853 138.04 327.681 137.379 325.691L137.386 325.698Z" fill="#4C65BD"/>
<path d="M118.859 266.422C118.164 264.299 119.437 262.016 121.293 261.38C123.401 260.66 125.692 261.958 126.331 263.815C127.054 265.924 125.76 268.213 123.905 268.849C121.797 269.569 119.526 268.264 118.852 266.415L118.859 266.422Z" fill="#4C65BD"/>
<path d="M116.021 222.092C115.305 219.864 116.242 217.833 118.293 217.002C120.45 216.121 122.539 217.187 123.374 219.24C124.258 221.398 123.195 223.485 121.143 224.317C118.987 225.198 117.038 224.075 116.021 222.092Z" fill="#4C65BD"/>
<path d="M234.892 382.875C232.77 383.566 230.486 382.29 229.847 380.433C229.124 378.324 230.418 376.034 232.273 375.398C234.381 374.679 236.673 375.976 237.312 377.833C238.035 379.942 236.734 382.211 234.885 382.882L234.892 382.875Z" fill="#4C65BD"/>
<path d="M171.344 348.947C173.375 348.276 175.716 349.455 176.383 351.396C177.078 353.421 175.889 355.76 173.949 356.438C171.925 357.129 169.585 355.937 168.904 353.996C168.208 351.971 169.404 349.653 171.337 348.954L171.344 348.947Z" fill="#4C65BD"/>
<path d="M128.761 176.361C127.995 173.845 129.31 171.941 131.089 171.298C133.554 170.403 135.496 171.827 136.148 173.6C137.047 176.066 135.627 178.005 133.855 178.655C131.39 179.55 129.589 178.071 128.761 176.361Z" fill="#4C65BD"/>
<path d="M155.327 334.917C157.329 334.261 159.691 335.432 160.351 337.422C161.011 339.426 159.843 341.786 157.861 342.436C155.859 343.093 153.497 341.921 152.837 339.931C152.177 337.927 153.345 335.567 155.327 334.917Z" fill="#4C65BD"/>
<path d="M119.222 281.525C118.786 279.339 119.617 277.259 121.851 276.609C123.98 275.995 126.104 276.97 126.764 279.212C127.382 281.342 126.403 283.471 124.169 284.12C122.04 284.735 120.043 283.718 119.222 281.525Z" fill="#4C65BD"/>
<path d="M186.542 362.563C187.788 362.088 191.271 363.793 191.637 365.054C191.981 366.266 190.526 369.403 189.357 369.984C188.223 370.543 184.754 369.02 184.164 367.703C183.631 366.526 185.239 363.066 186.542 362.563Z" fill="#4C65BD"/>
<path d="M122.669 291.677C123.86 291.16 127.343 292.809 127.792 294.098C128.185 295.219 126.759 298.441 125.589 299.063C124.49 299.644 120.994 298.163 120.369 296.852C119.822 295.703 121.353 292.251 122.676 291.684L122.669 291.677Z" fill="#4C65BD"/>
<path d="M220.064 383.85C218.53 384.234 215.258 382.768 214.913 381.556C214.717 380.827 214.919 379.909 215.171 379.153C216.065 376.478 218.089 375.772 220.514 377.203C222.189 378.192 222.701 379.503 221.862 381.281C221.386 382.289 220.575 383.129 220.064 383.85Z" fill="#4C65BD"/>
<path d="M126.092 313.577C123.9 314.325 122.743 313.743 121.971 311.501C121.15 309.125 121.716 308.054 124.244 307.223C126.338 306.531 127.494 307.183 128.267 309.509C128.99 311.675 128.382 312.802 126.092 313.577Z" fill="#4C65BD"/>
<path d="M128.314 161.034C127.534 158.798 128.08 157.622 130.251 156.853C132.639 156.008 133.774 156.569 134.588 159.007C135.312 161.172 134.717 162.314 132.441 163.089C130.249 163.837 129.086 163.262 128.307 161.041L128.314 161.034Z" fill="#4C65BD"/>
<path d="M118.197 202.305C120.445 201.53 121.616 202.07 122.388 204.242C123.244 206.638 122.685 207.773 120.248 208.583C118.077 209.31 116.942 208.707 116.155 206.436C115.397 204.236 115.977 203.067 118.19 202.298L118.197 202.305Z" fill="#4C65BD"/>
<path d="M310.442 393.065C308.208 393.841 307.03 393.294 306.258 391.108C305.408 388.718 305.968 387.584 308.412 386.766C310.576 386.047 311.711 386.65 312.491 388.927C313.242 391.12 312.668 392.283 310.435 393.058L310.442 393.065Z" fill="#4C65BD"/>
<path d="M154.256 354.075C153.505 351.882 154.086 350.726 156.326 349.958C158.7 349.14 159.773 349.708 160.608 352.238C161.303 354.333 160.653 355.488 158.328 356.257C156.164 356.976 155.043 356.373 154.256 354.075Z" fill="#4C65BD"/>
<path d="M335.698 389.331C334.877 387.04 335.387 385.857 337.516 385.088C339.82 384.256 341.053 384.748 341.811 386.808C342.731 389.309 342.242 390.444 339.896 391.261C337.641 392.044 336.477 391.511 335.698 389.331Z" fill="#4C65BD"/>
<path d="M320.652 390.286C319.859 388.023 320.383 386.853 322.547 386.077C324.956 385.211 326.099 385.765 326.913 388.176C327.657 390.362 327.07 391.51 324.815 392.279C322.602 393.047 321.432 392.479 320.659 390.279L320.652 390.286Z" fill="#4C65BD"/>
<path d="M291.177 391.957C290.426 389.764 291.006 388.609 293.247 387.84C295.628 387.015 296.693 387.59 297.529 390.12C298.224 392.215 297.574 393.37 295.249 394.139C293.085 394.859 291.964 394.255 291.177 391.957Z" fill="#4C65BD"/>
<path d="M275.914 392.302C275.183 390.13 275.778 388.988 278.04 388.213C280.365 387.416 281.465 388.012 282.294 390.549C283.003 392.714 282.408 393.729 279.957 394.54C277.828 395.239 276.693 394.621 275.914 392.302Z" fill="#4C65BD"/>
<path d="M263.029 389.216C264.752 388.657 266.567 389.562 267.164 391.265C267.81 393.115 266.817 395.103 264.912 395.536C263.035 395.955 261.521 395.253 260.889 393.291C260.348 391.631 261.369 389.74 263.029 389.216Z" fill="#4C65BD"/>
<path d="M169.728 368.399C169.124 366.675 169.97 364.861 171.679 364.218C173.542 363.519 175.455 364.466 176.017 366.386C176.508 368.054 175.508 369.937 173.862 370.461C172.133 371.013 170.325 370.115 169.728 368.399Z" fill="#4C65BD"/>
<path d="M115.387 192.16C114.776 190.527 115.622 188.56 117.254 187.951C119.159 187.238 120.665 187.975 121.5 189.72C122.349 191.479 121.398 193.496 119.55 194.139C117.841 194.726 116.012 193.863 115.38 192.167L115.387 192.16Z" fill="#4C65BD"/>
<path d="M200.805 381.376C200.145 379.624 201.251 377.748 202.798 377.21C204.64 376.574 206.581 377.549 207.122 379.42C207.593 381.052 206.544 382.971 204.919 383.474C203.203 383.998 201.381 383.072 200.812 381.369L200.805 381.376Z" fill="#4C65BD"/>
<path d="M350.919 388.875C350.309 387.214 351.169 385.316 352.821 384.673C354.411 384.051 356.422 384.9 357.075 386.477C357.826 388.278 356.91 390.245 355.082 390.895C353.387 391.496 351.439 390.5 350.926 388.882L350.919 388.875Z" fill="#4C65BD"/>
<path d="M138.183 340.017C137.663 338.321 138.628 336.501 140.295 335.914C142.396 335.173 144.225 336.778 144.563 338.25C144.949 339.938 143.914 341.773 142.219 342.248C140.581 342.709 138.667 341.649 138.169 340.017L138.183 340.017Z" fill="#4C65BD"/>
<path d="M246.544 394.274C246.059 392.922 247.178 390.527 248.516 390.045C249.867 389.563 252.264 390.685 252.748 392.024C253.233 393.376 252.114 395.771 250.776 396.253C249.425 396.735 247.028 395.613 246.544 394.274Z" fill="#4C65BD"/>
<path d="M124.816 321.709C126.168 321.241 128.551 322.406 129.014 323.751C129.484 325.103 128.324 327.484 126.979 327.945C125.627 328.414 123.245 327.249 122.781 325.904C122.311 324.551 123.472 322.171 124.816 321.709Z" fill="#4C65BD"/>
<path d="M105.528 282.333C105.107 281.366 106.379 278.537 107.444 278.075C108.41 277.656 111.241 278.933 111.704 279.998C112.125 280.965 110.853 283.794 109.788 284.256C108.822 284.675 105.991 283.398 105.528 282.333Z" fill="#4C65BD"/>
<path d="M106.486 263.007C107.473 262.665 110.346 264.054 110.69 265.042C111.034 266.03 109.65 268.901 108.662 269.243C107.675 269.586 104.802 268.196 104.458 267.208C104.114 266.22 105.498 263.349 106.486 263.007Z" fill="#4C65BD"/>
<path d="M106.845 239.807C105.893 240.185 103.027 238.844 102.612 237.828C102.233 236.875 103.569 234.012 104.584 233.599C105.537 233.222 108.403 234.562 108.817 235.578C109.196 236.531 107.86 239.395 106.845 239.807Z" fill="#4C65BD"/>
<path d="M231.484 395.201C231.175 394.136 232.595 391.314 233.582 391.028C234.647 390.72 237.471 392.144 237.759 393.132C238.068 394.197 236.648 397.019 235.661 397.306C234.596 397.613 231.772 396.189 231.484 395.201Z" fill="#4C65BD"/>
<path d="M185.788 382.414C185.443 381.426 186.828 378.556 187.816 378.213C188.803 377.871 191.676 379.26 192.02 380.248C192.364 381.236 190.98 384.107 189.992 384.449C189.005 384.792 186.132 383.402 185.788 382.414Z" fill="#4C65BD"/>
<path d="M103.465 252.315C103.03 251.376 104.267 248.512 105.318 248.023C106.256 247.589 109.122 248.831 109.613 249.883C110.048 250.822 108.811 253.686 107.76 254.175C106.822 254.609 103.956 253.366 103.465 252.315Z" fill="#4C65BD"/>
<path d="M111.57 295.696C112.3 297.854 112.139 298.141 109.807 298.931C107.58 299.686 107.244 299.489 106.408 296.96C105.769 295.019 106.028 294.606 108.374 293.83C110.468 293.138 110.755 293.3 111.556 295.696L111.57 295.696Z" fill="#4C65BD"/>
<path d="M116.731 173.43C118.888 172.703 119.175 172.864 119.968 175.198C120.727 177.426 120.531 177.762 118.003 178.594C116.063 179.229 115.65 178.97 114.87 176.623C114.175 174.528 114.343 174.248 116.731 173.444L116.731 173.43Z" fill="#4C65BD"/>
<path d="M101.796 207.363C101.305 206.046 101.976 204.491 103.243 203.981C104.714 203.394 106.297 204.138 106.782 205.644C107.203 206.947 106.434 208.474 105.125 208.928C103.822 209.375 102.266 208.646 101.789 207.37L101.796 207.363Z" fill="#4C65BD"/>
<path d="M156.006 369.123C155.486 367.834 156.109 366.23 157.348 365.692C158.763 365.076 160.444 365.806 160.936 367.25C161.385 368.553 160.658 370.107 159.383 370.583C158.067 371.072 156.511 370.398 155.999 369.13L156.006 369.123Z" fill="#4C65BD"/>
<path d="M110.793 313.285C109.476 313.774 107.921 313.114 107.401 311.839C106.805 310.374 107.546 308.778 109.044 308.289C110.34 307.863 111.882 308.648 112.338 309.945C112.794 311.255 112.074 312.802 110.793 313.285Z" fill="#4C65BD"/>
<path d="M141.442 351.62C142.759 351.131 144.315 351.804 144.827 353.073C145.417 354.544 144.675 356.127 143.17 356.609C141.867 357.028 140.339 356.256 139.883 354.946C139.434 353.643 140.161 352.088 141.435 351.613L141.442 351.62Z" fill="#4C65BD"/>
<path d="M171.386 383.215C170.937 381.912 171.657 380.35 172.932 379.875C174.409 379.323 175.979 380.109 176.428 381.622C176.815 382.932 176.01 384.424 174.68 384.857C173.384 385.283 171.836 384.505 171.393 383.208L171.386 383.215Z" fill="#4C65BD"/>
<path d="M216.935 395.56C216.416 394.257 217.045 392.674 218.291 392.129C219.706 391.513 221.373 392.243 221.879 393.687C222.335 394.983 221.601 396.545 220.32 397.013C219.01 397.495 217.44 396.821 216.942 395.553L216.935 395.56Z" fill="#4C65BD"/>
<path d="M125.964 337.401C127.288 336.891 128.843 337.537 129.37 338.819C129.973 340.262 129.232 341.887 127.761 342.376C126.473 342.809 124.91 342.044 124.461 340.755C123.997 339.452 124.704 337.89 125.978 337.401L125.964 337.401Z" fill="#4C65BD"/>
<path d="M104.362 218.987C105.679 218.497 107.234 219.171 107.747 220.439C108.336 221.911 107.595 223.493 106.09 223.975C104.787 224.395 103.259 223.623 102.803 222.313C102.354 221.009 103.081 219.455 104.355 218.98L104.362 218.987Z" fill="#4C65BD"/>
<path d="M113.891 162.065C113.919 161.617 113.87 161.386 113.954 161.218C114.31 160.427 114.653 159.607 115.115 158.879C115.276 158.634 115.794 158.523 116.144 158.523C116.438 158.523 116.733 158.775 117.034 158.923C119.501 160.13 119.325 159.674 118.172 162.174C117.486 163.659 117.444 163.897 115.784 162.992C115.139 162.641 114.466 162.346 113.898 162.072L113.891 162.065Z" fill="#4C65BD"/>
<path d="M203.19 393.111C203.596 393.083 203.834 392.999 203.995 393.077C204.794 393.428 205.572 393.827 206.357 394.206C206.994 394.508 207.002 394.963 206.715 395.517C206.365 396.189 206.107 396.924 205.687 397.554C205.512 397.827 204.959 398.114 204.714 398.023C203.796 397.693 202.92 397.223 202.051 396.76C201.904 396.682 201.742 396.339 201.798 396.213C202.246 395.135 202.749 394.07 203.19 393.111Z" fill="#4C65BD"/>
<path d="M125.531 355.908C125.011 354.604 125.298 353.799 126.46 353.31C127.756 352.757 128.611 353.024 129.109 354.138C129.747 355.561 129.426 356.443 128.074 356.94C126.765 357.422 126.015 357.12 125.524 355.901L125.531 355.908Z" fill="#4C65BD"/>
<path d="M109.031 326.572C108.547 325.261 108.847 324.512 110.073 324.03C111.375 323.512 112.181 323.8 112.673 324.963C113.297 326.428 112.962 327.226 111.533 327.715C110.23 328.163 109.516 327.84 109.038 326.565L109.031 326.572Z" fill="#4C65BD"/>
<path d="M265.763 409.252C264.454 409.721 263.732 409.405 263.255 408.144C262.679 406.644 263.029 405.944 264.57 405.469C265.837 405.085 266.545 405.47 266.98 406.788C267.409 408.084 267.059 408.784 265.77 409.245L265.763 409.252Z" fill="#4C65BD"/>
<path d="M141.59 369.896C141.085 368.592 141.379 367.808 142.555 367.319C143.85 366.78 144.684 367.054 145.183 368.182C145.807 369.605 145.479 370.48 144.113 370.976C142.811 371.452 142.061 371.136 141.583 369.903L141.59 369.896Z" fill="#4C65BD"/>
<path d="M280.662 408.277C279.374 408.682 278.68 408.31 278.23 406.993C277.76 405.599 278.215 404.807 279.72 404.409C280.925 404.088 281.661 404.558 282.047 405.91C282.419 407.207 282.042 407.851 280.662 408.291L280.662 408.277Z" fill="#4C65BD"/>
<path d="M293.234 405.913C292.827 404.623 293.197 403.93 294.514 403.483C295.907 403.015 296.699 403.471 297.1 404.977C297.423 406.182 296.954 406.917 295.603 407.301C294.307 407.672 293.662 407.293 293.22 405.913L293.234 405.913Z" fill="#4C65BD"/>
<path d="M309.105 403.32C310.414 402.865 311.122 403.195 311.607 404.463C312.161 405.942 311.79 406.663 310.257 407.117C308.996 407.494 308.288 407.095 307.867 405.763C307.446 404.474 307.809 403.774 309.119 403.32L309.105 403.32Z" fill="#4C65BD"/>
<path d="M324.137 402.309C325.446 401.855 326.154 402.185 326.638 403.453C327.193 404.932 326.822 405.653 325.289 406.107C324.028 406.484 323.32 406.084 322.899 404.753C322.477 403.464 322.841 402.764 324.151 402.309L324.137 402.309Z" fill="#4C65BD"/>
<path d="M103.97 193.243C102.66 193.726 101.911 193.424 101.419 192.205C100.9 190.901 101.186 190.096 102.349 189.606C103.805 188.991 104.611 189.321 105.103 190.751C105.559 192.061 105.23 192.768 103.956 193.243L103.97 193.243Z" fill="#4C65BD"/>
<path d="M92.8543 280.326C94.1638 279.844 94.9136 280.146 95.3979 281.372C95.9173 282.675 95.6308 283.481 94.4684 283.97C93.0118 284.585 92.206 284.255 91.7145 282.826C91.2651 281.523 91.5868 280.808 92.8613 280.333L92.8543 280.326Z" fill="#4C65BD"/>
<path d="M93.2793 268.993C91.9697 269.475 91.22 269.173 90.7286 267.954C90.2092 266.65 90.4958 265.845 91.6582 265.356C93.1147 264.74 93.9205 265.07 94.412 266.5C94.8684 267.81 94.5398 268.517 93.2653 268.993L93.2793 268.993Z" fill="#4C65BD"/>
<path d="M95.265 298.751C94.2138 298.218 93.3449 297.881 92.609 297.355C92.1954 297.053 93.3072 294.595 93.8047 294.729C94.6665 294.961 95.8856 295.326 96.1523 295.971C96.405 296.601 95.6633 297.638 95.265 298.751Z" fill="#4C65BD"/>
<path d="M90.3162 234.645C91.3534 235.234 92.2293 235.592 92.9163 236.167C93.3298 236.511 92.0919 238.913 91.6225 238.751C90.7676 238.456 89.5695 238.056 89.3308 237.397C89.0991 236.76 89.8828 235.752 90.3162 234.645Z" fill="#4C65BD"/>
<path d="M352.619 402.851C353.235 401.843 353.57 400.61 354.214 400.414C354.872 400.219 355.924 400.934 356.646 401.46C357.059 401.762 355.856 404.17 355.359 404.037C354.49 403.798 353.684 403.328 352.612 402.844L352.619 402.851Z" fill="#4C65BD"/>
<path d="M190.62 398.6C189.618 397.975 188.392 397.617 188.202 396.966C188.012 396.3 188.74 395.264 189.272 394.55C189.58 394.144 191.983 395.386 191.844 395.876C191.592 396.744 191.117 397.542 190.627 398.607L190.62 398.6Z" fill="#4C65BD"/>
<path d="M247.922 409.301C248.411 408.265 248.614 406.983 249.237 406.724C249.888 406.451 250.981 407.097 251.815 407.483C252.236 407.679 251.348 410.235 250.788 410.193C249.905 410.122 249.05 409.673 247.922 409.301Z" fill="#4C65BD"/>
<path d="M159.529 385.594C158.527 384.97 157.3 384.612 157.111 383.96C156.921 383.294 157.649 382.258 158.181 381.544C158.488 381.138 160.892 382.38 160.752 382.87C160.501 383.739 160.025 384.537 159.536 385.601L159.529 385.594Z" fill="#4C65BD"/>
<path d="M89.3505 252.997C89.868 251.947 90.1965 251.085 90.7073 250.336C90.9872 249.93 93.4748 251.018 93.3491 251.508C93.1256 252.377 92.7764 253.595 92.1462 253.861C91.5159 254.127 90.4716 253.39 89.3505 252.997Z" fill="#4C65BD"/>
<path d="M340.72 405.314C339.683 404.823 338.401 404.619 338.141 403.995C337.867 403.343 338.511 402.251 338.895 401.418C339.091 400.998 341.649 401.889 341.607 402.45C341.538 403.332 341.09 404.186 340.72 405.314Z" fill="#4C65BD"/>
<path d="M109.695 341.654C110.283 340.618 110.632 339.749 111.206 339.063C111.549 338.65 113.953 339.878 113.785 340.354C113.491 341.209 113.1 342.413 112.449 342.644C111.812 342.874 110.795 342.096 109.695 341.654Z" fill="#4C65BD"/>
<path d="M101.232 177.613C100.699 176.184 100.72 176.233 101.987 175.722C102.828 175.387 103.332 175.345 103.641 176.41C104.055 177.818 104.118 177.755 102.844 178.259C102.004 178.594 101.387 178.692 101.232 177.613Z" fill="#4C65BD"/>
<path d="M90.6576 223.732C89.8874 224.151 89.369 224.095 89.0599 223.044C88.6455 221.636 88.5895 221.706 89.857 221.195C90.6973 220.86 91.2016 220.818 91.5107 221.883C91.9251 223.291 92.0022 223.27 90.6646 223.739L90.6576 223.732Z" fill="#4C65BD"/>
<path d="M234.087 408.694C233.462 407.468 234.541 407.511 235.171 407.287C236.313 406.875 236.264 406.966 236.826 408.451C237.303 409.713 236.343 409.649 235.713 409.873C234.564 410.278 234.529 410.229 234.08 408.701L234.087 408.694Z" fill="#4C65BD"/>
<path d="M94.1199 311.842C93.5657 310.896 94.1399 310.602 94.9943 310.351C96.2968 309.96 96.2058 309.953 96.7603 311.319C97.1744 312.349 96.7333 312.622 95.8789 312.873C94.5764 313.265 94.5904 313.307 94.1199 311.842Z" fill="#4C65BD"/>
<path d="M173.282 397.878C173.786 397.122 174.038 396.338 174.479 396.205C174.934 396.072 175.572 396.598 176.126 396.83C175.825 397.439 175.65 398.216 175.167 398.587C174.922 398.776 174.109 398.215 173.282 397.878Z" fill="#4C65BD"/>
<path d="M218.93 410.265C219.258 409.516 219.412 408.9 219.776 408.437C220.105 408.024 221.646 408.6 221.618 409.146C221.591 409.707 221.304 410.526 220.891 410.729C220.478 410.932 219.763 410.497 218.93 410.265Z" fill="#4C65BD"/>
<path d="M145.05 385.772C144.272 385.302 143.333 384.993 143.333 384.684C143.325 384.075 143.85 383.466 144.151 382.857C144.676 383.159 145.468 383.362 145.644 383.804C145.812 384.224 145.343 384.903 145.05 385.772Z" fill="#4C65BD"/>
<path d="M129.074 371.616C128.324 371.286 127.708 371.131 127.245 370.767C126.832 370.437 127.405 368.896 127.951 368.925C128.512 368.953 129.331 369.241 129.535 369.655C129.738 370.068 129.305 370.782 129.074 371.616Z" fill="#4C65BD"/>
<path d="M94.2797 327.484C94.6924 326.721 94.881 326.098 95.287 325.692C95.6789 325.3 97.1435 325.953 97.0739 326.499C97.0043 327.059 96.6827 327.844 96.2486 328.025C95.8284 328.207 95.1346 327.751 94.2797 327.484Z" fill="#4C65BD"/>
<path d="M112.144 355.806C112.221 355.518 112.347 355.098 112.466 354.671C113.054 354.98 113.65 355.281 114.239 355.59C113.959 356.108 113.798 356.9 113.364 357.096C112.412 357.529 112.593 356.436 112.137 355.813L112.144 355.806Z" fill="#4C65BD"/>
<path d="M74.839 221.856C75.2456 222.29 75.575 222.508 75.6733 222.802C75.7295 222.956 75.3446 223.467 75.2676 223.446C74.9453 223.348 74.6019 223.158 74.3915 222.906C74.3144 222.815 74.5803 222.437 74.839 221.856Z" fill="#4C65BD"/>
<path d="M78.145 281.561C78.5516 281.996 78.881 282.213 78.9794 282.507C79.0355 282.662 78.6507 283.173 78.5736 283.152C78.2513 283.053 77.9079 282.864 77.6975 282.611C77.6204 282.52 77.8863 282.142 78.145 281.561Z" fill="#4C65BD"/>
<path d="M265.214 422.884C265.508 422.323 265.641 421.882 265.76 421.889C266.089 421.897 266.453 422.051 266.72 422.247C266.783 422.296 266.622 422.906 266.468 422.962C266.174 423.06 265.803 422.94 265.207 422.891L265.214 422.884Z" fill="#4C65BD"/>
<path d="M77.7496 269.141C77.308 268.741 76.9085 268.524 76.9364 268.384C77.0062 268.062 77.2651 267.775 77.447 267.481C77.6783 267.628 78.0847 267.768 78.0988 267.937C78.1271 268.245 77.9313 268.581 77.7496 269.141Z" fill="#4C65BD"/>
<path d="M280.945 420.403C281.352 420.837 281.681 421.055 281.779 421.349C281.836 421.503 281.451 422.014 281.374 421.993C281.051 421.895 280.708 421.705 280.498 421.453C280.421 421.362 280.686 420.984 280.945 420.403Z" fill="#4C65BD"/>
<path d="M101.576 160.837C102.059 161.166 102.431 161.3 102.599 161.566C102.69 161.713 102.452 162.063 102.369 162.329C102.039 162.21 101.654 162.147 101.402 161.936C101.296 161.845 101.471 161.432 101.576 160.837Z" fill="#4C65BD"/>
<path d="M89.4752 208.425C89.0336 208.025 88.6341 207.808 88.662 207.668C88.7318 207.346 88.9908 207.059 89.1727 206.765C89.404 206.912 89.8103 207.052 89.8245 207.22C89.8528 207.529 89.6569 207.865 89.4752 208.425Z" fill="#4C65BD"/>
<path d="M250.454 421.884C250.938 422.213 251.309 422.347 251.477 422.613C251.569 422.76 251.331 423.11 251.247 423.376C250.917 423.257 250.532 423.194 250.28 422.983C250.175 422.892 250.349 422.479 250.454 421.884Z" fill="#4C65BD"/>
<path d="M294.647 421.072C294.941 420.512 295.074 420.071 295.193 420.078C295.522 420.085 295.887 420.24 296.153 420.436C296.216 420.485 296.055 421.094 295.901 421.15C295.607 421.248 295.236 421.129 294.64 421.079L294.647 421.072Z" fill="#4C65BD"/>
<path d="M144.879 399.753C144.437 399.353 144.038 399.136 144.066 398.996C144.136 398.674 144.395 398.387 144.577 398.093C144.808 398.24 145.214 398.38 145.228 398.549C145.257 398.857 145.061 399.193 144.879 399.753Z" fill="#4C65BD"/>
<path d="M75.6429 236.966C76.1265 237.295 76.4978 237.429 76.6662 237.695C76.7574 237.842 76.5195 238.192 76.4356 238.459C76.1063 238.339 75.721 238.276 75.4686 238.065C75.3635 237.974 75.5383 237.561 75.6429 236.966Z" fill="#4C65BD"/>
<path d="M86.8792 177.595C87.2081 177.111 87.3409 176.74 87.6069 176.572C87.7539 176.481 88.1044 176.72 88.3706 176.804C88.2518 177.133 88.1891 177.519 87.9792 177.771C87.8882 177.876 87.4747 177.7 86.8792 177.595Z" fill="#4C65BD"/>
<path d="M310.814 420.581C310.373 420.181 309.973 419.964 310.001 419.824C310.071 419.502 310.33 419.215 310.512 418.921C310.743 419.068 311.149 419.208 311.163 419.376C311.192 419.685 310.996 420.021 310.814 420.581Z" fill="#4C65BD"/>
<path d="M158.895 398.581C159.329 398.175 159.546 397.846 159.84 397.748C159.994 397.692 160.506 398.078 160.485 398.155C160.387 398.477 160.198 398.82 159.946 399.03C159.855 399.107 159.477 398.84 158.895 398.581Z" fill="#4C65BD"/>
<path d="M324.823 419.402C325.257 418.996 325.474 418.667 325.768 418.569C325.922 418.513 326.434 418.899 326.413 418.976C326.315 419.298 326.126 419.641 325.874 419.851C325.783 419.928 325.405 419.661 324.823 419.402Z" fill="#4C65BD"/>
<path d="M88.4403 193.392C87.9986 192.992 87.5992 192.775 87.6271 192.635C87.6969 192.312 87.9558 192.025 88.1377 191.731C88.369 191.879 88.7754 192.019 88.7895 192.187C88.8178 192.495 88.6219 192.832 88.4403 193.392Z" fill="#4C65BD"/>
<path d="M76.1956 253.337C76.5244 252.854 76.6572 252.482 76.9233 252.315C77.0703 252.224 77.4207 252.462 77.687 252.546C77.5682 252.875 77.5054 253.261 77.2955 253.513C77.2045 253.618 76.7911 253.442 76.1956 253.337Z" fill="#4C65BD"/>
<path d="M340.421 417.278C340.905 417.607 341.276 417.741 341.445 418.007C341.536 418.154 341.298 418.504 341.214 418.771C340.885 418.651 340.499 418.588 340.247 418.377C340.142 418.286 340.317 417.873 340.421 417.278Z" fill="#4C65BD"/>
<path d="M176.188 413.382C175.746 412.983 175.347 412.765 175.375 412.625C175.445 412.303 175.704 412.016 175.886 411.722C176.117 411.869 176.523 412.01 176.537 412.178C176.566 412.486 176.37 412.822 176.188 413.382Z" fill="#4C65BD"/>
<path d="M190.597 412.588C190.155 412.189 189.755 411.971 189.783 411.831C189.853 411.509 190.112 411.222 190.294 410.928C190.525 411.075 190.932 411.216 190.946 411.384C190.974 411.692 190.778 412.028 190.597 412.588Z" fill="#4C65BD"/>
<path d="M205.845 411.501C205.285 411.207 204.843 411.073 204.85 410.954C204.857 410.625 205.011 410.261 205.207 409.995C205.256 409.932 205.865 410.093 205.921 410.247C206.02 410.542 205.901 410.913 205.852 411.508L205.845 411.501Z" fill="#4C65BD"/>
<path d="M78.4667 298.051C78.7604 297.491 78.8931 297.049 79.0122 297.057C79.3415 297.064 79.7058 297.218 79.9722 297.415C80.0353 297.464 79.8747 298.073 79.7206 298.129C79.4265 298.227 79.0551 298.107 78.4596 298.058L78.4667 298.051Z" fill="#4C65BD"/>
<path d="M220.447 424.801C220.881 424.396 221.098 424.066 221.392 423.969C221.547 423.913 222.058 424.298 222.037 424.375C221.939 424.698 221.751 425.041 221.499 425.251C221.408 425.328 221.029 425.061 220.447 424.801Z" fill="#4C65BD"/>
<path d="M234.849 424.015C235.283 423.609 235.5 423.28 235.794 423.182C235.948 423.126 236.46 423.512 236.439 423.589C236.341 423.911 236.152 424.254 235.9 424.464C235.809 424.541 235.43 424.274 234.849 424.015Z" fill="#4C65BD"/>
<path d="M311.712 139.384C275.841 148.797 226.273 113.004 199.799 109.753C175.567 106.784 143.729 124.123 124.868 144.457C105.999 164.784 101.418 199.188 119.354 220.4C127.165 229.625 138.196 235.63 146.147 244.743C171.577 273.897 156.225 319.661 167.106 356.761C179.658 399.522 225.589 424.091 269.557 431.3C297.517 435.883 327.673 435.032 352.192 420.874C376.705 406.723 393.401 376.581 385.253 349.437C377.913 324.977 352.439 302.022 363.179 278.887C370.689 262.712 391.519 258.778 405.884 248.212C428.391 231.65 432.945 197.33 420.049 172.494C407.154 147.658 390.902 129.348 362.938 129.507C349.888 129.587 324.312 136.067 311.691 139.377L311.712 139.384Z" fill="#4C65BD"/>
<path d="M137.124 270.857C156.145 290.199 168.76 314.922 173.678 341.608C186.547 411.394 245.161 442.292 270.996 443.924C301.007 445.812 330.669 432.485 352.556 411.873C374.437 391.255 389.139 363.919 399.006 335.446C406.708 313.19 411.697 289.385 408.413 266.014C405.2 243.175 394.354 222.208 383.276 201.961C369.028 175.941 353.813 149.863 332.32 129.447C314.801 112.796 289.054 99.9701 267.095 109.787C248.378 118.171 238.638 140.403 219.78 148.465C193.374 159.742 163.6 138.451 135.058 141.741C101.752 145.573 81.0144 175.481 86.4123 197.747C92.0422 220.959 116.043 249.426 137.124 270.857Z" stroke="#475164" stroke-width="3.14" stroke-miterlimit="10"/>
<path d="M147.917 242.019C173.172 270.97 157.924 316.406 168.728 353.246C181.189 395.706 226.804 420.099 270.457 427.259C298.222 431.814 328.16 430.956 352.511 416.91C376.849 402.864 393.433 372.931 385.342 345.984" fill="#4C65BD"/>
</g>
<defs>
<clipPath id="clip0_64_1947">
<rect width="367.74" height="361.25" fill="white" transform="translate(256.148 0.263428) rotate(45)"/>
</clipPath>
</defs>
</svg>
