<svg width="261" height="258" viewBox="0 0 261 258" fill="none" xmlns="http://www.w3.org/2000/svg">
<g style="mix-blend-mode:multiply" opacity="0.5">
<path d="M120.181 181.885L118.247 182.926L123.204 184.384L107.879 193.219L102.922 191.761L100.987 192.802L181.844 216.57L183.778 215.529L171.174 211.81L186.499 202.976L199.103 206.694L201.038 205.653L120.181 181.885ZM111.688 194.319L127.013 185.485L134.992 187.835L119.668 196.669L111.688 194.319ZM123.597 197.829L138.922 188.995L146.872 191.345L131.547 200.179L123.597 197.829ZM135.476 201.339L150.801 192.505L158.751 194.855L143.426 203.689L135.476 201.339ZM147.355 204.85L162.68 196.015L170.66 198.365L155.335 207.2L147.355 204.85ZM167.214 210.68L159.264 208.33L174.589 199.495L182.539 201.845L167.214 210.68Z" fill="#279693"/>
</g>
<g style="mix-blend-mode:multiply" opacity="0.5">
<path d="M197.622 173.735L137.471 139.556C133.632 137.384 128.101 136.79 123.295 137.741C118.489 136.79 112.957 137.384 109.149 139.556L49.4509 173.705C44.131 176.769 44.131 181.737 49.4509 184.771L109.602 218.95C112.292 220.467 115.798 221.24 119.335 221.21C122.297 221.21 125.259 221.21 128.222 221.21C131.728 221.21 135.234 220.467 137.924 218.95L197.683 184.771C203.003 181.737 202.972 176.769 197.622 173.735Z" fill="#279693"/>
</g>
<path d="M55.0126 170.671V179.238C54.9824 181.261 56.3426 183.254 59.0328 184.8L119.184 218.979C124.564 222.043 133.209 222.043 138.559 218.979L198.317 184.8C200.947 183.283 202.277 181.32 202.307 179.327V170.76L55.0429 170.671H55.0126Z" fill="url(#paint0_linear_64_41804)"/>
<g style="mix-blend-mode:screen" opacity="0.2">
<path d="M202.307 170.73V179.297C202.307 181.29 200.947 183.254 198.317 184.771V176.204C200.977 174.687 202.307 172.723 202.307 170.73ZM55.0429 170.641V179.208C55.0126 181.231 56.3728 183.224 59.063 184.771V176.204C56.4031 174.687 55.0429 172.664 55.0429 170.641ZM119.214 210.382V218.949C124.564 222.013 133.209 222.013 138.559 218.949V210.382C133.239 213.446 124.594 213.446 119.214 210.382Z" fill="#E9E6E6"/>
</g>
<path d="M198.257 165.197C203.637 168.261 203.637 173.199 198.317 176.233L138.559 210.412C133.239 213.476 124.564 213.476 119.184 210.412L59.0328 176.233C53.6827 173.199 53.6524 168.232 58.9723 165.197L118.731 131.019C124.05 127.985 132.725 127.985 138.106 131.019L198.257 165.197Z" fill="#64E2CA"/>
<path d="M128.917 211.632C125.441 211.632 122.207 210.858 119.758 209.49L59.6071 175.311C57.3401 174.032 56.1008 172.366 56.1008 170.671C56.1008 168.975 57.3098 167.339 59.5466 166.09L119.305 131.911C121.723 130.543 124.957 129.769 128.433 129.769C131.909 129.769 135.174 130.543 137.592 131.911L197.743 166.09C200.01 167.369 201.249 169.005 201.249 170.73C201.249 172.426 200.04 174.062 197.804 175.311L138.045 209.49C135.627 210.888 132.393 211.632 128.917 211.632Z" fill="#4DBCA7"/>
<path d="M128.917 211.632C132.393 211.632 135.627 210.858 138.045 209.49L197.169 175.668L137.592 141.817C135.174 140.448 131.909 139.675 128.433 139.675C124.957 139.675 121.723 140.448 119.305 141.817L60.1814 175.639L119.758 209.49C122.207 210.888 125.441 211.632 128.917 211.632Z" fill="#64E2CA"/>
<g style="mix-blend-mode:multiply" opacity="0.8">
<path d="M155.668 176.233C160.987 173.199 160.957 168.232 155.607 165.197L107.154 137.652L59.0025 165.197C53.6826 168.261 53.7129 173.199 59.063 176.233L107.516 203.779L155.668 176.233Z" fill="#4DBCA7"/>
</g>
<path d="M198.227 137.801L138.015 172.247C135.597 173.645 132.363 174.181 128.887 174.181C125.411 174.181 122.176 173.616 119.728 172.247L61.3905 139.258C60.1512 138.545 57.9144 137.087 57.0378 135.986L55.0429 132.625V141.192C55.0126 143.215 56.3728 145.208 59.063 146.755L119.214 180.933C124.594 183.997 133.239 183.997 138.589 180.933L198.348 146.755C200.977 145.238 202.307 143.274 202.338 141.281V132.714C201.008 135.302 199.678 136.998 198.287 137.86L198.227 137.801Z" fill="url(#paint1_linear_64_41804)"/>
<g style="mix-blend-mode:screen" opacity="0.2">
<path d="M202.307 132.655V141.222C202.307 143.215 200.947 145.178 198.317 146.695V138.128C200.977 136.611 202.307 134.648 202.307 132.655ZM55.0429 132.565V141.132C55.0126 143.155 56.3728 145.148 59.063 146.695V138.128C56.4031 136.611 55.0429 134.588 55.0429 132.565ZM119.214 172.307V180.874C124.564 183.938 133.209 183.938 138.559 180.874V172.307C133.239 175.371 124.594 175.371 119.214 172.307Z" fill="#E9E6E6"/>
</g>
<path d="M198.257 127.092L138.106 92.9133C132.756 89.8792 124.05 89.8792 118.731 92.9133L58.9723 127.092C53.6524 130.156 53.6827 135.094 59.0328 138.128L119.184 172.307C124.564 175.371 133.209 175.371 138.559 172.307L198.317 138.128C203.637 135.094 203.607 130.126 198.257 127.092ZM138.045 171.385C135.627 172.783 132.393 173.526 128.917 173.526C125.441 173.526 122.207 172.753 119.758 171.385L60.1814 137.533L119.305 103.711C121.723 102.343 124.957 101.57 128.433 101.57C131.909 101.57 135.174 102.343 137.592 103.711L197.169 137.563L138.045 171.385Z" fill="#FFF7F5"/>
<path d="M197.743 128.014L137.592 93.8355C135.174 92.4671 131.909 91.6937 128.433 91.6937C124.957 91.6937 121.723 92.4671 119.305 93.8355L59.5466 128.014C57.3098 129.293 56.1008 130.929 56.1008 132.595C56.1008 134.291 57.3401 135.957 59.6071 137.236L60.1511 137.563L119.275 103.741C121.693 102.373 124.927 101.599 128.403 101.599C131.879 101.599 135.144 102.373 137.562 103.741L197.139 137.593L197.743 137.236C199.98 135.957 201.189 134.321 201.189 132.655C201.189 130.959 199.95 129.323 197.683 128.014H197.743Z" fill="url(#paint2_linear_64_41804)"/>
<path opacity="0.9" d="M197.743 132.327L137.592 98.1487C135.174 96.7804 131.909 96.007 128.433 96.007C124.957 96.007 121.723 96.7804 119.305 98.1487L59.5466 132.327C58.3073 133.041 57.4005 133.874 56.8262 134.767C57.4005 135.659 58.3376 136.522 59.6071 137.236L119.758 171.414C122.207 172.813 125.441 173.556 128.917 173.556C132.393 173.556 135.627 172.783 138.045 171.414L197.804 137.236C199.043 136.522 199.95 135.689 200.524 134.796C199.95 133.904 199.013 133.041 197.743 132.327Z" fill="#1236B9"/>
<path d="M73.7532 131.584L69.9144 133.785L71.184 134.499L75.0227 132.328L73.7532 131.584Z" fill="#F25EB0"/>
<path d="M91.98 121.232L87.7784 123.612L89.048 124.355L93.2495 121.976L91.98 121.232Z" fill="#6256E6"/>
<path d="M74.9321 134.856L69.0076 138.217L70.3074 138.931L76.2016 135.57L74.9321 134.856Z" fill="#F25EB0"/>
<path d="M77.9245 134.618L81.7633 132.417L80.4938 131.703L76.655 133.874L77.9245 134.618Z" fill="#FFABB3"/>
<path d="M83.4862 131.435L88.2016 128.758L86.9018 128.044L82.2167 130.721L83.4862 131.435Z" fill="#FFABB3"/>
<path d="M94.519 125.159L102.952 120.399L101.683 119.656L93.2495 124.445L94.519 125.159Z" fill="white"/>
<path d="M109.723 116.532L118.67 111.445L117.401 110.732L108.423 115.818L109.723 116.532Z" fill="white"/>
<path d="M75.1134 138.693L72.4837 140.181L73.7532 140.894L76.383 139.407L75.1134 138.693Z" fill="#FFABB3"/>
<path d="M78.1059 138.426L81.9447 136.254L80.6752 135.51L76.8364 137.712L78.1059 138.426Z" fill="#FFABB3"/>
<path d="M83.6676 135.272L87.6575 133.012L86.388 132.268L82.3981 134.559L83.6676 135.272Z" fill="#FFABB3"/>
<path d="M101.894 124.921L108.695 121.054L107.426 120.31L100.595 124.207L101.894 124.921Z" fill="white"/>
<path d="M87.4157 135.629L83.5467 137.801L84.8464 138.545L88.6852 136.343L87.4157 135.629Z" fill="#FFABB3"/>
<path d="M98.4485 129.353L95.5467 130.989L96.8162 131.733L99.718 130.067L98.4485 129.353Z" fill="white"/>
<path d="M101.441 129.085L109.844 124.326L108.574 123.582L100.171 128.371L101.441 129.085Z" fill="white"/>
<path d="M111.567 123.344L114.922 121.44L113.652 120.726L110.297 122.63L111.567 123.344Z" fill="white"/>
<path d="M116.615 120.459L126.438 114.896L125.169 114.182L115.345 119.745L116.615 120.459Z" fill="white"/>
<path d="M82.0354 142.62L79.4056 144.107L80.6752 144.821L83.3049 143.334L82.0354 142.62Z" fill="#FFABB3"/>
<path d="M84.9975 142.352L88.8666 140.181L87.597 139.437L83.728 141.638L84.9975 142.352Z" fill="#FFABB3"/>
<path d="M90.5593 139.199L101.38 133.071L107.093 129.829L105.824 129.085L100.715 132L89.2897 138.485L90.5593 139.199Z" fill="white"/>
<path d="M121.572 120.131L122.841 120.875L126.076 119.031L124.806 118.287L121.572 120.131Z" fill="white"/>
<path d="M88.7759 142.709L82.8514 146.07L84.121 146.784L90.0454 143.423L88.7759 142.709Z" fill="#FFABB3"/>
<path d="M98.0555 137.444L96.0303 138.574L97.2998 139.288L99.325 138.158L98.0555 137.444Z" fill="#FFABB3"/>
<path d="M105.37 133.279L99.7784 136.462L101.048 137.176L106.64 133.993L105.37 133.279Z" fill="white"/>
<path d="M108.363 133.012L116.766 128.252L115.496 127.509L107.093 132.298L108.363 133.012Z" fill="white"/>
<path d="M118.489 127.271L121.814 125.367L120.544 124.653L117.219 126.557L118.489 127.271Z" fill="white"/>
<path d="M124.171 102.968L120.302 105.139L121.572 105.883L125.441 103.682L124.171 102.968Z" fill="white"/>
<path d="M120.363 110.494L126.62 106.954L125.32 106.21L119.093 109.75L120.363 110.494Z" fill="white"/>
<path d="M128.312 105.972L132.181 103.771L130.882 103.057L127.043 105.258L128.312 105.972Z" fill="#B8E51F"/>
<path d="M133.874 102.819L138.589 100.142L137.32 99.3981L132.605 102.075L133.874 102.819Z" fill="white"/>
<path d="M120.877 114.123L126.771 110.761L125.501 110.047L119.577 113.409L120.877 114.123Z" fill="white"/>
<path d="M128.494 109.809L132.333 107.608L131.063 106.894L127.224 109.066L128.494 109.809Z" fill="white"/>
<path d="M127.768 118.049L133.693 114.688L132.423 113.974L126.499 117.335L127.768 118.049Z" fill="white"/>
<path d="M140.977 110.553L148.957 106.032L147.688 105.318L139.708 109.839L140.977 110.553Z" fill="white"/>
<path d="M135.899 117.395L140.433 114.807L139.164 114.063L134.63 116.651L135.899 117.395Z" fill="white"/>
<path d="M95.849 150.473L93.2192 151.96L94.4888 152.674L97.1185 151.187L95.849 150.473Z" fill="#F25EB0"/>
<path d="M119.637 136.938L115.436 139.348L116.705 140.062L120.907 137.682L119.637 136.938Z" fill="#6256E6"/>
<path d="M131.154 131.852L134.932 129.68L133.663 128.966L129.884 131.138L131.154 131.852Z" fill="white"/>
<path d="M114.559 143.75L109.844 146.427L111.144 147.141L115.829 144.494L114.559 143.75Z" fill="#FFABB3"/>
<path d="M129.31 135.362L120.907 140.151L122.176 140.865L130.579 136.105L129.31 135.362Z" fill="white"/>
<path d="M132.302 135.124L135.658 133.22L134.388 132.506L131.033 134.41L132.302 135.124Z" fill="white"/>
<path d="M141.612 125.902L147.506 122.541L146.237 121.827L140.312 125.188L141.612 125.902Z" fill="white"/>
<path d="M152.977 121.916L146.751 125.486L148.02 126.2L154.247 122.66L152.977 121.916Z" fill="white"/>
<path d="M109.693 158.326L107.033 159.813L108.333 160.527L110.962 159.04L109.693 158.326Z" fill="#FFABB3"/>
<path d="M112.655 158.088L116.524 155.887L115.254 155.173L111.385 157.344L112.655 158.088Z" fill="#F25EB0"/>
<path d="M118.217 154.905L128.826 148.896L127.557 148.153L116.947 154.191L118.217 154.905Z" fill="#F25EB0"/>
<path d="M142.005 139.972L135.174 143.839L136.443 144.553L143.275 140.686L142.005 139.972Z" fill="#6256E6"/>
<path d="M121.965 155.262L118.126 157.463L119.396 158.177L123.265 155.976L121.965 155.262Z" fill="#F25EB0"/>
<path d="M131.396 151.365L134.297 149.7L133.028 148.986L130.096 150.651L131.396 151.365Z" fill="white"/>
<path d="M136.02 148.748L144.423 143.958L143.154 143.245L134.72 148.004L136.02 148.748Z" fill="white"/>
<path d="M151.194 140.121L160.141 135.005L158.872 134.291L149.924 139.377L151.194 140.121Z" fill="white"/>
<path d="M119.577 162.015L123.416 159.813L122.146 159.099L118.307 161.271L119.577 162.015Z" fill="#FFABB3"/>
<path d="M140.373 148.748L129.582 154.875L130.851 155.589L141.642 149.461L140.373 148.748Z" fill="white"/>
<path d="M148.897 143.899L142.096 147.766L143.365 148.48L150.166 144.613L148.897 143.899Z" fill="#B8E51F"/>
<path d="M154.428 140.746L150.62 142.917L151.889 143.631L155.698 141.489L154.428 140.746Z" fill="#B8E51F"/>
<path d="M160.655 138.663L159.385 137.95L156.121 139.794L157.421 140.508L160.655 138.663Z" fill="white"/>
<path d="M155.123 144.286L151.768 146.189L153.038 146.903L156.393 145L155.123 144.286Z" fill="white"/>
<path d="M159.96 150.83L163.315 148.956L162.045 148.212L158.69 150.116L159.96 150.83Z" fill="white"/>
<path d="M155.426 133.785L161.35 130.424L160.081 129.68L154.156 133.041L155.426 133.785Z" fill="white"/>
<path d="M163.073 129.442L166.912 127.241L165.642 126.527L161.804 128.728L163.073 129.442Z" fill="white"/>
<path d="M169.27 141.638L175.194 138.277L173.894 137.533L168 140.895L169.27 141.638Z" fill="white"/>
<path d="M68.1915 134.767L65.5618 136.254L66.8313 136.968L69.461 135.481L68.1915 134.767Z" fill="#F25EB0"/>
<path d="M110.993 110.434L107.728 112.278L108.998 113.022L112.262 111.178L110.993 110.434Z" fill="#6256E6"/>
<path d="M104.645 119.417L108 117.514L106.731 116.8L103.375 118.704L104.645 119.417Z" fill="white"/>
<path d="M89.3501 132.03L100.171 125.902L98.9018 125.159L88.0806 131.316L89.3501 132.03Z" fill="white"/>
<path d="M81.8539 138.782L75.9295 142.144L77.199 142.858L83.1235 139.496L81.8539 138.782Z" fill="#FFABB3"/>
<path d="M135.234 109.899L139.073 107.697L137.804 106.983L133.965 109.185L135.234 109.899Z" fill="white"/>
<path d="M144.726 110.91L140.887 113.111L142.156 113.825L145.995 111.624L144.726 110.91Z" fill="white"/>
<path d="M116.403 158.415L110.509 161.777L111.778 162.52L117.703 159.159L116.403 158.415Z" fill="#FFABB3"/>
<path d="M135.809 163.115L131.97 165.316L133.239 166.03L137.078 163.859L135.809 163.115Z" fill="#FFABB3"/>
<path d="M100.504 116.383L93.7028 120.28L94.9723 120.994L101.773 117.127L100.504 116.383Z" fill="#6256E6"/>
<path d="M89.1083 134.648L90.4081 135.362L95.0932 132.684L93.8237 131.971L89.1083 134.648Z" fill="#FFABB3"/>
<path d="M128.131 113.944L133.511 110.88L132.242 110.137L126.862 113.2L128.131 113.944Z" fill="white"/>
<path d="M98.8413 150.205L102.68 148.034L101.411 147.29L97.5416 149.491L98.8413 150.205Z" fill="#F25EB0"/>
<path d="M135.385 127.985L136.655 128.728L139.889 126.884L138.62 126.14L135.385 127.985Z" fill="white"/>
<path d="M102.589 150.562L96.665 153.923L97.9346 154.637L103.859 151.276L102.589 150.562Z" fill="#FFABB3"/>
<path d="M117.552 143.512L120.453 141.846L119.184 141.132L116.282 142.798L117.552 143.512Z" fill="white"/>
<path d="M137.35 132.238L146.327 127.152L145.058 126.438L136.081 131.524L137.35 132.238Z" fill="white"/>
<path d="M149.229 121.589L153.068 119.388L151.799 118.674L147.96 120.845L149.229 121.589Z" fill="white"/>
<path d="M141.219 153.626L139.95 152.912L137.018 154.578L138.287 155.292L141.219 153.626Z" fill="white"/>
<path d="M126.499 165.941L130.338 163.74L129.068 163.026L125.229 165.197L126.499 165.941Z" fill="#FFABB3"/>
<path d="M155.819 147.825L149.018 151.692L150.287 152.406L157.088 148.539L155.819 147.825Z" fill="white"/>
<path d="M130.247 166.268L124.322 169.63L125.592 170.373L131.516 167.012L130.247 166.268Z" fill="#FFABB3"/>
<path d="M146.841 156.839L141.249 160.022L142.519 160.765L148.141 157.582L146.841 156.839Z" fill="white"/>
<path d="M162.348 137.712L168.272 134.35L167.003 133.607L161.078 136.968L162.348 137.712Z" fill="white"/>
<path d="M86.0857 124.593L75.4761 130.632L76.7457 131.346L87.3552 125.307L86.0857 124.593Z" fill="#FFABB3"/>
<path d="M88.6248 127.062L89.8943 127.806L92.8263 126.14L91.5567 125.426L88.6248 127.062Z" fill="#FFABB3"/>
<path d="M114.65 116.205L115.919 116.949L119.184 115.104L117.884 114.361L114.65 116.205Z" fill="white"/>
<path d="M108.786 128.847L115.617 124.98L114.348 124.236L107.516 128.133L108.786 128.847Z" fill="white"/>
<path d="M94.3376 139.556L90.4686 141.727L91.7381 142.471L95.6071 140.27L94.3376 139.556Z" fill="#FFABB3"/>
<path d="M128.403 151.603L123.688 154.28L124.957 155.024L129.673 152.347L128.403 151.603Z" fill="#FFABB3"/>
<path d="M148.202 140.359L144.877 142.263L146.146 142.977L149.471 141.073L148.202 140.359Z" fill="#B8E51F"/>
<path d="M116.584 162.253L113.955 163.74L115.224 164.484L117.854 162.966L116.584 162.253Z" fill="#FFABB3"/>
<path d="M166.307 141.876L163.043 143.72L164.312 144.434L167.577 142.59L166.307 141.876Z" fill="white"/>
<path d="M106.035 113.26L102.227 115.432L103.496 116.145L107.305 113.974L106.035 113.26Z" fill="#6256E6"/>
<path d="M110.418 120.072L114.227 117.9L112.927 117.187L109.149 119.358L110.418 120.072Z" fill="white"/>
<path d="M117.31 123.998L121.118 121.827L119.849 121.113L116.04 123.285L117.31 123.998Z" fill="white"/>
<path d="M118.61 106.121L112.685 109.482L113.955 110.196L119.879 106.835L118.61 106.121Z" fill="white"/>
<path d="M134.055 106.626L140.222 103.146L138.952 102.402L132.786 105.913L134.055 106.626Z" fill="#B8E51F"/>
<path d="M135.416 113.736L139.254 111.535L137.985 110.821L134.146 112.992L135.416 113.736Z" fill="white"/>
<path d="M146.448 109.928L147.718 110.672L150.348 109.155L149.078 108.441L146.448 109.928Z" fill="white"/>
<path d="M104.403 147.052L114.982 141.043L113.713 140.3L103.134 146.338L104.403 147.052Z" fill="#FFABB3"/>
<path d="M108.151 147.409L104.282 149.58L105.582 150.324L109.421 148.123L108.151 147.409Z" fill="#FFABB3"/>
<path d="M149.229 135.867L150.499 136.581L153.733 134.737L152.464 134.023L149.229 135.867Z" fill="white"/>
<path d="M161.35 144.672L157.542 146.844L158.811 147.558L162.62 145.416L161.35 144.672Z" fill="white"/>
<path d="M149.834 156.601L158.267 151.811L156.967 151.098L148.564 155.857L149.834 156.601Z" fill="white"/>
<path d="M165.008 147.974L175.678 141.906L174.408 141.192L163.738 147.26L165.008 147.974Z" fill="white"/>
<path d="M123.537 124.385L134.207 118.347L132.937 117.633L122.267 123.671L123.537 124.385Z" fill="white"/>
<path d="M140.796 106.746L146.962 103.235L145.693 102.521L139.527 106.002L140.796 106.746Z" fill="white"/>
<path d="M122.63 136.7L129.431 132.833L128.161 132.09L121.33 135.986L122.63 136.7Z" fill="#6256E6"/>
<path d="M133.451 144.821L129.28 147.201L130.549 147.915L134.751 145.535L133.451 144.821Z" fill="#6256E6"/>
<path d="M144.967 139.705L148.776 137.563L147.506 136.819L143.698 138.991L144.967 139.705Z" fill="white"/>
<path d="M125.139 158.832L129.129 156.571L127.859 155.857L123.869 158.118L125.139 158.832Z" fill="#FFABB3"/>
<path d="M150.076 147.171L141.642 151.93L142.912 152.674L151.345 147.885L150.076 147.171Z" fill="white"/>
<path d="M123.506 166.179L120.877 167.666L122.146 168.41L124.776 166.893L123.506 166.179Z" fill="#FFABB3"/>
<path d="M132.061 162.758L142.851 156.63L148.564 153.388L147.295 152.674L141.582 155.917L130.791 162.044L132.061 162.758Z" fill="white"/>
<path d="M139.527 161.003L137.532 162.163L138.801 162.877L140.826 161.717L139.527 161.003Z" fill="#FFABB3"/>
<path d="M166.821 129.799L160.564 133.339L161.834 134.053L168.091 130.513L166.821 129.799Z" fill="white"/>
<g style="mix-blend-mode:multiply" opacity="0.6">
<path d="M155.668 138.128C160.987 135.094 160.957 130.126 155.607 127.092L107.154 99.5469L59.0025 127.092C53.6826 130.156 53.7129 135.094 59.063 138.128L107.516 165.673L155.668 138.128Z" fill="#514A53"/>
</g>
<path d="M55.0126 71.0199V79.5869C54.9824 81.6097 56.3426 83.6027 59.0328 85.1495L119.184 119.328C124.564 122.392 133.209 122.392 138.559 119.328L198.317 85.1495C200.947 83.6324 202.277 81.6692 202.307 79.6761V71.1091L55.0429 71.0199H55.0126Z" fill="url(#paint3_linear_64_41804)"/>
<g style="mix-blend-mode:screen" opacity="0.2">
<path d="M202.307 71.1091V79.6761C202.307 81.6692 200.947 83.6324 198.317 85.1495V76.5825C200.977 75.0654 202.307 73.1022 202.307 71.1091ZM55.0429 71.0199V79.5869C55.0126 81.6097 56.3728 83.6027 59.063 85.1495V76.5825C56.4031 75.0654 55.0429 73.0427 55.0429 71.0199ZM119.214 110.761V119.328C124.564 122.392 133.209 122.392 138.559 119.328V110.761C133.239 113.825 124.594 113.825 119.214 110.761Z" fill="#E9E6E6"/>
</g>
<path d="M198.257 65.5466L138.106 31.3678C132.756 28.3336 124.05 28.3336 118.731 31.3678L58.9723 65.5466C53.6524 68.6104 53.6827 73.5484 59.0328 76.5825L119.184 110.761C124.564 113.825 133.209 113.825 138.559 110.761L198.317 76.5825C203.637 73.5484 203.607 68.5807 198.257 65.5466Z" fill="#FFF7F5"/>
<g style="mix-blend-mode:multiply" opacity="0.5">
<path d="M6.31738 193.04L9.76323 191.88C10.6398 192.178 11.5768 192.386 12.5441 192.535L13.602 194.736H18.136L19.1637 192.535C20.1008 192.386 21.0378 192.178 21.9144 191.88L25.3904 193.01L28.5945 191.196L26.5995 189.233C27.1134 188.727 27.4761 188.192 27.7179 187.656L31.5869 187.061V184.473L27.6877 183.878C27.4156 183.343 27.0227 182.807 26.539 182.302L28.5642 180.338L25.33 178.494L21.8841 179.654C21.0076 179.357 20.0705 179.149 19.1335 179L18.0756 176.799H13.5416L12.5139 179C11.5768 179.149 10.6398 179.357 9.76323 179.654L6.28716 178.494L3.08313 180.309L5.10832 182.302C4.62469 182.807 4.23174 183.343 3.98993 183.878L0.120911 184.473V187.061L4.02016 187.656C4.2922 188.192 4.65492 188.727 5.16877 189.233L3.17381 191.196L6.40806 193.04H6.31738Z" fill="#279693"/>
</g>
<g style="mix-blend-mode:multiply" opacity="0.5">
<path d="M28.7153 219.842L29.5617 221.656H33.4307L34.2771 219.842C35.4257 219.782 36.5441 219.634 37.6927 219.455L39.7179 220.942L43.2846 220.08L42.8312 218.236C43.7682 217.938 44.7053 217.581 45.5818 217.165L48.4534 218.117L51.1738 216.57L49.5113 214.934C50.2368 214.398 50.8715 213.863 51.4458 213.298L54.6801 213.536L56.131 211.483L53.5315 210.353C53.8035 209.728 54.0151 209.133 54.1662 208.479L57.34 208.003V205.801L54.136 205.326C53.9849 204.671 53.7733 204.017 53.4408 203.362L56.0403 202.202L54.5289 200.179L51.2645 200.417C50.7204 199.882 50.0856 199.346 49.3904 198.841L51.0227 197.205L48.272 195.658L45.4307 196.61C44.4937 196.193 43.5264 195.836 42.5289 195.509L42.9521 193.665L39.3551 192.832L37.3904 194.319C36.3022 194.171 35.2443 194.022 34.1259 193.962L33.2493 192.148H29.3803L28.5642 193.962C27.4156 194.052 26.267 194.171 25.1486 194.349L23.1536 192.862L19.5869 193.695L20.0403 195.569C19.073 195.866 18.1662 196.223 17.2897 196.61L14.4483 195.688L11.7279 197.234L13.3904 198.841C12.665 199.376 12.0302 199.912 11.4861 200.507L8.22164 200.269L6.77076 202.321L9.40048 203.452C9.09822 204.046 8.88663 204.671 8.76572 205.296L5.59192 205.772V207.973L8.79595 208.449C8.94708 209.103 9.15867 209.758 9.46094 210.382L6.86144 211.513L8.37278 213.565L11.607 213.298C12.1511 213.833 12.7859 214.368 13.4811 214.874L11.8488 216.481L14.5995 218.027L17.4408 217.105C18.3778 217.522 19.3451 217.879 20.3425 218.206L19.9194 220.08L23.4861 220.913L25.4509 219.425C26.539 219.574 27.597 219.723 28.7153 219.782V219.842Z" fill="#279693"/>
</g>
<path d="M28.5038 165.644L28.4735 174.211L26.4786 176.174V167.607L28.5038 165.644Z" fill="#EFEBF0"/>
<path d="M5.04785 167.637L5.01762 176.174L2.99243 174.211L3.02266 165.644L5.04785 167.637Z" fill="#D6D1DB"/>
<path d="M0.0604391 172.366L0.0302124 180.933V178.345V169.778L0.0604391 172.366Z" fill="#D6D1DB"/>
<path d="M31.5567 172.366L31.5264 180.933L27.6574 181.499L27.6876 172.961L31.5567 172.366Z" fill="#EFEBF0"/>
<path d="M3.92946 172.961V181.499L0.0302124 180.933L0.0604391 172.366L3.92946 172.961Z" fill="#EFEBF0"/>
<path d="M27.6877 172.961V181.528C27.4156 182.064 27.0227 182.599 26.5391 183.105V174.538C27.0529 174.032 27.4459 173.497 27.6877 172.961Z" fill="#DAD6DF"/>
<path d="M5.07807 174.538V183.105C4.53399 182.599 4.17127 182.064 3.89923 181.528V172.961C4.17127 173.497 4.56422 174.032 5.07807 174.538Z" fill="#DAD6DF"/>
<path d="M25.3602 178.345L25.33 186.883L21.8539 185.752L21.8841 177.185L25.3602 178.345Z" fill="#D6D1DB"/>
<path d="M21.8841 177.185V185.752C20.9773 186.02 20.0705 186.258 19.1033 186.407V177.84C20.0705 177.691 21.0076 177.483 21.8841 177.185Z" fill="#DAD6DF"/>
<path d="M12.5441 177.84V186.407C11.5466 186.258 10.6398 186.05 9.73297 185.752V177.185C10.6398 177.483 11.5768 177.691 12.5441 177.84Z" fill="#DAD6DF"/>
<path d="M28.5642 176.501L28.534 185.068L25.33 186.883L25.3602 178.345L28.5642 176.501Z" fill="#EFEBF0"/>
<path d="M9.76324 177.185L9.73301 185.752L6.28717 186.883L6.3174 178.345L9.76324 177.185Z" fill="#EFEBF0"/>
<path d="M6.31739 178.345L6.28716 186.883L3.08313 185.068V176.501L6.31739 178.345Z" fill="#D6D1DB"/>
<path d="M19.1335 177.84L19.1033 186.407L18.1058 188.608V180.041L19.1335 177.84Z" fill="#EFEBF0"/>
<path d="M28.5038 165.644L26.4786 167.607C26.9924 168.113 27.3552 168.648 27.6272 169.183L31.4962 169.778V172.366L27.6574 172.961C27.4156 173.497 27.0227 174.032 26.539 174.538L28.534 176.501L25.33 178.316L21.8539 177.185C20.9773 177.453 20.0403 177.691 19.1033 177.84L18.0756 180.041H13.5416L12.4836 177.84C11.5164 177.691 10.5793 177.483 9.70277 177.185L6.25693 178.345L3.02267 176.501L5.01763 174.538C4.50378 174.032 4.14106 173.497 3.86902 172.961L0 172.366V169.778L3.83879 169.183C4.08061 168.648 4.47355 168.113 4.95718 167.607L2.93199 165.614L6.13602 163.799L9.61209 164.959C10.4887 164.662 11.4257 164.454 12.3627 164.305L13.3904 162.104H17.9244L18.9824 164.305C19.9194 164.454 20.8564 164.662 21.733 164.959L25.1788 163.799L28.4131 165.644H28.5038Z" fill="#FFF7F5"/>
<path d="M13.5718 180.041V188.608L12.5139 186.407L12.5441 177.84L13.5718 180.041Z" fill="#D6D1DB"/>
<path d="M18.1058 180.041V188.608H13.5718V180.041H18.1058Z" fill="#D6D1DB"/>
<path d="M42.9219 178.97V187.537L42.4987 189.381L42.5289 180.844L42.9219 178.97Z" fill="#D6D1DB"/>
<path d="M20.0101 180.874V189.441L19.5264 187.567L19.5567 179.03L20.0101 180.874Z" fill="#D6D1DB"/>
<path d="M50.9924 182.54V191.107L49.33 192.743L49.3602 184.176L50.9924 182.54Z" fill="#EFEBF0"/>
<path d="M13.3602 184.176L13.3299 192.743L11.6675 191.107L11.6977 182.569L13.3602 184.176Z" fill="#D6D1DB"/>
<path d="M55.9799 187.537V196.074L53.3804 197.234V188.667L55.9799 187.537Z" fill="#EFEBF0"/>
<path d="M9.34006 188.757L9.30984 197.324L6.68011 196.193L6.71034 187.626L9.34006 188.757Z" fill="#D6D1DB"/>
<path d="M5.53151 193.308L5.50128 201.845V199.674L5.53151 191.107V193.308Z" fill="#D6D1DB"/>
<path d="M57.2796 193.308L57.2494 201.845L54.0756 202.351L54.1058 193.784L57.2796 193.308Z" fill="#EFEBF0"/>
<path d="M8.73554 193.784L8.70531 202.351L5.50128 201.845L5.53151 193.308L8.73554 193.784Z" fill="#D6D1DB"/>
<path d="M54.1058 193.784V202.351C53.9546 202.976 53.7431 203.6 53.4408 204.225V195.658C53.7431 195.033 53.9546 194.438 54.1058 193.784Z" fill="#DAD6DF"/>
<path d="M9.40048 195.717V204.284C9.06798 203.66 8.82617 203.005 8.70526 202.351V193.784C8.85639 194.438 9.09821 195.093 9.40048 195.717Z" fill="#DAD6DF"/>
<path d="M55.7078 196.372L55.6776 204.909V202.321V193.784L55.7078 196.372Z" fill="#D6D1DB"/>
<path d="M56.0705 196.788V205.325L54.6196 207.378V198.811L56.0705 196.788Z" fill="#EFEBF0"/>
<path d="M54.6196 198.811V207.378L51.3552 207.14L51.3854 198.573L54.6196 198.811Z" fill="#D6D1DB"/>
<path d="M8.34259 198.9L8.31236 207.467L6.80103 205.415L6.83125 196.877L8.34259 198.9Z" fill="#D6D1DB"/>
<path d="M11.5768 198.662L11.5466 207.229L8.31232 207.467L8.34254 198.9L11.5768 198.662Z" fill="#E4E0E7"/>
<path d="M51.3854 198.573V207.14C50.7809 207.705 50.1461 208.27 49.4207 208.776V200.209C50.1763 199.674 50.8111 199.138 51.3854 198.573Z" fill="#DAD6DF"/>
<path d="M13.4509 200.239V208.806C12.7255 208.3 12.0907 207.765 11.5466 207.229V198.662C12.1209 199.198 12.7557 199.733 13.4509 200.239Z" fill="#DAD6DF"/>
<path d="M48.393 203.422L48.3627 211.959L45.5214 211.037L45.5517 202.47L48.393 203.422Z" fill="#D6D1DB"/>
<path d="M51.1134 201.845L51.0831 210.412L48.3627 211.959L48.393 203.422L51.1134 201.845Z" fill="#EFEBF0"/>
<path d="M14.539 203.392L14.5088 211.959L11.7884 210.412L11.8186 201.845L14.539 203.392Z" fill="#D6D1DB"/>
<path d="M17.3803 202.47L17.3501 211.037L14.5088 211.959L14.539 203.392L17.3803 202.47Z" fill="#EFEBF0"/>
<path d="M45.5516 202.47V211.037C44.6448 211.424 43.738 211.781 42.7708 212.108V203.541C43.738 203.243 44.675 202.886 45.5516 202.47Z" fill="#DAD6DF"/>
<path d="M20.2821 203.57V212.137C19.2544 211.81 18.2871 211.453 17.3501 211.037V202.47C18.3174 202.886 19.2846 203.243 20.2821 203.57Z" fill="#DAD6DF"/>
<path d="M37.6624 204.76V213.327C36.5138 213.506 35.3954 213.625 34.2468 213.714V205.147C35.4257 205.088 36.5441 204.939 37.6624 204.76Z" fill="#DAD6DF"/>
<path d="M28.7154 205.147V213.714C27.5668 213.625 26.4786 213.506 25.4207 213.357V204.79C26.5088 204.939 27.597 205.087 28.7154 205.147Z" fill="#DAD6DF"/>
<path d="M39.6877 206.248L39.6575 214.785L37.6323 213.298L37.6625 204.76L39.6877 206.248Z" fill="#D6D1DB"/>
<path d="M43.2544 205.385L43.2242 213.922L39.6574 214.785L39.6876 206.248L43.2544 205.385Z" fill="#E4E0E7"/>
<path d="M23.4559 206.248L23.4257 214.815L19.8589 213.982L19.8892 205.444L23.4559 206.248Z" fill="#D6D1DB"/>
<path d="M25.4207 204.76L25.3905 213.327L23.4257 214.815L23.4559 206.248L25.4207 204.76Z" fill="#EFEBF0"/>
<path d="M34.2469 205.117V213.684L33.4005 215.499V206.962L34.2469 205.117Z" fill="#EFEBF0"/>
<path d="M33.4005 206.962V215.499H29.5315L29.5617 206.962H33.4005Z" fill="#D6D1DB"/>
<path d="M50.9925 182.54L49.3602 184.176C50.0554 184.681 50.6902 185.217 51.2343 185.752L54.4988 185.514L56.0101 187.537L53.4106 188.697C53.7129 189.352 53.9547 189.976 54.1058 190.66L57.2796 191.136V193.338L54.1058 193.814C53.9849 194.438 53.7733 195.063 53.471 195.688L56.0705 196.818L54.6197 198.871L51.3854 198.633C50.8111 199.198 50.1763 199.763 49.4509 200.269L51.1134 201.905L48.393 203.451L45.5214 202.5C44.6448 202.886 43.7078 203.243 42.7708 203.57L43.2242 205.415L39.6574 206.277L37.6323 204.79C36.5139 204.969 35.3653 205.088 34.2166 205.177L33.3703 206.991H29.5013L28.6549 205.177C27.5365 205.088 26.4484 204.969 25.3904 204.82L23.4257 206.307L19.859 205.474L20.2821 203.6C19.2846 203.273 18.3174 202.916 17.3804 202.5L14.5391 203.422L11.7884 201.875L13.4207 200.269C12.7254 199.763 12.0907 199.227 11.5466 198.692L8.31235 198.96L6.80102 196.907L9.40051 195.777C9.09824 195.152 8.85643 194.498 8.73552 193.843L5.53149 193.367V191.166L8.7053 190.69C8.8262 190.066 9.03779 189.441 9.34006 188.846L6.71034 187.716L8.16122 185.663L11.4257 185.901C12 185.336 12.6348 184.771 13.33 184.235L11.6675 182.629L14.3879 181.082L17.2292 182.004C18.1058 181.618 19.0428 181.261 19.9799 180.963L19.5265 179.089L23.0932 178.256L25.0882 179.743C26.2066 179.565 27.3552 179.446 28.5038 179.357L29.3501 177.542H33.2192L34.0957 179.357C35.1839 179.416 36.2721 179.565 37.3602 179.714L39.3249 178.226L42.9219 179.059L42.4988 180.904C43.4962 181.231 44.4635 181.588 45.4005 182.004L48.2418 181.052L50.9925 182.599V182.54Z" fill="#FFF7F5"/>
<path d="M29.5617 206.962L29.5315 215.499L28.6851 213.684L28.7153 205.147L29.5617 206.962Z" fill="#D6D1DB"/>
<path d="M34.0957 208.687L34.0655 217.254V214.963L34.0957 206.426V208.687Z" fill="#D6D1DB"/>
<path d="M35.6977 189.471C33.6725 188.31 30.408 188.31 28.3828 189.471C26.3577 190.631 26.3577 192.475 28.3828 193.635C30.408 194.795 33.6725 194.795 35.6977 193.635C37.7229 192.475 37.7229 190.631 35.6977 189.471Z" fill="#D6D1DB"/>
<path d="M18.3476 169.54C17.0176 168.797 14.8715 168.797 13.5415 169.54C12.2116 170.284 12.2116 171.504 13.5415 172.277C14.8715 173.051 17.0176 173.021 18.3476 172.277C19.6776 171.533 19.6776 170.314 18.3476 169.54Z" fill="#D6D1DB"/>
<g style="mix-blend-mode:multiply" opacity="0.5">
<path d="M175.98 249.588L180.242 248.934V246.108L175.95 245.454C175.678 244.859 175.254 244.264 174.71 243.728L176.887 241.557L173.35 239.564L169.542 240.813C168.574 240.486 167.547 240.248 166.489 240.099L165.37 237.69H160.383L159.234 240.099C158.176 240.278 157.179 240.516 156.212 240.813L152.403 239.534L148.866 241.557L151.103 243.728C150.559 244.294 150.136 244.859 149.834 245.454L145.602 246.108V248.934L149.864 249.588C150.166 250.183 150.589 250.749 151.133 251.314L148.927 253.485L152.463 255.478L156.272 254.229C157.239 254.526 158.237 254.764 159.295 254.943L160.443 257.352H165.431L166.549 254.943C167.607 254.794 168.635 254.556 169.602 254.229L173.411 255.478L176.947 253.455L174.741 251.284C175.285 250.719 175.708 250.154 175.98 249.559V249.588Z" fill="#279693"/>
</g>
<path d="M176.887 225.404L176.856 234.834L174.68 236.976L174.71 227.576L176.887 225.404Z" fill="#EFEBF0"/>
<path d="M151.134 227.576V236.976L148.897 234.834L148.927 225.404L151.134 227.576Z" fill="#D6D1DB"/>
<path d="M145.662 232.811L145.632 242.211V239.356L145.662 229.956V232.811Z" fill="#D6D1DB"/>
<path d="M180.242 232.811L180.212 242.211L175.95 242.836L175.98 233.436L180.242 232.811Z" fill="#EFEBF0"/>
<path d="M149.924 233.436L149.894 242.836L145.632 242.211L145.662 232.811L149.924 233.436Z" fill="#D6D1DB"/>
<path d="M175.98 233.436V242.836C175.678 243.431 175.254 244.026 174.71 244.561V235.161C175.285 234.596 175.708 234.031 175.98 233.436Z" fill="#DAD6DF"/>
<path d="M151.194 235.161V244.561C150.62 243.996 150.196 243.431 149.894 242.836V233.436C150.227 234.031 150.65 234.596 151.194 235.161Z" fill="#DAD6DF"/>
<path d="M169.632 238.106V247.506C168.635 247.833 167.637 248.071 166.579 248.22V238.82C167.668 238.671 168.665 238.433 169.632 238.106Z" fill="#DAD6DF"/>
<path d="M159.355 238.82V248.22C158.297 248.042 157.27 247.804 156.302 247.506V238.106C157.3 238.404 158.297 238.642 159.355 238.82Z" fill="#DAD6DF"/>
<path d="M173.441 239.356L173.411 248.755L169.632 247.506V238.106L173.441 239.356Z" fill="#D6D1DB"/>
<path d="M176.977 237.333L176.947 246.733L173.411 248.755L173.441 239.356L176.977 237.333Z" fill="#EFEBF0"/>
<path d="M152.524 239.356L152.494 248.755L148.957 246.762L148.987 237.363L152.524 239.356Z" fill="#D6D1DB"/>
<path d="M156.332 238.106L156.302 247.506L152.494 248.755L152.524 239.356L156.332 238.106Z" fill="#EFEBF0"/>
<path d="M166.61 238.82L166.579 248.22L165.461 250.629L165.491 241.23L166.61 238.82Z" fill="#E4E0E7"/>
<path d="M160.534 241.23L160.504 250.629L159.325 248.22L159.355 238.82L160.534 241.23Z" fill="#D6D1DB"/>
<path d="M165.491 241.23L165.461 250.63H160.504L160.534 241.23H165.491Z" fill="#D6D1DB"/>
<path d="M176.887 225.404L174.71 227.576C175.254 228.111 175.678 228.706 175.95 229.301L180.212 229.956V232.782L175.98 233.436C175.708 234.031 175.285 234.626 174.741 235.161L176.947 237.333L173.411 239.356L169.602 238.106C168.635 238.433 167.607 238.671 166.549 238.82L165.431 241.23H160.443L159.295 238.82C158.237 238.642 157.239 238.404 156.272 238.106L152.464 239.356L148.927 237.363L151.134 235.191C150.59 234.626 150.166 234.061 149.864 233.466L145.632 232.811V229.985L149.834 229.331C150.136 228.736 150.529 228.171 151.103 227.606L148.867 225.434L152.403 223.411L156.212 224.691C157.179 224.363 158.207 224.125 159.234 223.977L160.383 221.567H165.37L166.489 223.977C167.547 224.125 168.574 224.363 169.542 224.691L173.35 223.441L176.887 225.434V225.404Z" fill="#FFF7F5"/>
<path d="M166.156 229.658C164.705 228.825 162.348 228.825 160.897 229.658C159.446 230.491 159.446 231.83 160.897 232.663C162.348 233.496 164.705 233.496 166.156 232.663C167.607 231.83 167.607 230.491 166.156 229.658Z" fill="#D6D1DB"/>
<path opacity="0.5" d="M155.607 87.2912C160.927 84.2571 160.897 79.2894 155.547 76.2552L97.7229 43.415L59.0025 65.5465C53.6826 68.6104 53.7129 73.5483 59.063 76.5824L116.887 109.423L155.607 87.2912Z" fill="#ADA4B8"/>
<path d="M198.257 36.4544L138.106 2.27561C132.756 -0.758537 124.05 -0.758537 118.731 2.27561L58.9723 36.4544C53.6524 39.5183 53.6827 44.4562 59.0328 47.4904L119.184 81.6692C124.564 84.733 133.209 84.733 138.559 81.6692L198.317 47.4904C203.637 44.4562 203.607 39.4885 198.257 36.4544Z" fill="#FF76B4"/>
<path d="M100.171 44.3967L95.2746 47.1632C94.7003 47.4904 94.6096 47.8473 94.9421 48.234L111.204 64.0889C111.567 64.4756 111.99 64.5351 112.413 64.2674L115.95 62.2744C116.191 62.1257 116.312 62.0067 116.312 61.8877C116.312 61.7687 116.191 61.5902 115.95 61.4117L112.927 58.5263L120.091 54.451L125.169 56.1763C125.501 56.3251 125.773 56.3846 125.985 56.3846C126.197 56.3846 126.438 56.3251 126.71 56.1763L130.247 54.1833C130.7 53.9454 130.579 53.7074 129.914 53.4992L102.015 44.248C101.38 44.0398 100.746 44.0993 100.141 44.4265L100.171 44.3967ZM110.086 55.8789L102.106 48.353L102.257 48.2638L115.526 52.7852L110.086 55.8789ZM120.091 33.093L111.113 38.1797C110.6 38.4772 110.6 38.7746 111.113 39.0423L133.179 51.5954C133.693 51.8928 134.207 51.8928 134.72 51.5954L137.834 49.8106C138.348 49.5131 138.348 49.2157 137.834 48.9479L130.882 44.9916C130.61 44.8429 130.61 44.6644 130.912 44.5157L135.537 41.898C137.441 40.8271 138.408 39.667 138.408 38.4772C138.408 37.2873 137.471 36.1569 135.567 35.0563L132.03 33.0633C130.126 31.9924 128.131 31.4272 126.015 31.457C123.93 31.457 121.935 32.0221 120 33.093H120.091ZM130.761 37.6145C131.516 38.0607 131.909 38.4474 131.909 38.8044C131.909 39.1613 131.547 39.5778 130.761 40.024L126.862 42.2252C126.589 42.374 126.317 42.374 126.045 42.2252L119.486 38.4772C119.214 38.3284 119.214 38.1797 119.486 38.0309L123.385 35.8297C124.171 35.3835 124.897 35.1753 125.532 35.1753C126.166 35.1753 126.892 35.4133 127.678 35.8595L130.761 37.6145ZM145.572 20.3913C143.486 20.3913 141.491 20.9564 139.557 22.0273L130.579 27.114C130.066 27.4114 130.066 27.7089 130.579 27.9766L152.645 40.5297C153.159 40.8271 153.673 40.8271 154.186 40.5297L157.3 38.7449C157.814 38.4474 157.814 38.1499 157.3 37.8822L150.348 33.9259C150.076 33.7772 150.076 33.5987 150.378 33.45L155.003 30.8323C156.907 29.7614 157.874 28.6013 157.874 27.4114C157.874 26.2216 156.937 25.0912 155.033 23.9906L151.496 21.9976C149.592 20.9267 147.597 20.3615 145.481 20.3913H145.572ZM150.227 26.5488C150.982 26.995 151.375 27.3817 151.375 27.7386C151.375 28.0956 151.013 28.5121 150.227 28.9583L146.328 31.1595C146.055 31.3082 145.783 31.3082 145.511 31.1595L138.952 27.4114C138.68 27.2627 138.68 27.114 138.952 26.9652L142.851 24.764C143.637 24.3178 144.363 24.1096 144.998 24.1096C145.632 24.1096 146.358 24.3475 147.144 24.7937L150.227 26.5488Z" fill="white"/>
<path d="M199.375 206.724L197.29 206.248L192.877 187.656L194.962 188.132L199.375 206.724Z" fill="#BDB6C6"/>
<path d="M194.358 185.604L192.272 185.157L188.705 170.135L190.791 170.611L194.358 185.604Z" fill="#BDB6C6"/>
<path d="M179.003 194.349L176.887 193.873L192.272 185.157L194.358 185.604L179.003 194.349Z" fill="#E9E6E6"/>
<path d="M190.186 168.083L188.101 167.637L184.534 152.615L186.62 153.061L190.186 168.083Z" fill="#BDB6C6"/>
<path d="M174.831 176.828L172.746 176.352L188.101 167.637L190.186 168.083L174.831 176.828Z" fill="#E9E6E6"/>
<path d="M186.045 150.532L183.96 150.086L180.393 135.094L182.479 135.54L186.045 150.532Z" fill="#BDB6C6"/>
<path d="M170.66 159.278L168.574 158.832L183.96 150.086L186.045 150.532L170.66 159.278Z" fill="#E9E6E6"/>
<path d="M181.874 133.012L179.788 132.565L176.222 117.573L178.307 118.019L181.874 133.012Z" fill="#BDB6C6"/>
<path d="M166.489 141.757L164.403 141.311L179.788 132.565L181.874 133.012L166.489 141.757Z" fill="#E9E6E6"/>
<path d="M177.703 115.521L175.617 115.045L172.05 100.023L174.136 100.499L177.703 115.521Z" fill="#BDB6C6"/>
<path d="M173.562 97.9702L171.446 97.4942L168.997 87.1127L171.083 87.5886L173.562 97.9702Z" fill="#BDB6C6"/>
<path d="M171.083 87.5887L168.997 87.1127L171.113 85.9229L173.199 86.369L171.083 87.5887Z" fill="#E9E6E6"/>
<path d="M162.348 124.236L160.262 123.79L175.617 115.045L177.703 115.521L162.348 124.236Z" fill="#E9E6E6"/>
<path d="M158.176 106.686L156.091 106.24L171.446 97.4943L173.562 97.9702L158.176 106.686Z" fill="#E9E6E6"/>
<path d="M153.612 97.524L151.526 97.048L153.612 95.8582L155.698 96.3043L153.612 97.524Z" fill="#E9E6E6"/>
<path d="M181.904 216.659L179.819 216.183L151.526 97.0481L153.612 97.524L181.904 216.659Z" fill="#BDB6C6"/>
<path d="M171.083 87.5886L173.199 86.369L201.491 205.504L199.375 206.724L194.962 188.132L179.577 196.877L183.99 215.469L181.874 216.659L153.582 97.524L155.698 96.3341L158.176 106.716L173.562 97.9702L171.083 87.5886ZM190.186 168.083L186.62 153.061L171.234 161.806L174.801 176.828L190.186 168.083ZM177.703 115.491L174.136 100.469L158.751 109.214L162.317 124.236L177.703 115.491ZM194.358 185.604L190.791 170.611L175.406 179.357L178.972 194.349L194.358 185.604ZM181.874 133.012L178.307 118.019L162.922 126.765L166.489 141.757L181.874 133.012ZM186.045 150.532L182.479 135.54L167.093 144.286L170.66 159.278L186.045 150.532Z" fill="#FFF7F5"/>
<g style="mix-blend-mode:multiply" opacity="0.5">
<path d="M87.2343 230.134C82.7607 229.956 78.2569 230.223 73.8438 230.908C73.995 232.068 74.6902 233.109 75.7179 233.733L75.8388 235.667C75.8388 235.667 60.6045 234.001 58.0353 233.168C52.8967 231.502 45.6121 221.746 85.9345 223.917C87.2343 225.702 87.7179 228.022 87.2645 230.164L87.2343 230.134Z" fill="#279693"/>
</g>
<path d="M93.4006 197.116C93.4006 196.253 93.9446 195.39 93.6424 194.528C93.461 193.962 93.2192 193.338 92.6449 193.159C92.1008 192.951 91.3754 193.278 90.922 192.892C90.7104 192.743 90.529 192.267 90.3477 192.029C89.8338 191.345 89.32 190.631 88.8061 189.917C88.2922 189.203 87.7784 188.489 87.2645 187.775C87.0832 187.507 86.5996 187.031 86.5391 186.704C86.5391 186.526 85.6021 178.524 84.8162 177.334L82.8817 177.78C81.3401 178.643 80.9169 180.398 81.3099 182.094C81.8237 184.265 82.4887 186.883 82.6399 187.359C84.0001 190.244 86.8716 192.029 88.7759 194.409C89.2595 195.033 89.1386 195.688 89.32 196.402C89.3804 196.669 89.5618 196.937 89.5618 197.205C89.5618 197.443 89.4711 197.651 89.7129 197.859C89.864 198.008 90.1058 198.038 90.3174 197.978C90.3779 197.978 90.4383 197.919 90.4988 197.919C90.5895 197.919 90.6499 197.948 90.7104 198.008C91.0126 198.157 91.4056 198.186 91.6474 197.948C91.9497 197.948 92.0706 197.948 92.1915 197.948C92.3728 197.948 92.5844 197.948 92.7658 197.889C92.9472 197.859 93.189 197.919 93.3401 197.8C93.4912 197.651 93.461 197.354 93.461 197.175L93.4006 197.116Z" fill="#FCBE9F"/>
<path d="M86.6297 183.997C86.6902 182.064 86.3879 175.014 83.1234 175.43C82.2469 175.549 81.1587 175.639 79.9799 176.471C77.1386 178.464 80.6751 181.618 81.8237 184.711C82.2166 186.228 86.7204 185.782 86.6297 183.997Z" fill="white"/>
<path d="M91.1033 228.379C87.6575 228.796 83.3653 226.684 82.126 225.97C82.126 226.237 82.126 226.505 82.126 226.773C82.1864 227.308 82.2469 227.546 82.9119 227.903C86.2066 229.688 86.66 229.926 87.2645 230.194C87.9295 230.491 88.7759 230.848 90.4685 230.283C91.3149 229.866 91.3753 229.509 91.3149 229.182C91.3149 229.004 91.3149 228.558 91.0731 228.379H91.1033Z" fill="#3B3CAA"/>
<path d="M90.922 228.082C90.1058 227.487 88.1109 226.297 87.1134 225.494C86.8414 225.285 86.1764 224.661 86.0252 224.334C85.6021 223.501 83.6373 223.59 82.5794 224.215C82.0655 224.512 82.0353 225.375 82.126 226.178C82.1864 226.713 82.2469 226.951 82.9119 227.308C86.2066 229.093 86.932 229.42 87.5668 229.658C88.1411 229.866 88.7759 230.075 90.0152 229.747C90.4383 229.628 90.8313 229.42 91.1335 229.093C91.3754 228.796 91.4963 228.439 90.9824 228.082H90.922Z" fill="white"/>
<path d="M72.2116 235.161C72.3023 236.232 72.4837 237.184 72.9371 237.481C74.1159 238.255 76.7154 238.314 77.2292 236.797C77.3199 236.53 77.1386 235.637 76.8665 234.596C75.7179 235.518 73.4811 235.667 72.2116 235.132V235.161Z" fill="#3B3CAA"/>
<path d="M72.8162 236.738C73.995 237.511 76.5945 237.571 77.1083 236.054C77.3502 235.34 75.9597 230.997 75.7481 229.747C75.6877 229.39 75.5668 228.736 75.5668 228.736C75.4459 228.617 74.9623 228.587 74.8111 228.528C74.1461 228.32 73.058 228.706 72.3628 228.766C72 228.766 72.0303 231.116 72.0303 231.354C72.0303 232.782 71.9094 236.113 72.8162 236.708V236.738Z" fill="white"/>
<path d="M85.6927 196.759C85.5114 195.747 85.5114 194.795 84.5744 194.617C83.6373 194.438 76.6852 195.182 75.2645 195.301C74.8111 195.331 73.2393 195.777 72.7859 196.402C72.0605 197.353 71.6676 199.852 71.4257 201.012C71.0933 202.708 71.1235 204.493 71.8791 211.781C71.8791 211.989 71.8791 212.227 71.9094 212.435C71.9698 213.982 71.8791 215.499 71.5467 217.016C71.3048 218.057 71.063 219.693 71.1537 221.508C71.2142 223.084 71.8187 229.361 71.8187 229.361C72.0303 231.027 76.1109 230.64 76.0807 229.152C76.0807 229.152 76.7759 221.091 77.1386 218.89C77.32 217.76 77.5315 216.718 77.592 216.332C77.864 215.172 79.5567 205.772 79.5567 205.772L80.7658 210.977C80.9472 211.721 81.0076 212.494 80.9774 213.268C80.9774 213.357 80.9774 213.446 80.9774 213.536C80.8867 215.35 81.0378 217.165 81.4006 218.979C81.4912 219.515 81.5819 220.05 81.6424 220.764C81.7028 221.656 81.9749 224.244 82.0353 224.72C82.126 226.237 86.5693 225.94 86.5089 224.601C86.388 221.061 86.3275 218.265 86.3275 216.243C86.3275 214.844 86.3275 211.602 86.3275 210.799C86.6298 204.344 86.1159 198.99 85.723 196.818L85.6927 196.759Z" fill="#3B3CAA"/>
<path d="M69.5517 180.428C68.3426 182.837 70.7003 185.604 71.5466 187.894C73.0277 191.91 72.8766 194.736 72.6046 197.086C72.6046 197.324 72.665 197.591 72.8464 197.77C73.6625 198.573 76.1713 200.239 81.1285 199.109C84.0605 198.454 85.7532 196.669 85.4207 195.271C84.5441 191.523 84 190.66 84.5743 185.693C85.0277 181.707 85.2393 180.398 84.2419 176.858C84 175.966 83.9094 175.579 83.0328 175.103C81.9749 174.538 70.8817 177.84 69.5517 180.457V180.428Z" fill="white"/>
<path d="M81.0681 180.368C80.8262 180.785 80.4333 181.052 79.9497 181.171C79.0731 181.38 78.1663 181.32 77.4106 180.874C76.3829 180.249 75.4761 179.059 75.6575 177.453C75.6575 177.275 75.7482 177.126 75.8691 177.007C76.4434 176.442 77.1084 175.49 77.5013 173.586C77.6222 172.991 78.3174 172.723 78.8313 173.11C80.4937 174.389 81.7633 176.888 81.7633 177.959C81.7633 178.405 81.5517 179.624 81.0983 180.428L81.0681 180.368Z" fill="#F2A883"/>
<path d="M83.6373 170.73C82.8514 169.392 81.7632 168.797 80.1915 168.708C79.7683 168.708 79.0731 169.064 78.6801 169.183C77.199 169.719 76.927 172.128 76.8665 173.497C76.7758 175.222 76.8665 177.096 78.0151 178.464C80.2217 181.082 82.7607 181.38 83.063 179.743C83.063 179.595 83.0932 179.416 83.2444 179.357C83.3048 179.357 83.3653 179.357 83.3955 179.327C83.6373 179.268 83.6978 178.94 83.728 178.702C83.728 178.464 83.728 178.256 83.6675 178.018C83.6675 177.84 83.6071 177.661 83.6373 177.512C83.6978 177.126 84 176.858 84.2116 176.531C84.6952 175.757 84.6348 174.538 84.5743 173.675C84.4836 172.664 84.2116 171.652 83.6675 170.76L83.6373 170.73Z" fill="#FBBD9E"/>
<path d="M81.2494 179.535C80.4938 179.387 79.4056 178.673 79.2545 178.226C79.1336 177.869 79.194 176.709 79.0731 176.709C78.8011 176.709 78.3477 176.709 78.4383 176.947C78.5593 177.423 78.5592 177.78 78.4988 177.899C78.3174 178.256 77.8338 177.988 77.5618 177.78C77.7129 178.137 78.1361 178.673 78.5895 179.149C79.1336 179.773 79.7985 180.309 80.5542 180.666C80.8867 180.814 81.189 180.933 81.5215 180.963C82.1562 181.023 82.791 180.725 83.063 180.16C83.1839 179.922 83.2746 179.654 83.2746 179.357C83.0026 179.476 82.7003 179.476 82.4887 179.506C82.126 179.565 81.8237 179.654 81.3099 179.565L81.2494 179.535Z" fill="#AC8979"/>
<path d="M83.9396 169.897C82.3678 168.202 80.131 168.023 78.5895 168.946C74.66 169.868 74.7204 174.33 77.0479 177.215C76.8061 176.442 77.8338 176.025 77.9849 176.263C78.4081 176.977 78.4988 177.513 78.9219 177.542C79.2544 177.542 79.0428 176.918 80.0101 176.531C80.1915 176.471 83.063 176.442 84.393 175.341C84.4837 175.252 84.5743 175.133 84.6046 175.014C84.8464 174.389 85.8439 171.98 83.9094 169.868L83.9396 169.897Z" fill="#2A1A2F"/>
<path d="M77.6222 175.817C76.8968 175.192 75.5063 176.085 77.5315 177.81C77.7431 177.989 78.0151 178.167 78.2872 178.018C78.9219 177.721 78.0151 176.174 77.592 175.817H77.6222Z" fill="#FBBD9E"/>
<path d="M80.4031 197.948C79.6474 197.681 78.8615 197.413 78.1058 197.115C77.9245 197.056 77.7431 196.967 77.5618 196.848C74.9925 195.241 72.9371 193.219 72.9371 193.219C72.9371 193.219 73.0278 188.459 72.6953 187.15C72.2419 187.24 69.0983 188.162 68.0706 187.597C67.6776 190.482 68.4031 194.409 68.9169 195.003C70.2167 196.491 73.058 197.502 76.6852 199.138C77.592 199.436 78.1663 200.239 78.9824 200.715C79.8892 201.22 79.859 200.715 80.7356 200.715C80.8565 200.715 81.0076 200.715 81.1285 200.715C81.6424 200.596 81.9144 199.644 82.4887 200.179C82.7608 200.447 83.4257 201.102 83.7885 200.953C84.121 200.834 83.7885 200.536 83.6676 200.388C81.7633 198.097 82.3074 198.633 80.3728 197.978L80.4031 197.948Z" fill="#FCBE9F"/>
<path d="M69.8539 179.952C67.5567 182.837 67.466 188.548 67.6776 189.768C67.8287 190.869 73.0882 191.255 73.1789 190.066C73.1789 190.066 74.4786 185.276 74.5693 183.938C74.9018 179.952 70.8514 178.851 69.8237 179.952H69.8539Z" fill="white"/>
<path d="M96.2418 195.093L96.0303 194.706L87.6877 197.264L87.8993 197.651C87.8993 197.651 87.9899 197.74 88.0806 197.71L93.3401 197.621C93.5819 197.621 93.9144 197.472 94.126 197.264L96.1209 195.331C96.1209 195.331 96.2721 195.123 96.2418 195.063V195.093Z" fill="white"/>
<path d="M95.9395 194.944L93.9445 196.878C93.7631 197.056 93.4004 197.205 93.1586 197.235L87.8992 197.324C87.6573 197.324 87.6271 197.175 87.8085 196.997L89.8034 195.063C89.9848 194.885 90.3475 194.706 90.5893 194.706L95.8488 194.617C96.0906 194.617 96.1208 194.766 95.9395 194.944Z" fill="#30307A"/>
<path d="M94.3375 195.39C94.3375 195.39 94.1864 195.152 94.0957 195.033C93.7632 194.647 93.4912 194.2 93.3098 193.754L91.0731 194.141C91.5567 194.23 92.1008 194.349 92.4333 194.706C92.7355 195.004 92.8564 195.42 93.1889 195.688C93.4005 195.866 93.7028 195.955 93.9748 195.955C94.0957 195.955 94.2166 195.926 94.3073 195.807C94.398 195.688 94.398 195.539 94.3375 195.39Z" fill="#FCBE9F"/>
<g style="mix-blend-mode:multiply" opacity="0.5">
<path d="M256.564 196.015C207.839 196.015 219.537 186.823 230.237 186.08C233.169 185.871 240.605 185.247 240.605 185.247C240.846 186.318 239.97 189.5 239.97 189.5C239.97 189.5 257.108 191.256 257.259 191.196C257.834 190.988 256.564 195.985 256.564 195.985V196.015Z" fill="#279693"/>
</g>
<path d="M234.62 189.143C235.194 188.667 236.282 187.805 237.37 187.24C238.035 187.299 238.73 187.329 239.426 187.299C240.877 187.24 242.569 187.061 243.809 186.228C243.809 186.496 243.809 186.793 243.809 187.061C243.778 187.626 243.718 187.864 243.053 188.251C239.698 190.274 239.244 190.542 238.64 190.839C237.945 191.166 237.128 191.583 235.315 191.077C234.408 190.69 234.348 190.304 234.378 189.976C234.378 189.798 234.378 189.322 234.589 189.143H234.62Z" fill="white"/>
<path d="M234.801 188.816C235.617 188.162 237.642 186.823 238.64 185.961C238.912 185.723 239.577 185.068 239.728 184.711C240.121 183.819 242.176 183.849 243.295 184.414C243.839 184.681 243.929 185.604 243.869 186.436C243.839 187.002 243.778 187.24 243.113 187.626C239.758 189.649 239.033 190.006 238.428 190.274C237.824 190.542 237.189 190.779 235.889 190.482C235.436 190.393 235.013 190.185 234.71 189.857C234.438 189.56 234.317 189.203 234.801 188.816Z" fill="#3B3CAA"/>
<path d="M260.343 195.807C259.254 196.759 256.594 197.205 255.839 195.747C255.476 195.063 256.353 190.393 256.383 189.054C256.383 188.668 256.383 187.983 256.383 187.983C256.474 187.864 256.897 187.745 257.048 187.686C257.683 187.359 258.861 187.626 259.587 187.567C259.95 187.567 260.312 189.947 260.343 190.185C260.554 191.642 261.189 195.063 260.343 195.807Z" fill="white"/>
<path d="M260.373 195.004C259.284 195.955 256.624 196.402 255.869 194.944C255.506 194.26 256.292 189.59 256.292 188.251C256.292 187.864 256.292 187.18 256.292 187.18C256.383 187.061 256.896 186.942 257.048 186.853C257.682 186.526 258.861 186.794 259.587 186.734C259.949 186.734 260.312 189.114 260.342 189.352C260.554 190.809 261.189 194.23 260.342 194.974L260.373 195.004Z" fill="#3B3CAA"/>
<path d="M239.063 175.579C239.305 174.24 239.395 173.646 239.395 172.009C239.395 165.822 240.06 160.587 240.514 157.91C240.756 156.541 241.269 155.232 242.116 154.102C242.327 153.805 242.539 153.537 242.781 153.358L254.509 155.589C256.353 160.022 257.018 165.346 257.531 170.195C257.622 171.177 257.834 172.158 258.196 173.08C259.073 175.401 259.829 175.43 260.01 180.398C260.101 182.807 260.101 184.8 260.222 187.18C260.403 188.281 256.353 188.757 256.141 187.478C255.99 186.556 255.234 184.354 254.932 183.462C254.086 180.993 253.934 180.19 253.481 177.84C253.209 176.382 253.058 175.609 252.181 174.032C250.156 170.492 249.098 168.232 247.587 164.037C246.71 166.953 245.894 169.927 245.048 172.604C244.594 174.032 244.715 174.24 244.866 175.579C245.259 178.732 244.383 180.666 244.02 184.533C243.899 185.782 239.577 186.139 239.486 184.295C239.335 181.052 238.61 178.286 239.123 175.52L239.063 175.579Z" fill="#2A1A2F"/>
<path d="M244.02 132.357C242.358 133.25 238.005 141.876 238.005 141.876C238.005 141.876 231.809 145.803 231.053 146.189C229.753 146.844 230.72 149.819 232.05 149.491C232.353 149.402 240.665 145.951 241.269 145.267C242.569 143.78 246.529 138.931 246.529 138.931C245.229 137.741 245.501 133.488 244.02 132.387V132.357Z" fill="#3B3CAA"/>
<path d="M224.01 148.391C224.01 148.391 224.131 148.391 224.161 148.361C224.463 148.301 224.766 148.242 225.068 148.182C225.461 148.093 225.824 148.004 226.217 147.915C226.217 147.915 227.516 147.141 227.607 146.993C227.728 146.903 227.819 146.874 227.909 146.814C228.302 146.636 228.544 146.665 228.907 146.308C229.33 146.517 230.025 146.755 230.418 146.784C231.234 146.487 232.474 148.688 231.355 149.105C230.176 149.581 230.207 149.521 229.269 149.938C228.725 150.176 225.824 150.77 225.37 150.384C225.31 150.324 225.249 150.235 225.189 150.205C224.826 150.116 224.735 150.057 224.524 149.789C223.98 149.789 223.919 149.462 223.889 149.372C223.859 149.283 223.889 149.134 223.98 149.105C223.859 149.045 223.708 149.015 223.617 148.896C223.436 148.629 223.678 148.48 223.919 148.42L224.01 148.391Z" fill="#FCBE9F"/>
<path d="M226.428 145.922C227.123 146.1 228.091 145.743 228.635 146.1C228.816 146.219 228.997 146.338 229.179 146.427L227.788 147.052C227.788 147.052 227.395 146.963 227.093 146.933C226.307 146.844 225.703 146.427 225.733 146.1C225.733 145.892 225.884 145.803 226.398 145.951L226.428 145.922Z" fill="#FCBE9F"/>
<path d="M257.683 139.169C257.773 140.657 257.078 142.828 256.413 144.167C255.537 145.922 254.599 147.707 254.207 149.64C253.904 151.127 255.023 155.203 255.204 157.463C255.446 160.914 240.212 159.903 240.816 156.541C241.39 153.418 242.176 150.83 242.176 149.253C242.176 147.379 242.176 143.542 242.781 135.153C242.872 133.785 243.718 131.792 245.259 131.941C248.071 132.209 257.713 137.414 257.713 139.169H257.683Z" fill="#3B3CAA"/>
<path d="M245.32 136.76C245.441 135.451 245.743 134.321 246.348 133.755C246.861 133.25 250.126 133.993 250.64 134.261C252.212 135.064 252.725 135.51 252.937 136.165C253.179 136.879 252.997 137.652 252.574 138.247C250.67 140.984 247.224 145.594 245.018 148.658C244.957 147.617 245.018 139.972 245.32 136.789V136.76Z" fill="white"/>
<path d="M251.728 134.648L252.363 135.391C252.605 135.808 252.665 136.373 252.484 136.819C251.577 139.11 249.34 139.705 249.34 139.705L248.191 137.622V136.76L251.728 134.648Z" fill="#E8E3E7"/>
<path d="M248.675 133.131L249.219 133.785C249.461 134.202 249.521 134.767 249.34 135.213C248.947 136.224 248.554 137.146 247.768 137.265C247.194 137.355 245.713 137.652 245.713 137.652C245.864 137.117 247.164 134.915 248.645 133.101L248.675 133.131Z" fill="#E8E3E7"/>
<path d="M247.496 133.25C249.31 133.25 251.275 132.655 252.907 132.149C252.212 133.279 252.181 134.856 252.121 135.57C252.03 136.492 251.365 138.098 249.431 137.86C248.917 137.801 248.766 137.503 248.433 137.355L247.768 138.307L247.678 136.968C247.013 136.76 246.62 136.135 246.801 135.629C247.043 134.945 247.345 133.964 247.466 133.25H247.496Z" fill="#F1A782"/>
<path d="M249.4 139.229L248.463 137.355C250.277 137.86 252.151 136.789 252.181 134.856L252.393 135.421C252.544 135.808 252.544 136.254 252.393 136.67C251.939 137.771 251.063 138.872 249.4 139.229Z" fill="white"/>
<path d="M247.133 134.945C247.133 134.945 246.982 136.284 247.708 136.998L245.864 137.295C245.864 137.295 246.529 135.838 247.133 134.945Z" fill="white"/>
<path d="M247.526 128.163C247.798 127.628 248.191 127.122 248.796 127.062C249.733 126.973 251.758 127.062 253.693 130.007C253.965 130.424 253.995 130.959 254.055 131.465C254.146 132.03 253.995 132.298 253.693 132.714C253.118 133.547 253.028 133.993 250.972 134.737C249.219 135.362 247.164 135.511 246.741 135.481C246.166 135.481 245.713 135.273 245.35 134.945C245.018 134.618 244.806 133.993 245.229 133.012C245.562 132.238 246.499 130.097 247.526 128.163Z" fill="#FCBE9F"/>
<path d="M251.547 132.417C251.275 132.595 250.67 132.417 250.851 131.703C251.093 130.87 250.458 130.305 249.945 130.007C249.068 129.502 248.403 128.907 247.95 128.223C247.859 128.074 247.798 127.925 247.768 127.776C247.768 127.776 247.647 127.271 248.373 126.616C248.766 126.259 250.368 124.95 252.453 125.486C253.451 125.754 254.327 126.319 255.023 127.033C257.683 129.829 254.418 133.279 253.572 133.785C252.967 134.142 251.97 134.529 251.456 134.618C251.97 134.112 253.39 133.309 252.967 132.566C252.816 132.268 252.514 132.119 252.181 132.149C251.94 132.179 251.758 132.298 251.547 132.447V132.417Z" fill="#3B3CAA"/>
<path d="M238.065 145.357V149.848L237.008 150.889V146.398L238.065 145.357Z" fill="#EFEBF0"/>
<path d="M225.733 146.398L225.703 150.889L224.645 149.848V145.357L225.733 146.398Z" fill="#D6D1DB"/>
<path d="M223.103 148.896V153.388L223.073 152.02L223.103 147.528V148.896Z" fill="#D6D1DB"/>
<path d="M239.668 148.896V153.388L237.612 153.686L237.642 149.194L239.668 148.896Z" fill="#EFEBF0"/>
<path d="M225.128 149.194V153.686L223.103 153.388V148.896L225.128 149.194Z" fill="#D6D1DB"/>
<path d="M237.642 149.194V153.686C237.491 153.983 237.31 154.251 237.038 154.518V150.027C237.31 149.759 237.521 149.491 237.642 149.194Z" fill="#DAD6DF"/>
<path d="M225.763 150.027V154.518C225.491 154.251 225.28 153.983 225.128 153.686V149.194C225.28 149.491 225.491 149.759 225.763 150.027Z" fill="#DAD6DF"/>
<path d="M234.589 151.425V155.917C234.106 156.065 233.622 156.184 233.108 156.274V151.782C233.622 151.693 234.106 151.603 234.589 151.455V151.425Z" fill="#DAD6DF"/>
<path d="M229.663 151.752V156.244C229.149 156.155 228.665 156.036 228.212 155.887V151.395C228.695 151.544 229.179 151.663 229.663 151.722V151.752Z" fill="#DAD6DF"/>
<path d="M236.403 152.02V156.541L234.589 155.917V151.425L236.403 152.02Z" fill="#D6D1DB"/>
<path d="M238.096 151.068V155.56L236.403 156.541V152.02L238.096 151.068Z" fill="#EFEBF0"/>
<path d="M226.398 152.02L226.368 156.541L224.675 155.56L224.705 151.068L226.398 152.02Z" fill="#D6D1DB"/>
<path d="M228.212 151.425V155.917L226.368 156.541L226.398 152.02L228.212 151.425Z" fill="#EFEBF0"/>
<path d="M233.139 151.752L233.108 156.274L232.594 157.434V152.912L233.139 151.752Z" fill="#E4E0E7"/>
<path d="M230.207 152.912V157.434L229.662 156.274V151.752L230.207 152.912Z" fill="#D6D1DB"/>
<path d="M232.594 152.912V157.434H230.207V152.912H232.594Z" fill="#D6D1DB"/>
<path d="M238.066 145.357L237.008 146.398C237.28 146.665 237.461 146.933 237.612 147.231L239.668 147.528V148.896L237.643 149.194C237.522 149.491 237.31 149.759 237.038 150.027L238.096 151.068L236.403 152.02L234.59 151.425C234.136 151.574 233.653 151.693 233.139 151.752L232.595 152.912H230.207L229.663 151.752C229.149 151.663 228.665 151.544 228.212 151.425L226.398 152.02L224.706 151.068L225.763 150.027C225.491 149.759 225.31 149.491 225.159 149.194L223.134 148.896V147.528L225.159 147.231C225.31 146.933 225.491 146.665 225.763 146.398L224.706 145.357L226.398 144.405L228.212 145C228.665 144.851 229.149 144.732 229.663 144.643L230.207 143.483H232.595L233.139 144.643C233.653 144.732 234.136 144.821 234.59 145L236.403 144.405L238.096 145.357H238.066Z" fill="#FFF7F5"/>
<path d="M232.927 147.379C232.232 146.993 231.083 146.993 230.388 147.379C229.693 147.766 229.693 148.421 230.388 148.807C231.083 149.194 232.232 149.194 232.927 148.807C233.622 148.421 233.622 147.766 232.927 147.379Z" fill="#D6D1DB"/>
<path d="M241.602 152.615C242.358 152.407 248.917 147.974 249.733 147.707C249.733 147.498 249.975 147.141 250.066 146.963C251.728 143.274 254.327 135.957 257.501 138.515C259.315 139.972 257.713 142.917 256.927 144.494C256.02 146.249 253.632 150.116 252.756 150.83C252.544 151.008 242.751 155.887 242.509 155.946C241.179 156.244 240.363 152.972 241.632 152.615H241.602Z" fill="#3B3CAA"/>
<path d="M234.408 154.667C234.408 154.667 234.529 154.667 234.559 154.667C234.861 154.638 235.164 154.578 235.466 154.519C235.859 154.459 236.252 154.37 236.615 154.281C236.615 154.281 237.914 153.567 238.035 153.388C238.247 153.12 238.186 152.793 237.733 152.407C237.189 151.96 236.977 151.336 237.159 151.098C237.28 150.949 237.431 150.979 237.733 151.306C238.307 151.96 238.67 152.109 239.275 152.288C239.819 152.436 240.574 152.942 240.816 153.15C240.816 153.15 240.967 153.269 241.118 153.18C241.753 152.972 242.358 155.441 241.723 155.589C240.514 156.006 240.574 155.976 239.637 156.363C239.093 156.571 236.161 157.077 235.738 156.66C235.678 156.601 235.647 156.512 235.557 156.482C235.194 156.393 235.103 156.303 234.892 156.065C234.378 156.036 234.317 155.708 234.257 155.619C234.227 155.53 234.257 155.381 234.348 155.351C234.227 155.292 234.076 155.232 234.015 155.114C233.834 154.816 234.106 154.697 234.348 154.638L234.408 154.667Z" fill="#FCBE9F"/>
<path d="M202.217 146.041C202.217 146.041 202.277 145.803 202.307 145.713C198.771 145.029 192.03 144.405 192.03 144.405C192.03 144.405 187.738 140.716 186.015 138.931C184.383 137.236 183.174 135.213 181.542 133.517C181.39 133.369 181.209 133.19 181.028 133.071C180.484 132.744 179.788 132.803 179.214 132.595C179.003 132.506 178.821 132.387 178.61 132.387C178.398 132.387 178.126 132.506 178.126 132.714C177.945 132.714 177.793 132.655 177.642 132.625C177.491 132.625 177.28 132.655 177.219 132.803C177.159 132.922 177.219 133.101 177.34 133.19C177.461 133.279 177.582 133.339 177.733 133.398C177.612 133.517 177.673 133.696 177.793 133.815C177.975 134.053 178.277 134.231 178.519 134.41C179.395 135.005 180.121 135.838 180.605 136.789C180.665 136.879 180.695 136.998 180.665 137.087C180.635 137.176 180.544 137.206 180.453 137.206C180.212 137.206 180 137.117 179.819 136.938C179.637 136.789 179.486 136.611 179.305 136.432C179.214 136.373 179.123 136.313 179.033 136.284C178.942 136.284 178.821 136.314 178.761 136.403C178.761 136.462 178.761 136.551 178.761 136.641C178.972 137.325 179.486 137.89 180.121 138.188C180.786 138.515 181.542 138.604 182.237 138.872C183.355 139.348 184.111 140.389 184.806 141.4C186.166 143.363 190.126 147.885 192 148.777C193.662 149.551 199.224 151.336 201.884 151.901C202.005 149.937 202.126 147.974 202.307 145.981L202.217 146.041Z" fill="#FABC9D"/>
<path d="M191.94 188.162C191.607 186.823 190.821 185.812 189.945 185.306L187.013 185.603C185.562 187.359 182.841 187.299 180.907 188.281C179.184 189.143 180.574 191.464 183.234 191.196C185.078 190.988 189.34 190.541 190.851 190.214C192.272 189.917 192.121 188.816 191.97 188.162H191.94Z" fill="white"/>
<path d="M191.879 187.418C191.547 186.079 190.791 185.068 189.884 184.562L186.952 184.86C185.501 186.615 182.781 186.555 180.846 187.537C179.123 188.4 180.514 190.72 183.174 190.452C185.018 190.244 189.28 189.798 190.791 189.471C192.212 189.173 192.06 188.072 191.879 187.418Z" fill="#3B3CAA"/>
<path d="M209.562 201.607C209.622 202.321 207.023 204.284 206.297 205.177C206.116 205.415 206.237 205.801 206.358 206.069C206.902 207.2 210.68 205.534 213.854 204.552C214.217 204.433 214.579 204.314 214.882 204.076C215.305 203.749 215.486 203.332 215.335 202.797C215.003 201.667 214.64 202.113 214.217 201.488C213.884 200.953 213.854 200.417 213.34 200.031C212.887 199.674 209.471 200.685 209.532 201.577L209.562 201.607Z" fill="white"/>
<path d="M209.199 200.864C209.259 201.577 207.295 203.63 206.569 204.522C206.388 204.76 206.237 205.058 206.358 205.325C206.902 206.456 210.317 204.79 213.491 203.808C213.854 203.689 214.217 203.57 214.519 203.332C214.942 203.005 215.214 202.678 215.063 202.172C214.972 201.815 214.579 201.577 214.338 201.339C214.066 201.042 213.793 200.715 213.612 200.358C213.431 199.941 213.34 199.584 212.977 199.287C212.524 198.93 209.108 199.941 209.169 200.834L209.199 200.864Z" fill="#3B3CAA"/>
<path d="M210.196 187.835C209.713 186.526 208.746 185.604 208.141 184.384C207.597 183.283 207.023 180.071 206.992 179.892C206.086 176.412 203.637 166.596 201.219 163.829C200.977 163.532 200.705 163.264 200.403 163.264C200.373 163.264 188.736 163.859 188.736 163.859C185.622 166.09 180.423 172.604 180.212 172.991C180.03 173.378 179.879 173.824 179.909 174.24C179.909 174.746 180.121 175.222 180.333 175.668C181.3 177.721 185.592 184.473 186.076 185.723C186.801 187.597 191.516 186.972 191.093 185.217C190.61 183.224 187.103 176.144 187.134 176.114C188.071 175.549 192.967 172.902 194.539 172.009C194.539 172.009 199.345 180.636 203.275 186.436C203.819 187.24 203.788 188.311 204.091 189.233C205.3 192.981 207.174 194.557 208.927 200.893C209.411 201.607 213.642 200.09 213.401 199.346C213.159 198.633 211.285 190.66 210.196 187.805V187.835Z" fill="#2A1A2F"/>
<path d="M193.572 148.688C190.882 150.413 188.675 152.823 189.28 155.917C189.884 158.951 188.222 163.651 188.131 164.097C187.285 167.726 202.61 167.399 201.249 163.294C200.403 160.765 200.766 157.969 201.854 156.601C208.655 147.825 204.937 145 200.705 145.624C197.471 146.1 196.413 146.933 193.602 148.718L193.572 148.688Z" fill="white"/>
<path d="M184.534 158.445C183.99 158.772 177.28 160.587 175.315 160.408C174.68 160.349 173.985 160.319 173.501 159.903C173.018 159.486 172.625 158.951 172.232 158.475C172.111 158.326 171.96 158.177 171.778 158.058C171.657 157.999 171.506 157.969 171.355 157.939C171.023 157.88 170.66 157.85 170.327 157.82C170.055 157.82 169.783 157.85 169.602 158.058C169.209 158.475 170.448 158.534 170.599 158.623C170.811 158.713 171.053 158.891 170.992 159.129C170.932 159.367 170.599 159.397 170.358 159.367C169.844 159.308 169.27 159.337 168.756 159.189C168.363 159.07 166.851 158.385 166.489 158.356C166.307 158.356 166.096 158.326 165.945 158.415C165.793 158.504 165.673 158.742 165.793 158.891C165.552 158.802 165.28 158.742 165.098 158.921C164.977 159.07 165.008 159.278 165.098 159.427C165.219 159.575 165.37 159.665 165.521 159.754C165.28 159.754 165.128 160.081 165.219 160.319C165.34 160.557 165.582 160.676 165.793 160.795C166.156 160.973 166.489 161.122 166.851 161.301C166.61 161.241 166.428 161.539 166.489 161.777C166.549 162.015 166.761 162.163 166.972 162.282C168.302 163.175 170.297 163.383 171.899 163.353C173.199 163.353 174.469 163.085 175.768 163.234C176.826 163.353 183.778 164.037 185.441 163.413C185.985 163.204 190.217 160.081 192.514 158.653C193.088 158.296 190.096 152.704 188.101 154.965C188.101 154.965 185.018 158.237 184.534 158.534V158.445Z" fill="#FABC9D"/>
<path d="M196.927 138.158C196.534 138.574 196.05 139.02 195.476 139.02C195.204 139.02 194.841 138.991 194.781 139.229C194.69 139.496 195.083 139.705 195.053 139.972C195.053 140.032 195.023 140.121 194.992 140.181C194.569 140.954 193.723 141.519 193.844 142.412C193.935 142.917 194.358 143.304 194.811 143.601C195.839 144.286 196.262 144.613 195.748 148.063C195.476 149.818 202.61 150.443 202.035 148.153C201.793 147.231 201.642 145.565 201.703 145.624C204.846 146.07 207.416 140.21 203.123 137.831C199.708 135.957 198.378 136.611 196.927 138.158Z" fill="#FABC9D"/>
<path d="M198.287 140.418C198.136 140.746 197.441 141.013 197.471 141.4C197.532 142.233 198.559 140.597 199.315 141.013C199.617 141.192 199.768 141.757 199.647 142.084C199.375 142.858 197.955 143.096 197.985 143.929C197.985 144.553 198.68 144.821 199.224 145.089C203.728 147.29 206.237 143.691 206.176 141.727C206.086 138.842 205.028 135.748 200.584 135.748C198.68 135.748 197.562 137.027 197.924 137.92C198.227 138.753 198.741 139.526 198.287 140.418Z" fill="#3B3CAA"/>
<path d="M191.154 150.503C190.126 151.454 186.438 156.035 186.136 156.392C184.957 157.701 188.736 161.866 190.247 160.676C193.058 158.475 195.144 156.987 196.443 154.697C197.471 152.882 194.539 148.242 191.184 150.503H191.154Z" fill="white"/>
<path d="M182.72 12.2408C181.179 12.0326 174.106 11.6459 174.106 11.6459C174.106 11.6459 167.728 4.65542 165.945 5.90477C164.282 7.06489 166.67 11.0212 165.945 12.3598C165.945 12.3598 170.146 15.0965 171.99 16.1376C172.866 16.6433 182.509 15.7509 182.811 15.6616C184.201 15.2452 183.688 12.3895 182.72 12.2705V12.2408Z" fill="white"/>
<g style="mix-blend-mode:multiply" opacity="0.4">
<path d="M160.655 55.5517C160.655 55.5517 145.39 55.4922 143.275 55.5517C120.181 56.3549 123.929 64.6541 134.539 65.3978C137.441 65.606 144.846 66.2307 144.846 66.2307C145.088 65.1598 146.237 60.6681 146.237 60.6681C146.237 60.6681 155.456 59.746 158.962 59.7162C159.627 59.7162 160.292 59.865 160.927 60.1327C161.078 60.1922 161.199 60.2517 161.35 60.3112C161.894 60.5194 163.164 60.8763 165.249 60.8763C166.277 60.8763 163.224 56.1764 160.625 55.5517H160.655Z" fill="#963C72"/>
</g>
<path d="M167.728 60.3112C167.154 59.8352 166.096 59.0023 165.007 58.4074C164.343 58.4669 163.678 58.4966 162.952 58.4669C161.531 58.4074 159.839 58.2289 158.599 57.396C158.599 57.6637 158.599 57.9612 158.599 58.2289C158.63 58.7941 158.69 59.0321 159.355 59.4188C162.68 61.4118 163.133 61.6795 163.738 61.977C164.433 62.3042 165.249 62.7206 167.033 62.2149C167.939 61.8282 168 61.4415 167.939 61.1143C167.939 60.9358 167.939 60.4896 167.728 60.2814V60.3112Z" fill="#3B3CAA"/>
<path d="M167.547 59.984C166.73 59.3295 164.735 58.0207 163.738 57.158C163.466 56.9201 162.831 56.2656 162.68 55.9384C162.287 55.0758 160.262 55.0758 159.144 55.641C158.599 55.9087 158.509 56.8011 158.569 57.634C158.599 58.1992 158.66 58.4371 159.325 58.8239C162.65 60.8169 163.375 61.1738 163.98 61.4416C164.584 61.6795 165.189 61.9175 166.489 61.6498C166.942 61.5605 167.365 61.3523 167.667 61.0251C167.939 60.7276 168.06 60.3707 167.577 59.984H167.547Z" fill="white"/>
<path d="M142.217 66.9148C143.275 67.8667 145.934 68.3129 146.69 66.8553C147.023 66.1712 146.176 61.5307 146.146 60.2219C146.146 59.8352 146.146 59.1807 146.146 59.1807C146.055 59.0617 145.662 58.9428 145.511 58.8833C144.877 58.5561 143.698 58.8238 142.972 58.7643C142.61 58.7643 142.277 61.1143 142.247 61.3522C142.035 62.8098 141.4 66.2009 142.247 66.9446L142.217 66.9148Z" fill="#3B3CAA"/>
<path d="M142.217 66.1415C143.275 67.0934 145.934 67.5396 146.69 66.082C147.023 65.3978 146.297 60.7871 146.267 59.4485C146.267 59.0618 146.267 58.4074 146.267 58.4074C146.176 58.2884 145.662 58.1694 145.511 58.0802C144.877 57.7827 143.698 58.0207 142.972 57.9612C142.61 57.9612 142.277 60.3112 142.247 60.5491C142.035 62.0067 141.4 65.3978 142.247 66.1415H142.217Z" fill="white"/>
<path d="M162.015 27.8577C161.773 26.4893 161.169 26.6976 160.353 25.5969C160.141 25.2995 159.929 25.0615 159.718 24.8533L148.111 27.0843C146.267 31.4868 145.723 37.8525 145.239 42.7012C145.149 43.6828 144.937 44.6347 144.574 45.5569C143.698 47.8771 142.942 47.9068 142.791 52.815C142.7 55.1947 142.579 56.0574 142.458 58.4371C142.307 59.5377 146.297 59.9839 146.509 58.7346C146.66 57.8124 153.159 39.905 154.67 35.7405C155.547 38.6557 156.363 40.7677 157.209 43.4449C157.662 44.8429 157.542 45.0512 157.39 46.3898C156.997 49.5132 158.176 52.0119 158.539 55.8492C158.66 57.0985 162.952 57.4555 163.043 55.6112C163.194 52.3986 162.499 30.5349 162.076 27.8874L162.015 27.8577Z" fill="#3B3CAA"/>
<path d="M163.436 31.5164C162.952 30.8323 158.932 23.4849 158.932 23.4849C158.751 23.4849 157.572 15.8103 157.572 15.8103C157.572 10.5154 151.526 11.3185 151.103 15.2748C151.043 15.8995 152.947 22.3545 155.154 25.5969C155.154 25.5969 160.262 33.5095 160.413 33.7177C161.29 34.8481 164.252 32.6766 163.436 31.5462V31.5164Z" fill="white"/>
<path d="M163.315 32.2006C164.07 33.2418 165.854 33.5987 166.579 36.1272C166.821 36.9601 168.665 39.1613 167.849 39.4588C167.637 39.548 167.426 39.3398 167.305 39.1316C165.854 37.1386 165.642 36.4246 164.977 37.2873C164.826 37.4955 164.705 37.6443 164.403 37.5848C164.191 37.555 164.07 37.436 163.889 37.555C163.738 37.674 163.496 37.674 163.164 37.4063C163.073 37.317 163.043 37.3468 162.922 37.3468C162.348 37.3765 162.076 36.8114 161.894 36.3057C161.773 35.9785 161.592 35.6512 161.592 35.2943C161.592 34.4316 161.471 34.4019 160.987 33.688C160.564 33.0038 162.861 31.5165 163.345 32.1709L163.315 32.2006Z" fill="#FCBE9F"/>
<path d="M154.821 10.694C153.37 11.4674 152.554 12.0623 151.496 14.1148C150.952 15.1559 150.559 16.2268 150.257 17.3572C150.257 17.3572 149.562 22.9793 149.38 23.5147C149.078 24.3179 148.141 26.4299 147.657 28.1552C146.599 32.052 162.106 32.8254 162.106 27.9172C162.106 25.8647 162.408 24.3476 162.378 22.4736C162.378 21.8489 162.62 21.254 163.073 20.8078C167.819 16.3458 168.121 15.1559 168.786 13.6389C170.509 9.71232 168.03 4.83389 164.373 5.99401C161.713 6.82691 157.179 9.44461 154.882 10.694H154.821Z" fill="white"/>
<path d="M164.131 13.4603C163.829 13.8173 163.406 14.0255 162.922 14.085C162.045 14.1743 161.139 13.966 160.474 13.4009C159.537 12.6274 158.872 11.3483 159.264 9.80152C159.295 9.62304 159.416 9.47431 159.536 9.38507C160.171 8.90913 160.987 8.07622 161.652 6.26168C161.864 5.6965 162.589 5.54776 163.013 5.99396C164.433 7.48129 165.31 10.1287 165.128 11.1699C165.068 11.5863 164.675 12.7464 164.101 13.4901L164.131 13.4603Z" fill="#F2A883"/>
<path d="M168.121 4.38764C167.547 2.95981 166.579 2.21614 165.068 1.88893C164.645 1.79969 163.919 2.06741 163.496 2.15665C161.955 2.45412 161.32 4.77435 161.048 6.11294C160.715 7.8085 160.504 9.65278 161.411 11.1401C163.194 14.0255 165.612 14.7097 166.156 13.1331C166.217 12.9844 166.247 12.8059 166.398 12.7762C166.458 12.7762 166.519 12.7762 166.549 12.7762C166.791 12.7464 166.912 12.449 166.972 12.211C167.002 12.0028 167.033 11.7648 167.033 11.5566C167.033 11.3781 167.033 11.1996 167.063 11.0509C167.154 10.6939 167.516 10.4559 167.758 10.1585C168.363 9.4743 168.484 8.28444 168.544 7.42179C168.605 6.4104 168.484 5.36927 168.121 4.44713V4.38764Z" fill="#FBBD9E"/>
<path d="M164.433 12.6869C163.708 12.4489 162.741 11.5566 162.68 11.1104C162.62 10.7534 162.861 9.62303 162.71 9.62303C162.438 9.62303 162.015 9.50404 162.045 9.77176C162.106 10.2477 162.045 10.6047 161.955 10.6939C161.713 11.0211 161.29 10.6939 161.048 10.4262C161.139 10.7831 161.471 11.3781 161.834 11.9135C162.287 12.5977 162.831 13.2224 163.526 13.6686C163.829 13.8768 164.101 14.0255 164.433 14.085C165.038 14.2337 165.703 14.0255 166.065 13.5198C166.217 13.3116 166.338 13.0439 166.398 12.7464C166.126 12.8059 165.824 12.7762 165.612 12.7464C165.249 12.7464 164.947 12.8059 164.433 12.6274V12.6869Z" fill="#AC8979"/>
<path d="M168.544 3.64398C167.275 1.7402 165.098 1.26426 163.436 1.91868C159.446 2.2459 158.811 6.61864 160.685 9.80152C160.564 9.02811 161.622 8.76039 161.743 9.02811C162.045 9.77177 162.045 10.337 162.469 10.4262C162.801 10.5154 162.68 9.83126 163.708 9.59329C163.889 9.56354 166.7 9.95025 168.181 9.0876C168.302 9.02811 168.393 8.90912 168.453 8.81988C168.786 8.2547 170.116 6.0237 168.574 3.70347L168.544 3.64398Z" fill="#3B3CAA"/>
<path d="M161.471 8.49271C160.866 7.7788 159.355 8.46297 161.078 10.4262C161.259 10.6345 161.501 10.8427 161.803 10.7237C162.468 10.5155 161.803 8.87942 161.471 8.46297V8.49271Z" fill="#FBBD9E"/>
<path d="M190.64 12.5382C190.73 12.211 190.428 12.1515 190.186 12.1515C190.126 12.1515 190.065 12.1515 190.005 12.1515C189.673 12.1813 189.34 12.2408 189.038 12.2408C188.615 12.2705 188.222 12.3003 187.798 12.33C187.798 12.33 186.257 11.973 186.076 11.8541C185.804 11.6458 185.773 11.2889 186.076 10.7832C186.499 10.1585 186.529 9.47433 186.257 9.29585C186.076 9.17687 185.955 9.23636 185.743 9.68256C185.35 10.4857 185.018 10.7832 184.474 11.1104C183.96 11.4376 183.355 12.1515 183.174 12.4192C183.174 12.4192 183.053 12.568 182.872 12.5382C182.176 12.5085 182.267 15.1857 182.962 15.1559C184.292 15.2452 184.262 15.2154 185.32 15.3344C185.955 15.3939 189.038 15.0964 189.37 14.561C189.4 14.4718 189.431 14.3825 189.491 14.323C189.824 14.1148 189.914 14.0256 190.035 13.6983C190.549 13.5199 190.519 13.1927 190.549 13.0737C190.549 12.9547 190.489 12.8357 190.368 12.8357C190.489 12.7465 190.61 12.6572 190.64 12.5085V12.5382Z" fill="#FCBE9F"/>
<defs>
<linearGradient id="paint0_linear_64_41804" x1="119.607" y1="195.955" x2="139.103" y2="195.955" gradientUnits="userSpaceOnUse">
<stop stop-color="#BDB6C6"/>
<stop offset="1" stop-color="#E9E6E6"/>
</linearGradient>
<linearGradient id="paint1_linear_64_41804" x1="0.0302548" y1="157.88" x2="3.05292" y2="157.88" gradientUnits="userSpaceOnUse">
<stop stop-color="#BDB6C6"/>
<stop offset="1" stop-color="#E9E6E6"/>
</linearGradient>
<linearGradient id="paint2_linear_64_41804" x1="56.1008" y1="114.628" x2="201.249" y2="114.628" gradientUnits="userSpaceOnUse">
<stop stop-color="#D8D4D3"/>
<stop offset="1" stop-color="#C5C1C0"/>
</linearGradient>
<linearGradient id="paint3_linear_64_41804" x1="0.0302755" y1="96.3342" x2="3.05295" y2="96.3342" gradientUnits="userSpaceOnUse">
<stop stop-color="#BDB6C6"/>
<stop offset="1" stop-color="#E9E6E6"/>
</linearGradient>
</defs>
</svg>
