<svg width="273" height="394" viewBox="0 0 273 394" fill="none" xmlns="http://www.w3.org/2000/svg">
<g clip-path="url(#clip0_64_1726)">
<path d="M-24.3758 251.159C-18.6497 224.008 -20.8765 195.178 -30.3776 168.409C-55.212 98.4388 -23.0291 40.886 -2.78629 26.4181C20.7438 9.6239 51.6966 6.85141 79.9878 14.6271C108.279 22.4028 134.11 39.8875 156.58 60.8563C174.14 77.2469 190.258 96.3993 199.409 119.312C208.348 141.704 210.119 166.242 211.328 190.217C212.876 221.055 213.671 252.423 206.461 281.805C200.597 305.759 186.09 330.36 163.197 332.453C143.685 334.227 124.482 318.877 105.013 321.023C77.7504 324.019 64.2516 358.351 39.3006 369.696C10.2035 382.931 -21.8521 366.137 -28.7234 343.161C-35.8811 319.207 -30.717 281.252 -24.3652 251.159L-24.3758 251.159Z" fill="#95AFE2"/>
<path d="M93.5184 246.984C100.103 245.199 103.719 251.923 102.086 257.182C101.365 259.529 99.1491 260.719 96.9541 261.378C95.9149 261.686 94.706 261.919 93.3381 261.526" fill="#4C65BD"/>
<path d="M120.77 202.794C122.934 205.142 123.008 207.755 121.566 210.644C120.177 213.449 118.056 214.617 115.066 214.596" fill="#4C65BD"/>
<path d="M99.9337 238.943C101.842 235.257 105.416 234.067 109.308 235.958C113.284 237.891 114.472 241.46 112.499 245.518C110.58 249.459 107.038 250.543 102.903 248.62C101.132 247.802 100.029 246.602 99.3505 244.796" fill="#4C65BD"/>
<path d="M110.548 226.812C112.383 223.062 115.988 221.894 119.89 223.785C123.888 225.718 125.086 229.276 123.114 233.334C121.195 237.286 117.621 238.444 113.539 236.447C109.636 234.535 108.523 230.955 110.548 226.812Z" fill="#4C65BD"/>
<path d="M119.805 193.117C121.46 189.41 125.775 188.082 129.275 189.782C132.615 191.428 134.375 195.571 132.467 199.331C130.674 202.858 126.475 204.377 122.912 202.391" fill="#4C65BD"/>
<path d="M100.74 261.718C102.373 258.34 106.508 256.598 110.262 258.467C113.708 260.188 115.331 264.394 113.38 268.027C111.439 271.628 107.802 272.839 104.122 271.193C100.241 269.451 99.1385 265.021 100.74 261.718Z" fill="#4C65BD"/>
<path d="M127.769 167.018C131.215 168.738 132.838 172.945 130.887 176.578C128.946 180.179 125.309 181.39 121.629 179.743" fill="#4C65BD"/>
<path d="M123.867 224.932C120.357 223.052 118.904 218.909 120.845 215.34C122.838 211.664 126.878 210.56 130.452 212.397C133.75 214.076 135.107 218.356 133.41 221.766C131.724 225.176 127.589 226.801 123.867 224.942L123.867 224.932Z" fill="#4C65BD"/>
<path d="M93.423 283.345C90.0509 281.709 88.3119 277.566 90.1782 273.806C91.896 270.354 96.0951 268.728 99.7217 270.683C103.316 272.627 104.525 276.27 102.882 279.956C101.143 283.844 96.7208 284.949 93.423 283.345Z" fill="#4C65BD"/>
<path d="M79.6909 285.841C81.7587 282.166 85.3004 281.146 88.9799 282.793C92.3307 284.301 94.091 288.486 92.2247 292.31C90.4539 295.773 86.2865 297.346 82.6706 295.423C79.0759 293.511 77.6868 289.41 79.6909 285.841Z" fill="#4C65BD"/>
<path d="M77.9625 293.978C81.8435 295.71 82.9463 300.139 81.3451 303.453C79.7015 306.853 75.566 308.563 71.8334 306.704" fill="#4C65BD"/>
<path d="M101.153 99.7878C104.207 101.243 106.031 106.055 104.642 109.04L101.153 99.7878Z" fill="#4C65BD"/>
<path d="M124.036 255.79C122.478 258.945 117.61 260.517 114.398 258.892C111.45 257.405 109.88 252.508 111.375 249.47C112.934 246.315 117.801 244.743 121.014 246.368C123.962 247.855 125.532 252.752 124.036 255.79Z" fill="#4C65BD"/>
<path d="M67.1465 306.013C70.4443 307.522 72.3 312.302 70.8154 315.478C69.3521 318.601 64.6122 320.45 61.6113 319.069" fill="#4C65BD"/>
<path d="M103.825 113.979C105.119 110.867 110.124 108.976 113.305 110.4C116.264 111.727 118.077 116.55 116.794 119.652C115.5 122.764 110.495 124.655 107.314 123.232" fill="#4C65BD"/>
<path d="M133.707 190.355C130.738 188.943 128.999 184.152 130.314 181.061C131.639 177.948 136.708 176.1 139.826 177.587C142.795 179 144.534 183.791 143.219 186.882C141.893 189.994 136.825 191.843 133.707 190.355Z" fill="#4C65BD"/>
<path d="M134.98 244.52C133.453 247.621 128.331 249.31 125.362 247.696C122.414 246.092 120.823 241.248 122.276 238.295C123.803 235.193 128.925 233.504 131.894 235.119C134.842 236.723 136.432 241.567 134.98 244.52Z" fill="#4C65BD"/>
<path d="M144.046 209.54C142.54 212.652 137.419 214.362 134.439 212.748C131.48 211.144 129.879 206.332 131.321 203.357C132.827 200.245 137.949 198.535 140.928 200.149C143.887 201.753 145.478 206.565 144.046 209.54Z" fill="#4C65BD"/>
<path d="M133.484 154.664C135.096 154.547 137.111 154.207 138.267 154.982C139.688 155.938 141.268 157.266 141.724 159.274C142.127 161.059 141.554 162.748 141.48 164.49C139.847 165.393 139.03 167.538 136.952 167.698C135.34 167.825 133.697 167.644 132.127 167.602" fill="#4C65BD"/>
<path d="M142.084 223.54C145.976 225.442 146.856 228.129 144.884 232.176C143.007 236.022 140.303 236.861 136.22 234.864C132.573 233.079 131.671 230.264 133.506 226.461C135.393 222.552 138.14 221.618 142.084 223.54Z" fill="#4C65BD"/>
<path d="M103.083 284.492C104.907 280.774 107.696 279.999 111.831 282.049C115.405 283.823 116.221 286.617 114.313 290.536C112.436 294.382 109.721 295.221 105.649 293.213C101.896 291.376 101.079 288.593 103.094 284.492L103.083 284.492Z" fill="#4C65BD"/>
<path d="M124.927 278.31C123.04 282.198 120.346 283.058 116.296 281.072C112.499 279.213 111.662 276.462 113.655 272.383C115.426 268.76 118.257 267.857 122.053 269.706C125.956 271.607 126.868 274.326 124.927 278.31Z" fill="#4C65BD"/>
<path d="M116.412 125.324C118.257 121.511 121.025 120.47 124.662 122.212C128.755 124.177 129.794 126.854 127.97 130.667C126.019 134.736 123.368 135.734 119.487 133.865" fill="#4C65BD"/>
<path d="M103.179 302.147C101.27 306.109 98.5446 307.076 94.6424 305.185C90.7402 303.294 89.807 300.543 91.7263 296.591C93.5714 292.788 96.2648 291.822 100.029 293.638C104.08 295.582 105.066 298.248 103.179 302.147Z" fill="#4C65BD"/>
<path d="M132.435 258.361C134.704 258.318 135.213 260.432 135.786 261.781C136.422 263.279 136.082 265.159 135.277 266.965C134.46 268.782 132.976 269.706 131.586 270.184C130.049 270.715 128.193 270.556 126.391 269.6C124.694 268.686 123.729 267.263 123.231 265.86C122.732 264.448 122.976 262.695 123.718 260.985C124.514 259.168 125.956 258.17 127.324 257.67C128.84 257.129 130.918 256.619 132.424 258.361L132.435 258.361Z" fill="#4C65BD"/>
<path d="M89.7116 306.098C91.9914 306.056 92.5004 308.17 93.0624 309.519C93.6881 311.017 93.3805 312.897 92.5534 314.703C91.7263 316.509 90.2524 317.443 88.8633 317.921C87.3151 318.452 85.47 318.293 83.6674 317.327C81.9708 316.424 81.0164 314.99 80.518 313.587C80.009 312.175 80.2635 310.422 81.0164 308.712C81.8117 306.895 83.2538 305.897 84.6323 305.397C86.1487 304.856 88.2271 304.346 89.7222 306.098L89.7116 306.098Z" fill="#4C65BD"/>
<path d="M82.8933 66.8791C84.4097 66.3374 86.488 65.8275 87.9832 67.5802C90.2524 67.5377 90.772 69.6516 91.334 71.0007C91.9597 72.4984 91.6521 74.3786 90.825 76.1845C89.9979 77.9903 88.524 78.9251 87.1349 79.4031" fill="#4C65BD"/>
<path d="M153.918 196.973C153.759 199.236 151.776 200.022 150.26 200.585C148.871 201.095 147.111 200.904 145.393 200.118C143.611 199.3 142.604 197.919 142.053 196.517C141.437 194.966 141.734 193.139 142.487 191.312C143.261 189.442 144.767 188.518 146.135 188.05C147.492 187.583 149.263 187.392 151.013 188.369C152.625 189.261 153.982 190.44 154.427 191.864C154.904 193.415 155.615 195.444 153.908 196.973L153.918 196.973Z" fill="#4C65BD"/>
<path d="M128.681 135.586C129.275 133.461 131.109 133.387 132.615 132.622C134.29 131.762 135.616 132.335 137.185 132.941C139.083 133.674 139.751 135.033 140.282 136.765C141.045 139.282 141.119 139.261 139.836 141.895C139.635 143.829 137.737 143.999 136.178 144.721C134.386 145.56 132.965 144.976 131.279 144.392" fill="#4C65BD"/>
<path d="M145.817 254.611C144.29 257.681 140.313 258.945 137.175 257.362C134.174 255.854 132.954 251.807 134.545 248.673C135.987 245.837 140.006 244.562 142.954 246.007C146.061 247.526 147.376 251.488 145.817 254.622L145.817 254.611Z" fill="#4C65BD"/>
<path d="M103.041 86.3715C101.556 89.537 97.6327 90.9817 94.5364 89.4945C91.5567 88.0711 90.0615 84.1408 91.387 81.2408C92.8503 78.0435 96.7844 76.4713 99.8171 77.8841C103.019 79.3713 104.504 83.2697 103.051 86.3715L103.041 86.3715Z" fill="#4C65BD"/>
<path d="M153.07 174.613C151.554 177.715 147.598 179.032 144.47 177.47C141.406 175.941 140.154 171.957 141.734 168.813C143.177 165.945 147.164 164.628 150.101 166.041C153.208 167.538 154.586 171.511 153.07 174.613Z" fill="#4C65BD"/>
<path d="M106.625 100.085C103.528 98.5768 102.171 94.604 103.709 91.4916C105.225 88.4217 109.212 87.1151 112.33 88.6872C115.246 90.1531 116.571 94.0729 115.172 97.0472C113.687 100.191 109.732 101.594 106.635 100.085L106.625 100.085Z" fill="#4C65BD"/>
<path d="M155.562 219.843C154.056 222.945 150.09 224.305 146.983 222.765C143.919 221.246 142.625 217.252 144.184 214.129C145.647 211.207 149.56 209.88 152.529 211.292C155.657 212.779 157.068 216.742 155.562 219.843Z" fill="#4C65BD"/>
<path d="M151.501 151.86C149.984 154.929 145.997 156.225 142.88 154.664C139.826 153.134 138.596 149.161 140.197 145.985C141.628 143.149 145.647 141.842 148.584 143.266C151.681 144.774 153.038 148.747 151.501 151.86Z" fill="#4C65BD"/>
<path d="M117.833 111.026C114.737 109.518 113.38 105.545 114.917 102.433C116.433 99.3628 120.42 98.0563 123.538 99.6284C126.454 101.094 127.78 105.014 126.38 107.988C124.895 111.133 120.94 112.535 117.844 111.026L117.833 111.026Z" fill="#4C65BD"/>
<path d="M82.2252 325.984C80.7089 329.086 76.743 330.392 73.6255 328.841C70.561 327.312 69.3097 323.328 70.9003 320.184C72.3424 317.326 76.3295 315.999 79.2667 317.411C82.3737 318.909 83.7416 322.893 82.2358 325.994L82.2252 325.984Z" fill="#4C65BD"/>
<path d="M157.046 242.746C155.519 245.816 151.543 247.08 148.404 245.497C145.403 243.989 144.184 239.941 145.774 236.808C147.217 233.971 151.235 232.697 154.183 234.141C157.29 235.66 158.605 239.623 157.046 242.756L157.046 242.746Z" fill="#4C65BD"/>
<path d="M166.261 207.479C164.565 210.772 160.408 212.132 157.502 210.559C154.491 208.924 153.08 204.706 154.873 201.923C155.731 200.585 156.845 199.289 158.658 198.843C160.27 198.439 161.808 198.545 163.175 199.215C164.66 199.948 165.773 201.159 166.388 202.869C167.014 204.611 166.41 206.14 166.261 207.479Z" fill="#4C65BD"/>
<path d="M63.467 329.511C65.2908 328.682 66.9556 329.362 68.7371 329.457C69.8611 330.711 71.4411 331.465 71.8653 333.292C72.141 334.482 72.1197 337.201 71.632 338.168C70.1474 341.068 66.3406 342.438 63.3397 341.153" fill="#4C65BD"/>
<path d="M117.303 303.591C114.779 302.274 113.199 297.356 114.514 294.955C115.882 292.47 120.834 290.94 123.178 292.278C125.532 293.628 127.037 298.312 125.882 300.681C124.651 303.23 119.763 304.877 117.292 303.591L117.303 303.591Z" fill="#4C65BD"/>
<path d="M137.206 288.667C136.125 291.206 131.3 292.99 128.702 291.811C126.316 290.728 124.556 286.149 125.532 283.568C126.475 281.05 131.311 279.117 133.951 280.19C136.464 281.21 138.32 286.043 137.206 288.667Z" fill="#4C65BD"/>
<path d="M138.521 118.59C137.397 121.128 132.541 122.871 129.996 121.649C127.599 120.502 125.882 115.923 126.899 113.385C127.907 110.856 132.721 108.976 135.351 110.081C137.875 111.143 139.677 115.977 138.521 118.59Z" fill="#4C65BD"/>
<path d="M156.654 188.114C154.13 186.797 152.55 181.879 153.865 179.478C155.233 176.992 160.185 175.463 162.529 176.801C164.883 178.15 166.388 182.835 165.233 185.204C164.003 187.753 159.114 189.399 156.643 188.114L156.654 188.114Z" fill="#4C65BD"/>
<path d="M112.287 304.239C113.316 305.429 114.8 306.513 115.309 307.936C115.818 309.37 115.829 311.367 115.203 312.706C114.578 314.055 113.04 315.34 111.619 315.839C110.198 316.349 108.237 316.275 106.848 315.669C105.586 315.127 104.356 313.683 103.878 312.355C103.359 310.9 103.274 308.935 103.857 307.564C104.451 306.205 105.946 304.877 107.356 304.335C108.767 303.783 110.559 304.218 112.287 304.229L112.287 304.239Z" fill="#4C65BD"/>
<path d="M159.104 233.472C158.054 232.144 156.601 231.008 156.145 229.563C155.689 228.118 155.763 226.121 156.453 224.804C157.142 223.487 158.732 222.265 160.175 221.819C161.617 221.373 163.621 221.49 164.925 222.191C166.229 222.903 167.375 224.507 167.862 225.962C168.308 227.29 168.234 229.191 167.576 230.402C166.855 231.73 165.36 232.994 163.928 233.493C162.497 233.993 160.726 233.515 159.093 233.472L159.104 233.472Z" fill="#4C65BD"/>
<path d="M138.871 280.328C137.822 279.032 136.369 277.917 135.892 276.483C135.414 275.038 135.467 273.041 136.125 271.713C136.793 270.386 138.362 269.143 139.794 268.675C141.225 268.208 143.187 268.335 144.555 268.973C145.796 269.557 146.994 271.034 147.429 272.372C147.906 273.838 147.948 275.803 147.323 277.152C146.697 278.501 145.159 279.776 143.739 280.296C142.318 280.817 140.536 280.371 138.871 280.339L138.871 280.328Z" fill="#4C65BD"/>
<path d="M163.737 162.493C162.454 163.534 161.33 164.978 159.888 165.446C158.446 165.913 156.453 165.849 155.138 165.17C153.812 164.49 152.582 162.907 152.126 161.462C151.67 160.018 151.808 158.063 152.455 156.693C153.049 155.45 154.533 154.271 155.869 153.846C157.333 153.379 159.369 153.304 160.62 154.005C161.892 154.717 163.494 155.907 163.801 157.574C164.087 159.136 163.79 160.814 163.737 162.482L163.737 162.493Z" fill="#4C65BD"/>
<path d="M142.18 131.443C140.504 131.23 140.08 129.828 139.38 128.405C138.5 126.599 139.317 125.324 139.889 123.795C140.483 122.18 141.692 121.659 143.102 120.948C144.958 120.024 146.188 121.001 147.704 121.532C149.348 122.106 149.868 123.338 150.472 124.804C151.14 126.44 150.62 127.651 149.995 129.074C149.337 130.572 148.415 131.39 146.867 132.016C145.096 132.728 143.728 132.42 142.19 131.422L142.18 131.443Z" fill="#4C65BD"/>
<path d="M175.624 196.081C175.412 197.759 174.013 198.195 172.592 198.885C170.789 199.767 169.517 198.949 167.99 198.386C166.378 197.791 165.858 196.58 165.148 195.167C164.225 193.309 165.201 192.076 165.731 190.557C166.314 188.911 167.534 188.38 168.997 187.785C170.63 187.116 171.839 187.625 173.26 188.252C174.744 188.911 175.571 189.824 176.197 191.386C176.897 193.16 176.611 194.53 175.603 196.07L175.624 196.081Z" fill="#4C65BD"/>
<path d="M160.175 255.078C158.499 254.866 158.075 253.464 157.375 252.04C156.484 250.235 157.312 248.96 157.884 247.43C158.478 245.816 159.687 245.295 161.097 244.594C162.953 243.67 164.183 244.647 165.699 245.178C167.343 245.752 167.862 246.984 168.467 248.45C169.135 250.086 168.615 251.297 167.99 252.72C167.332 254.218 166.41 255.036 164.862 255.663C163.091 256.374 161.723 256.066 160.185 255.068L160.175 255.078Z" fill="#4C65BD"/>
<path d="M154.671 257.267C156.293 257.681 157.142 258.68 157.736 260.262C158.382 261.983 158.17 263.311 157.396 264.883C156.686 266.328 155.838 267.209 154.268 267.836C152.497 268.537 151.204 268.091 149.655 267.411C148.139 266.742 147.323 265.807 146.771 264.235C146.209 262.642 146.347 261.41 147.089 259.944C147.863 258.425 148.648 257.288 150.472 256.789C152.052 256.353 153.388 256.183 154.661 257.267L154.671 257.267Z" fill="#4C65BD"/>
<path d="M101.344 317.178C102.966 317.592 103.815 318.59 104.409 320.173C105.055 321.894 104.843 323.222 104.069 324.794C103.359 326.239 102.511 327.12 100.941 327.747C99.1703 328.448 97.8766 328.002 96.3284 327.322C94.8121 326.653 93.9956 325.718 93.4442 324.146C92.8822 322.553 93.02 321.32 93.7623 319.855C94.5364 318.335 95.3211 317.199 97.1449 316.7C98.7249 316.264 100.061 316.094 101.333 317.178L101.344 317.178Z" fill="#4C65BD"/>
<path d="M74.4208 34.8736C77.4959 36.3288 78.5987 39.4412 77.1248 42.4792L74.4208 34.8736Z" fill="#4C65BD"/>
<path d="M174.734 211.048C177.777 212.525 178.827 215.648 177.321 218.696C175.815 221.745 172.751 222.733 169.644 221.171C166.781 219.737 165.752 216.689 167.141 213.757C168.594 210.676 171.701 209.572 174.734 211.048Z" fill="#4C65BD"/>
<path d="M86.1805 338.858C83.1584 337.382 82.1192 334.248 83.6356 331.2C85.1413 328.172 88.2165 327.206 91.3234 328.767C94.1652 330.201 95.1832 333.26 93.7835 336.192C92.3202 339.262 89.2238 340.346 86.1699 338.858L86.1805 338.858Z" fill="#4C65BD"/>
<path d="M167.47 176.047C164.352 174.581 163.398 171.585 164.639 168.441C165.646 165.881 169.506 164.341 171.998 165.605C175.115 167.188 176.388 170.151 174.999 173.136C173.525 176.312 170.513 177.47 167.47 176.047Z" fill="#4C65BD"/>
<path d="M136.888 95.9849C135.383 99.0336 132.318 100.011 129.211 98.46C126.231 96.9622 125.288 93.8498 126.868 90.7268C128.289 87.9224 131.396 86.9239 134.312 88.3367C137.344 89.8132 138.405 92.9363 136.899 95.9849L136.888 95.9849Z" fill="#4C65BD"/>
<path d="M117.144 87.8694C114.101 86.361 113.114 83.2911 114.673 80.1787C116.168 77.1938 119.275 76.2484 122.393 77.8311C125.192 79.2545 126.189 82.367 124.779 85.2882C123.305 88.3368 120.187 89.3884 117.144 87.88L117.144 87.8694Z" fill="#4C65BD"/>
<path d="M171.659 243.404C168.615 241.928 167.566 238.805 169.071 235.756C170.577 232.707 173.642 231.72 176.748 233.281C179.612 234.715 180.64 237.764 179.251 240.696C177.798 243.776 174.691 244.881 171.659 243.404Z" fill="#4C65BD"/>
<path d="M112.934 74.0281C111.46 77.0768 108.343 78.1284 105.299 76.62C102.256 75.1116 101.27 72.0417 102.829 68.9293C104.26 66.0613 107.303 65.0309 110.23 66.4224C113.305 67.8777 114.408 70.9901 112.934 74.0281Z" fill="#4C65BD"/>
<path d="M162.083 139.75C160.577 142.756 157.502 143.723 154.374 142.14C151.437 140.653 150.61 137.54 152.073 134.364C153.24 131.836 157.216 130.636 159.602 132.017C162.518 133.706 163.621 136.659 162.083 139.739L162.083 139.75Z" fill="#4C65BD"/>
<path d="M93.3381 66.0824C90.263 64.6272 89.139 61.5254 90.5917 58.4874C91.9914 55.5662 95.0666 54.3977 97.8978 55.7043C101.068 57.1702 102.277 60.2082 100.877 63.2144C99.4035 66.3693 96.392 67.5165 93.3381 66.0824Z" fill="#4C65BD"/>
<path d="M79.1289 48.0774C80.6347 45.0288 83.6992 44.0409 86.8061 45.6024C89.6692 47.0364 90.6978 50.0851 89.3086 53.0169C87.8559 56.0974 84.749 57.2022 81.7163 55.7256" fill="#4C65BD"/>
<path d="M137.535 294.456C138.935 291.694 142.742 290.664 145.467 292.077C147.726 293.256 148.638 297.09 147.683 299.64C147.047 301.339 145.488 301.892 144.385 302.264C143.145 302.689 141.48 302.943 139.836 302.072C138.299 301.254 138.352 299.555 137.122 298.748C137.556 297.26 136.04 295.54 137.525 294.456L137.535 294.456Z" fill="#4C65BD"/>
<path d="M82.5964 347.972C81.3345 350.66 77.6444 352.02 75.0252 350.755C72.4909 349.544 71.2714 345.954 72.1409 343.426C72.756 341.652 74.2617 340.802 75.513 340.388C76.637 340.016 78.1852 339.464 79.7333 340.356C82.2677 341.822 83.7946 345.412 82.5964 347.951L82.5964 347.972Z" fill="#4C65BD"/>
<path d="M173.493 150.786C172.274 151.742 171.203 153.07 169.845 153.495C168.605 153.888 166.887 153.644 165.71 153.038C164.533 152.433 163.186 151.137 162.974 149.947C162.719 148.577 162.2 146.761 163.303 145.443C164.193 144.37 165.296 142.99 166.494 142.777C167.756 142.554 169.304 142.288 170.704 142.958C172.231 143.691 172.973 145.199 173.62 146.452C174.172 147.547 173.588 149.214 173.493 150.786Z" fill="#4C65BD"/>
<path d="M137.556 311.112C136.39 312.111 135.425 313.566 134.216 313.81C132.838 314.086 131.046 314.543 129.72 313.513C128.628 312.652 127.228 311.537 127.016 310.347C126.772 308.966 126.274 307.161 127.366 305.843C128.267 304.771 129.37 303.421 130.568 303.188C131.82 302.943 133.378 302.71 134.778 303.4C136.284 304.144 137.058 305.642 137.673 306.906C138.214 308.01 137.631 309.668 137.546 311.112L137.556 311.112Z" fill="#4C65BD"/>
<path d="M159.082 287.817C157.863 288.773 156.792 290.09 155.435 290.526C154.194 290.919 152.476 290.674 151.299 290.069C150.122 289.463 148.775 288.168 148.563 286.978C148.309 285.608 147.789 283.791 148.892 282.474C149.783 281.401 150.886 280.02 152.084 279.808C153.346 279.585 154.894 279.319 156.293 279.988C157.82 280.721 158.563 282.23 159.21 283.483C159.761 284.577 159.178 286.245 159.082 287.817Z" fill="#4C65BD"/>
<path d="M140.801 109.082C139.773 107.818 138.224 106.724 138.034 105.418C137.843 104.175 137.291 102.465 138.32 101.232C139.221 100.16 140.218 98.8743 141.437 98.4281C142.657 97.982 144.258 98.29 145.626 98.5874C147.312 98.9486 148.001 100.691 148.659 101.934C149.221 102.996 148.956 104.855 148.404 106.055C147.853 107.266 146.655 108.53 145.446 108.976C144.11 109.476 142.445 109.082 140.812 109.082L140.801 109.082Z" fill="#4C65BD"/>
<path d="M176.886 178.989C178 176.769 182.4 175.314 184.542 176.461C186.737 177.63 188.201 182.112 186.939 184.162C185.56 186.393 181.775 187.54 179.537 186.627C177.406 185.756 175.741 181.008 176.897 179L176.886 178.989Z" fill="#4C65BD"/>
<path d="M169.58 275.325C168.944 277.28 164.278 279.202 161.988 278.066C159.952 277.056 158.361 272.903 159.231 270.736C160.122 268.505 164.437 266.806 166.738 267.772C168.955 268.707 170.588 273.062 169.58 275.336L169.58 275.325Z" fill="#4C65BD"/>
<path d="M116.667 318.134C117.812 315.935 122.234 314.511 124.344 315.659C126.539 316.859 127.886 321.299 126.687 323.392C125.532 325.421 121.311 326.749 119.243 325.793C116.995 324.752 115.521 319.918 116.667 318.134Z" fill="#4C65BD"/>
<path d="M180.449 209.104C178.36 208.307 176.674 203.58 177.777 201.477C178.784 199.565 182.538 197.866 185.115 198.8C187.374 199.618 189.007 204.037 188.02 206.321C187.066 208.541 182.697 210.145 180.449 209.104Z" fill="#4C65BD"/>
<path d="M189.378 229.351C188.264 230.158 187.405 231.475 185.762 231.943C184.362 232.346 183.153 231.581 181.849 231.815C180.99 230.413 179.219 229.574 179.198 227.672C179.187 226.483 178.89 224.836 179.527 224.22C180.481 223.285 181.319 222.064 182.909 221.607C184.341 221.193 185.539 221.809 186.843 221.756C187.395 221.734 188.095 222.882 188.71 223.466C189.463 224.188 189.738 225.559 189.897 226.695C190.014 227.502 189.59 228.395 189.378 229.351Z" fill="#4C65BD"/>
<path d="M153.017 119.514C152.094 118.016 150.302 117.198 150.281 115.286C150.27 114.096 149.974 112.524 150.589 111.802C151.607 110.612 152.784 109.136 154.65 109.104C155.838 109.082 157.439 108.838 158.107 109.476C159.157 110.474 160.397 111.494 160.768 113.236C161.044 114.542 160.1 115.626 160.588 116.826C159.337 117.697 158.499 119.004 156.877 119.535C155.435 120.002 154.258 118.961 153.017 119.514Z" fill="#4C65BD"/>
<path d="M172.602 265.956C171.881 265.095 171.065 264.224 170.354 263.268C169.22 261.749 169.76 259.954 170.036 258.393C170.185 257.543 171.447 256.81 172.316 256.194C173.801 255.153 175.603 255.376 177.194 255.652C178.085 255.801 178.901 256.959 179.537 257.819C180.704 259.391 180.481 261.346 180.121 263.013C179.908 263.969 178.541 264.713 177.607 265.446C176.112 266.604 174.352 265.743 172.613 265.966L172.602 265.956Z" fill="#4C65BD"/>
<path d="M113.846 328.682C115.861 328.894 116.211 330.838 116.433 332.485C116.561 333.473 115.628 334.577 115.278 335.661C114.875 336.893 114.058 337.456 112.849 337.87C111.651 338.285 110.644 338.359 109.573 337.637C109.096 337.307 108.544 337.01 107.993 336.872C106.763 336.564 106.487 335.576 106.137 334.577C105.787 333.579 105.405 332.633 106.179 331.624C106.529 331.168 106.773 330.605 106.954 330.042C107.335 328.809 108.173 328.246 109.382 327.832C110.58 327.418 111.598 327.322 112.648 328.076C112.934 328.278 113.273 328.395 113.846 328.671L113.846 328.682Z" fill="#4C65BD"/>
<path d="M182.655 154.292C185.804 155.832 186.409 157.691 184.818 160.963C183.28 164.118 181.425 164.723 178.159 163.13C175.009 161.59 174.405 159.731 175.996 156.459C177.533 153.304 179.389 152.699 182.655 154.292Z" fill="#4C65BD"/>
<path d="M189.77 251.456C188.328 254.409 186.112 255.153 183.132 253.687C180.184 252.242 179.442 250.022 180.905 247.037C182.347 244.084 184.564 243.34 187.543 244.806C190.491 246.251 191.233 248.471 189.77 251.456Z" fill="#4C65BD"/>
<path d="M104.334 346.878C103.518 349.545 100.082 350.426 97.6858 349.268C95.2044 348.068 94.1865 344.924 95.3423 342.523C96.5405 340.037 99.6793 339.018 102.076 340.175C104.557 341.376 105.883 344.669 104.334 346.878Z" fill="#4C65BD"/>
<path d="M165.19 130.073C162.2 128.617 161.436 126.44 162.889 123.455C164.342 120.459 166.516 119.694 169.495 121.15C172.486 122.605 173.249 124.782 171.796 127.767C170.344 130.763 168.17 131.528 165.19 130.073Z" fill="#4C65BD"/>
<path d="M197.946 193.925C196.514 196.92 194.319 197.706 191.361 196.293C188.37 194.859 187.586 192.661 188.996 189.697C190.427 186.701 192.622 185.915 195.581 187.328C198.571 188.762 199.356 190.961 197.946 193.925Z" fill="#4C65BD"/>
<path d="M197.49 210.294C200.045 211.452 200.83 214.458 199.356 217.103C197.988 219.546 195.157 220.428 192.506 218.951C190.067 217.581 189.187 214.745 190.661 212.089C192.029 209.646 194.945 208.615 197.479 210.283L197.49 210.294Z" fill="#4C65BD"/>
<path d="M177.173 140.621C175.868 140.483 175.444 139.293 175.062 138.008C174.67 136.691 174.023 135.511 174.967 134.035C175.635 132.994 176.197 132.155 177.459 131.889C178.774 131.602 179.919 130.689 181.425 131.613C182.549 132.303 183.577 132.824 183.864 134.3C184.118 135.628 184.892 136.775 184.055 138.273C182.761 140.578 179.707 141.853 177.162 140.631L177.173 140.621Z" fill="#4C65BD"/>
<path d="M169.729 297.76C169.591 299.066 168.403 299.491 167.12 299.874C165.795 300.267 164.628 300.915 163.154 299.969C162.115 299.3 161.277 298.737 161.012 297.473C160.726 296.156 159.814 295.009 160.737 293.5C161.426 292.374 161.945 291.344 163.419 291.057C164.745 290.802 165.89 290.027 167.385 290.876C169.686 292.172 170.948 295.232 169.739 297.781L169.729 297.76Z" fill="#4C65BD"/>
<path d="M194.415 164.723C197.076 166.04 197.977 169.227 196.981 171.67C196.334 173.264 194.955 173.37 193.757 173.986C192.421 174.677 191.382 174.188 190.141 173.731C188.476 173.126 188.487 171.649 187.893 170.438C187.321 169.27 187.628 168.314 188.031 167.145C188.604 165.488 189.908 165.233 191.202 164.755C192.421 164.309 193.64 163.661 194.415 164.713L194.415 164.723Z" fill="#4C65BD"/>
<path d="M197.797 232.474C200.459 233.791 201.36 236.978 200.363 239.421C199.716 241.014 198.338 241.12 197.14 241.737C195.804 242.427 194.764 241.938 193.524 241.482C191.859 240.876 191.87 239.4 191.276 238.189C190.703 237.02 191.011 236.064 191.414 234.896C191.986 233.239 193.291 232.984 194.584 232.506C195.804 232.059 197.023 231.411 197.797 232.463L197.797 232.474Z" fill="#4C65BD"/>
<path d="M156.983 303.252C158.828 303.528 158.764 305.174 159.39 306.375C160.069 307.681 159.634 308.733 159.167 309.997C158.552 311.665 157.068 311.612 155.901 312.281C154.544 313.046 153.515 312.398 152.296 311.973C150.61 311.388 150.695 309.848 150.09 308.658C149.496 307.501 149.868 306.534 150.271 305.365C150.854 303.698 152.222 303.56 153.462 302.997C154.724 302.434 155.901 302.232 156.993 303.252L156.983 303.252Z" fill="#4C65BD"/>
<path d="M122.563 62.099C122.372 63.5862 121.258 64.0961 119.943 64.4466C118.628 64.8078 117.462 65.5195 115.977 64.5528C114.949 63.8836 114.09 63.3313 113.814 62.0672C113.528 60.75 112.595 59.5921 113.517 58.0944C114.207 56.979 114.673 55.8849 116.179 55.6299C117.504 55.4069 118.639 54.5146 120.155 55.4069C121.322 56.0973 122.244 56.7134 122.552 58.1262C122.838 59.454 123.803 60.7181 122.563 62.0884L122.563 62.099Z" fill="#4C65BD"/>
<path d="M87.05 30.0827C85.9154 32.2497 82.4055 33.3757 80.3166 32.2284C78.164 31.0493 77.1142 27.5227 78.2912 25.4406C79.4152 23.4542 82.7767 22.3813 84.7808 23.3905C87.2091 24.6121 88.0256 28.3618 87.0394 30.0933L87.05 30.0827Z" fill="#4C65BD"/>
<path d="M146.389 315.351C148.553 316.487 149.677 320.003 148.531 322.096C147.354 324.252 143.834 325.304 141.756 324.125C139.783 322.999 138.702 319.632 139.698 317.624C140.897 315.213 144.64 314.363 146.389 315.361L146.389 315.351Z" fill="#4C65BD"/>
<path d="M97.0707 34.0557C99.2233 35.2242 100.294 38.7402 99.1279 40.8222C97.9509 42.9361 94.3561 43.9665 92.3308 42.7662C90.3691 41.6083 89.3405 38.2197 90.3479 36.2333C91.4507 34.0663 94.9818 32.9191 97.0707 34.0451L97.0707 34.0557Z" fill="#4C65BD"/>
<path d="M188.964 267.539C190.82 268.293 192.485 271.756 191.339 274.199C190.385 276.239 187.077 277.471 184.966 276.621C182.761 275.718 181.404 272.298 182.358 270.046C183.291 267.847 186.737 266.551 188.964 267.549L188.964 267.539Z" fill="#4C65BD"/>
<path d="M132.53 66.2208C134.693 67.3574 135.817 70.8734 134.672 72.9661C133.495 75.1224 129.975 76.1741 127.896 74.995C125.924 73.869 124.842 70.5017 125.839 68.494C127.037 66.0827 130.781 65.2329 132.53 66.2314L132.53 66.2208Z" fill="#4C65BD"/>
<path d="M93.9744 358.552C92.8079 360.709 89.298 361.782 87.2197 360.613C85.1095 359.434 84.0809 355.833 85.2791 353.804C86.435 351.839 89.8176 350.809 91.8006 351.818C93.9638 352.923 95.109 356.46 93.985 358.552L93.9744 358.552Z" fill="#4C65BD"/>
<path d="M144.597 76.8007C147.005 78.0223 147.81 81.7402 146.867 83.5035C145.7 85.6599 142.212 86.7858 140.123 85.6386C138.108 84.5339 137.037 81.2727 137.938 79.1695C138.723 77.3424 142.127 75.6534 144.597 76.7901L144.597 76.8007Z" fill="#4C65BD"/>
<path d="M159.114 93.8818C158.181 96.0807 154.735 97.3766 152.508 96.3781C150.483 95.4646 149.168 92.1822 149.984 90.0364C150.811 87.8376 154.268 86.3929 156.516 87.3064C158.722 88.2094 160.079 91.6298 159.125 93.8818L159.114 93.8818Z" fill="#4C65BD"/>
<path d="M131.629 335.735C129.466 334.599 128.342 331.083 129.487 328.99C130.664 326.834 134.184 325.782 136.263 326.961C138.246 328.087 139.317 331.454 138.309 333.462C137.09 335.895 133.347 336.713 131.618 335.725L131.629 335.735Z" fill="#4C65BD"/>
<path d="M178.594 279.032C180.789 279.967 182.082 283.419 181.085 285.65C180.173 287.679 176.897 288.996 174.755 288.178C172.56 287.35 171.118 283.887 172.03 281.635C172.931 279.425 176.345 278.066 178.594 279.022L178.594 279.032Z" fill="#4C65BD"/>
<path d="M111.407 51.211C110.665 52.9955 107.197 54.727 104.727 53.5054C102.691 52.4963 101.514 49.2033 102.394 47.1C103.316 44.9012 106.752 43.5734 108.989 44.5613C111.163 45.5173 112.436 49.0121 111.407 51.211Z" fill="#4C65BD"/>
<path d="M203.47 207.022C202.908 205.599 201.074 205.301 201.063 203.719C201.053 202.518 200.724 200.914 201.35 200.234C202.177 199.342 202.855 197.834 204.414 197.834C205.602 197.834 206.8 197.982 207.998 198.067C208.157 199.448 209.907 199.48 210.246 200.936C210.554 202.253 209.568 203.347 210.098 204.558C208.804 205.025 208.518 206.619 207.033 207.065C205.697 207.468 204.637 206.247 203.481 207.022L203.47 207.022Z" fill="#4C65BD"/>
<path d="M195.655 148.566C194.69 149.384 193.81 150.202 192.845 150.925C191.594 151.859 190.226 150.712 188.922 151.041C188.413 149.894 187.108 149.522 186.525 148.343C185.815 146.909 187.024 145.688 186.546 144.381C187.808 144.02 188.042 142.575 189.272 142.002C190.618 141.375 191.732 142.65 192.919 141.959C193.736 142.841 194.574 143.691 195.348 144.604C196.408 145.847 194.924 147.249 195.645 148.566L195.655 148.566Z" fill="#4C65BD"/>
<path d="M168.053 98.3325C168.53 99.724 170.376 100.043 170.376 101.615C170.376 102.815 170.672 104.547 170.036 105.078C169.061 105.896 168.594 107.585 166.919 107.468C165.72 107.383 164.024 107.702 163.462 107.043C162.645 106.098 160.991 105.556 161.129 103.877C161.214 102.794 160.885 101.296 161.458 100.712C162.338 99.8196 162.921 98.3006 164.501 98.2581C165.699 98.2263 166.897 98.3113 168.053 98.3431L168.053 98.3325Z" fill="#4C65BD"/>
<path d="M201.88 262.142C200.83 262.897 199.876 263.938 198.699 264.32C197.638 264.671 196.09 264.681 195.21 264.139C194.213 263.523 193.439 262.185 193.078 261.016C192.75 259.933 192.75 258.456 193.259 257.5C193.778 256.544 195.019 255.748 196.101 255.408C197.182 255.068 198.688 255.004 199.61 255.525C200.66 256.119 201.551 257.405 201.965 258.573C202.325 259.625 201.943 260.942 201.88 262.142Z" fill="#4C65BD"/>
<path d="M120.93 347.069C118.024 345.699 117.441 344.265 118.703 341.546C119.996 338.741 121.587 338.168 124.185 339.166C127.037 340.26 127.695 342.842 126.518 344.977C125.076 347.601 123.538 348.291 120.93 347.069Z" fill="#4C65BD"/>
<path d="M205.284 229.021C202.834 228.288 202.113 225.463 203.279 223.381C204.838 220.619 206.238 220.141 209.218 221.437C211.55 222.446 212.197 225.07 210.957 227.194C209.493 229.701 207.956 230.328 205.273 229.011L205.284 229.021Z" fill="#4C65BD"/>
<path d="M202.866 183.78C200.194 182.484 199.6 180.827 200.851 178.182C202.261 175.218 203.746 174.708 206.715 176.196C209.292 177.491 209.822 179.18 208.497 181.868C207.203 184.513 205.538 185.065 202.876 183.769L202.866 183.78Z" fill="#4C65BD"/>
<path d="M204.997 153.336C207.32 154.462 208.094 156.693 206.97 159.008C205.846 161.335 203.619 162.11 201.307 160.984C198.985 159.858 198.211 157.627 199.335 155.312C200.459 152.985 202.686 152.21 204.997 153.336Z" fill="#4C65BD"/>
<path d="M211.71 249.937C211.476 251.318 210.14 251.318 209.154 251.86C207.871 252.561 206.98 251.711 205.899 251.392C204.509 250.978 204.456 249.757 203.916 248.769C203.216 247.483 204.064 246.591 204.382 245.508C204.796 244.116 206.015 244.063 207.001 243.521C208.284 242.82 209.175 243.67 210.257 243.988C211.646 244.403 211.837 245.55 212.208 246.633C212.685 248.036 212.674 248.046 211.71 249.937Z" fill="#4C65BD"/>
<path d="M181.711 115.382C180.598 117.644 178.328 118.367 175.996 117.219C173.737 116.104 173.016 113.831 174.161 111.494C175.275 109.231 177.544 108.509 179.877 109.656C182.135 110.772 182.856 113.045 181.711 115.382Z" fill="#4C65BD"/>
<path d="M181.276 308C180.184 309.721 178.085 311.07 175.582 309.806C173.779 308.892 172.507 306.64 173.769 304.133C174.681 302.327 176.929 301.053 179.431 302.317C181.234 303.23 182.411 305.429 181.276 308.01L181.276 308Z" fill="#4C65BD"/>
<path d="M164.914 321.979C162.932 320.651 161.988 318.442 163.186 316.254C164.331 314.172 166.685 313.301 168.87 314.501C170.948 315.648 171.818 318.006 170.619 320.195C169.474 322.277 167.194 323.02 164.914 321.979Z" fill="#4C65BD"/>
<path d="M222.483 237.424C221.465 239.442 218.793 240.345 216.799 239.336C214.785 238.316 213.883 235.639 214.891 233.642C215.909 231.624 218.581 230.721 220.574 231.73C222.589 232.75 223.49 235.427 222.483 237.434L222.483 237.424Z" fill="#4C65BD"/>
<path d="M191.615 296.368C190.533 298.503 187.84 299.268 185.953 298.344C183.811 297.292 183.058 294.573 183.98 292.682C185.03 290.536 187.745 289.782 189.632 290.706C191.774 291.758 192.506 294.467 191.615 296.379L191.615 296.368Z" fill="#4C65BD"/>
<path d="M160.185 332.102C159.04 334.333 156.792 335.162 154.607 334.237C152.306 333.271 151.532 330.881 152.455 328.693C153.42 326.387 155.806 325.612 157.99 326.536C160.291 327.503 160.917 329.829 160.185 332.102Z" fill="#4C65BD"/>
<path d="M191.933 120.236C194.065 121.32 194.828 124.018 193.906 125.909C192.856 128.054 190.141 128.809 188.254 127.884C186.112 126.833 185.359 124.113 186.281 122.223C187.331 120.077 190.035 119.344 191.944 120.236L191.933 120.236Z" fill="#4C65BD"/>
<path d="M214.371 194.084C212.325 193.054 211.444 190.387 212.409 188.411C213.417 186.351 216.089 185.48 218.072 186.436C220.129 187.445 220.999 190.122 220.044 192.108C219.037 194.169 216.375 195.019 214.382 194.084L214.371 194.084Z" fill="#4C65BD"/>
<path d="M115.893 357.097C114.567 359.583 112.128 360.029 110.294 359.168C107.749 357.979 107.357 355.429 108.205 353.592C109.392 351.042 111.937 350.649 113.772 351.499C116.317 352.689 116.561 355.174 115.893 357.097Z" fill="#4C65BD"/>
<path d="M215.877 216.848C213.862 215.828 212.961 213.151 213.968 211.144C214.986 209.125 217.658 208.222 219.652 209.232C221.667 210.251 222.568 212.928 221.561 214.936C220.543 216.954 217.87 217.857 215.877 216.848Z" fill="#4C65BD"/>
<path d="M202.781 284.651C201.456 286.638 199.25 287.583 197.066 286.383C194.987 285.236 194.118 282.888 195.316 280.689C196.461 278.607 198.815 277.736 201 278.937C203.078 280.084 203.82 282.368 202.781 284.651Z" fill="#4C65BD"/>
<path d="M213.173 172.255C211.869 171.67 210.522 167.74 211.2 166.508C211.858 165.329 215.336 164.054 216.661 164.5C217.945 164.936 219.419 168.717 218.867 170.162C218.379 171.458 214.541 172.86 213.173 172.255Z" fill="#4C65BD"/>
<path d="M207.86 274.348C206.567 273.838 205.178 269.95 205.814 268.633C206.365 267.486 209.886 266.126 211.243 266.54C212.515 266.933 214.042 270.704 213.523 272.17C213.067 273.455 209.292 274.911 207.86 274.337L207.86 274.348Z" fill="#4C65BD"/>
<path d="M203.905 130.731C205.358 131.602 206.726 135.193 206.068 136.372C205.665 137.073 204.817 137.615 204.053 137.997C201.349 139.346 199.282 138.347 198.529 135.426C198.009 133.408 198.614 132.027 200.597 131.315C201.721 130.912 202.972 130.89 203.905 130.731Z" fill="#4C65BD"/>
<path d="M221.857 255.163C224.084 256.258 224.519 257.575 223.406 259.859C222.229 262.281 220.988 262.663 218.443 261.378C216.333 260.315 215.951 258.945 217.128 256.598C218.22 254.409 219.535 254.016 221.857 255.163Z" fill="#4C65BD"/>
<path d="M104.621 369.048C103.518 371.331 102.214 371.809 99.9868 370.747C97.5373 369.579 97.1025 368.293 98.3326 365.829C99.4248 363.641 100.74 363.226 103.051 364.363C105.278 365.457 105.724 366.774 104.631 369.048L104.621 369.048Z" fill="#4C65BD"/>
<path d="M143.548 345.444C141.257 344.329 140.78 343.033 141.84 340.802C143.007 338.338 144.29 337.902 146.75 339.134C148.945 340.229 149.348 341.546 148.224 343.862C147.132 346.103 145.806 346.549 143.548 345.455L143.548 345.444Z" fill="#4C65BD"/>
<path d="M142.424 55.2795C144.703 56.3842 145.181 57.6908 144.11 59.9322C142.943 62.386 141.66 62.8215 139.189 61.5893C137.005 60.4951 136.602 59.1779 137.737 56.8622C138.829 54.6315 140.144 54.1854 142.424 55.2901L142.424 55.2795Z" fill="#4C65BD"/>
<path d="M231.2 203.145C230.107 205.376 228.792 205.811 226.513 204.696C224.095 203.517 223.713 202.274 224.996 199.725C226.057 197.611 227.425 197.228 229.768 198.407C231.952 199.502 232.345 200.808 231.2 203.145Z" fill="#4C65BD"/>
<path d="M120.463 38.9739C119.349 41.3321 118.066 41.842 115.871 40.8116C113.496 39.6963 112.934 38.3897 113.92 36.2546C115.119 33.6627 116.349 33.174 118.745 34.3319C121.046 35.4473 121.523 36.7326 120.463 38.9739Z" fill="#4C65BD"/>
<path d="M132.583 49.6496C131.47 51.9653 130.187 52.454 127.96 51.4023C125.479 50.2339 125.033 48.9485 126.242 46.5053C127.334 44.2852 128.649 43.8603 130.94 44.9863C133.198 46.0804 133.654 47.3976 132.573 49.6496L132.583 49.6496Z" fill="#4C65BD"/>
<path d="M156.177 70.7139C155.085 72.9446 153.77 73.3801 151.49 72.2648C149.062 71.0857 148.69 69.8428 149.974 67.2934C151.034 65.1795 152.402 64.7971 154.745 65.9762C156.93 67.0704 157.322 68.3769 156.177 70.7139Z" fill="#4C65BD"/>
<path d="M168 82.0163C166.908 84.2152 165.593 84.6295 163.292 83.5035C160.927 82.3456 160.546 81.0603 161.839 78.5109C162.942 76.3333 164.162 76.0146 166.632 77.2574C168.774 78.3409 169.167 79.6687 168 82.0163Z" fill="#4C65BD"/>
<path d="M175.423 94.1154C173.695 93.2337 173.005 91.1729 173.843 89.4308C174.755 87.54 177.014 86.7858 178.784 87.9012C180.523 89.0059 181.138 90.6843 180.131 92.6495C179.283 94.3172 177.077 94.9758 175.423 94.1154Z" fill="#4C65BD"/>
<path d="M230.33 180.572C229.482 182.335 227.467 183.068 225.685 182.261C223.745 181.379 223.013 179.212 224.042 177.332C224.933 175.696 227.117 175.027 228.761 175.877C230.489 176.769 231.178 178.819 230.33 180.572Z" fill="#4C65BD"/>
<path d="M137.991 355.26C137.217 356.959 135.086 357.809 133.389 357.033C131.406 356.131 130.823 354.431 131.512 352.476C132.201 350.501 134.449 349.693 136.337 350.607C138.076 351.457 138.808 353.496 138.002 355.26L137.991 355.26Z" fill="#4C65BD"/>
<path d="M216.619 147.196C215.792 149.023 213.533 149.607 211.953 148.843C210.077 147.929 209.345 145.719 210.352 143.892C211.232 142.299 213.48 141.64 215.092 142.49C216.789 143.393 217.467 145.475 216.609 147.196L216.619 147.196Z" fill="#4C65BD"/>
<path d="M108.587 27.7883C107.791 29.5091 105.702 30.2952 103.963 29.5304C102.288 28.7974 101.408 26.6304 102.108 24.9414C102.903 23.0081 105.087 22.2114 106.964 23.1037C108.703 23.9323 109.424 26.163 108.587 27.7776L108.587 27.7883Z" fill="#4C65BD"/>
<path d="M232.726 225.973C231.836 227.651 229.726 228.299 228.018 227.481C225.866 226.451 225.696 223.848 226.555 222.478C227.541 220.906 229.715 220.3 231.359 221.224C232.949 222.117 233.596 224.369 232.737 225.983L232.726 225.973Z" fill="#4C65BD"/>
<path d="M94.9181 12.5451C96.2648 13.2675 97.0813 15.9975 96.3496 17.3465C95.6286 18.6956 92.9034 19.5135 91.5567 18.7805C90.21 18.0582 89.3935 15.3282 90.1252 13.9792C90.8462 12.6301 93.5714 11.8122 94.9181 12.5451Z" fill="#4C65BD"/>
<path d="M191.742 102.773C191.085 104.164 188.423 105.131 187.045 104.483C185.656 103.824 184.691 101.158 185.338 99.777C185.995 98.3855 188.657 97.4188 190.035 98.0668C191.424 98.7254 192.389 101.392 191.742 102.773Z" fill="#4C65BD"/>
<path d="M228.983 249.969C227.605 249.3 226.682 246.612 227.35 245.242C228.018 243.861 230.701 242.937 232.069 243.606C233.447 244.275 234.37 246.963 233.702 248.333C233.034 249.714 230.351 250.638 228.983 249.969Z" fill="#4C65BD"/>
<path d="M213.767 294.414C213.353 295.465 210.246 296.644 209.09 296.188C208.041 295.773 206.864 292.661 207.32 291.503C207.733 290.452 210.84 289.272 211.996 289.729C213.046 290.144 214.223 293.256 213.767 294.414Z" fill="#4C65BD"/>
<path d="M198.402 308.329C197.394 307.841 196.27 304.611 196.758 303.602C197.246 302.593 200.469 301.467 201.477 301.956C202.484 302.444 203.608 305.674 203.12 306.683C202.633 307.692 199.409 308.818 198.402 308.329Z" fill="#4C65BD"/>
<path d="M180.555 325.633C181.563 326.069 182.718 329.256 182.262 330.339C181.828 331.348 178.647 332.506 177.565 332.049C176.558 331.614 175.402 328.427 175.858 327.343C176.292 326.334 179.474 325.176 180.555 325.633Z" fill="#4C65BD"/>
<path d="M203.852 113.48C203.279 114.521 200.066 115.584 199.101 115.052C198.062 114.479 197.002 111.26 197.532 110.294C198.105 109.253 201.318 108.19 202.283 108.721C203.322 109.295 204.382 112.514 203.852 113.48Z" fill="#4C65BD"/>
<path d="M228.782 157.787C228.294 158.796 225.07 159.922 224.063 159.433C223.056 158.945 221.932 155.715 222.419 154.706C222.907 153.697 226.131 152.571 227.138 153.06C228.146 153.548 229.27 156.778 228.782 157.787Z" fill="#4C65BD"/>
<path d="M192.591 318.718C192.209 319.759 189.102 320.991 187.936 320.566C186.896 320.184 185.666 317.071 186.09 315.903C186.472 314.862 189.579 313.63 190.746 314.055C191.785 314.437 193.015 317.549 192.591 318.718Z" fill="#4C65BD"/>
<path d="M219.312 279.712C220.394 277.524 220.733 277.428 223.098 278.597C225.357 279.712 225.463 280.116 224.18 282.665C223.194 284.62 222.685 284.737 220.32 283.547C218.21 282.485 218.114 282.145 219.323 279.723L219.312 279.712Z" fill="#4C65BD"/>
<path d="M122.785 368.431C120.601 367.348 120.505 367.008 121.672 364.639C122.785 362.377 123.188 362.27 125.733 363.556C127.684 364.544 127.801 365.053 126.613 367.422C125.553 369.536 125.213 369.621 122.796 368.421L122.785 368.431Z" fill="#4C65BD"/>
<path d="M159.803 354.038C159.178 355.408 157.492 356.077 156.145 355.504C154.586 354.834 153.95 353.071 154.724 351.563C155.392 350.256 157.131 349.683 158.467 350.331C159.793 350.979 160.418 352.71 159.814 354.038L159.803 354.038Z" fill="#4C65BD"/>
<path d="M241.273 190.419C240.69 191.79 239.004 192.533 237.657 192.002C236.12 191.396 235.399 189.569 236.12 188.103C236.767 186.776 238.495 186.149 239.82 186.754C241.188 187.381 241.856 189.07 241.284 190.419L241.273 190.419Z" fill="#4C65BD"/>
<path d="M233.225 266.976C234.593 267.602 235.271 269.281 234.699 270.64C234.041 272.202 232.27 272.85 230.765 272.085C229.46 271.426 228.888 269.663 229.524 268.335C230.171 266.997 231.889 266.37 233.225 266.976Z" fill="#4C65BD"/>
<path d="M239.046 214.713C237.678 214.086 237.01 212.397 237.583 211.048C238.251 209.487 240.011 208.849 241.517 209.625C242.821 210.294 243.394 212.036 242.747 213.375C242.1 214.702 240.372 215.329 239.046 214.724L239.046 214.713Z" fill="#4C65BD"/>
<path d="M240.298 168.091C239.651 169.418 237.922 170.056 236.597 169.45C235.059 168.749 234.466 166.965 235.271 165.477C235.971 164.192 237.71 163.672 239.046 164.351C240.351 165.01 240.934 166.773 240.287 168.091L240.298 168.091Z" fill="#4C65BD"/>
<path d="M215.145 124.23C214.551 125.611 212.876 126.333 211.519 125.802C209.981 125.197 209.271 123.38 209.981 121.904C210.617 120.576 212.356 119.949 213.682 120.565C215.039 121.192 215.718 122.892 215.135 124.23L215.145 124.23Z" fill="#4C65BD"/>
<path d="M240.001 237.211C238.612 236.595 237.922 234.928 238.495 233.557C239.131 232.006 240.923 231.337 242.408 232.081C243.712 232.729 244.317 234.492 243.68 235.809C243.044 237.148 241.326 237.796 239.99 237.201L240.001 237.211Z" fill="#4C65BD"/>
<path d="M166.664 343.288C165.296 342.661 164.628 340.972 165.201 339.623C165.869 338.062 167.629 337.424 169.135 338.2C170.439 338.869 171.012 340.611 170.365 341.949C169.718 343.277 167.99 343.904 166.664 343.299L166.664 343.288Z" fill="#4C65BD"/>
<path d="M116.327 379.192C115.967 379.511 115.829 379.723 115.638 379.787C114.769 380.116 113.889 380.477 112.987 380.679C112.68 380.743 112.203 380.435 111.937 380.169C111.715 379.946 111.683 379.532 111.566 379.192C110.612 376.409 110.4 376.887 113.167 375.867C114.811 375.262 115.023 375.113 115.596 377.057C115.818 377.811 116.105 378.544 116.327 379.181L116.327 379.192Z" fill="#4C65BD"/>
<path d="M223.703 136.499C223.374 136.212 223.13 136.096 223.066 135.915C222.727 135.044 222.441 134.152 222.133 133.27C221.879 132.558 222.218 132.208 222.854 132.006C223.628 131.762 224.381 131.4 225.176 131.241C225.516 131.167 226.152 131.369 226.269 131.624C226.714 132.569 227.022 133.589 227.329 134.598C227.382 134.768 227.244 135.15 227.106 135.203C225.951 135.681 224.763 136.106 223.703 136.499Z" fill="#4C65BD"/>
<path d="M254.348 223.519C253.754 224.9 252.927 225.293 251.676 224.783C250.276 224.22 249.831 223.37 250.297 222.149C250.891 220.587 251.803 220.162 253.203 220.81C254.56 221.437 254.899 222.234 254.348 223.53L254.348 223.519Z" fill="#4C65BD"/>
<path d="M244.624 258.244C243.998 259.604 243.203 259.944 241.909 259.381C240.531 258.786 240.139 257.957 240.648 256.704C241.284 255.121 242.143 254.77 243.595 255.482C244.921 256.13 245.218 256.916 244.613 258.244L244.624 258.244Z" fill="#4C65BD"/>
<path d="M188.529 76.8645C189.876 77.5018 190.184 78.2879 189.59 79.6051C188.89 81.1772 188.095 81.4428 186.568 80.6355C185.316 79.9663 185.073 79.1377 185.741 77.8099C186.398 76.5033 187.193 76.2378 188.519 76.8645L188.529 76.8645Z" fill="#4C65BD"/>
<path d="M252.778 200.755C252.174 202.125 251.357 202.497 250.096 201.977C248.707 201.403 248.282 200.564 248.76 199.332C249.364 197.781 250.276 197.366 251.686 198.025C253.033 198.652 253.362 199.459 252.789 200.755L252.778 200.755Z" fill="#4C65BD"/>
<path d="M176.505 66.3162C177.788 66.9854 178.032 67.7928 177.374 69.1312C176.674 70.544 175.73 70.7989 174.288 69.9598C173.133 69.2905 172.931 68.377 173.663 67.0598C174.363 65.7957 175.137 65.5939 176.515 66.3056L176.505 66.3162Z" fill="#4C65BD"/>
<path d="M165.19 58.583C164.522 59.8683 163.716 60.1126 162.38 59.454C160.97 58.7529 160.715 57.8075 161.553 56.3628C162.221 55.205 163.133 55.0032 164.448 55.7361C165.71 56.4372 165.911 57.2127 165.201 58.5936L165.19 58.583Z" fill="#4C65BD"/>
<path d="M151.204 48.5234C149.868 47.8755 149.581 47.0894 150.175 45.7616C150.875 44.2213 151.702 43.9558 153.208 44.7737C154.448 45.4429 154.682 46.2821 153.992 47.6099C153.335 48.9059 152.529 49.1608 151.193 48.5128L151.204 48.5234Z" fill="#4C65BD"/>
<path d="M139.052 37.9009C137.715 37.2529 137.429 36.4669 138.023 35.1391C138.723 33.5988 139.55 33.3332 141.056 34.1511C142.296 34.8204 142.53 35.6595 141.84 36.9874C141.183 38.2833 140.377 38.5383 139.041 37.8903L139.052 37.9009Z" fill="#4C65BD"/>
<path d="M147.46 363.088C148.818 363.715 149.157 364.512 148.606 365.808C148.012 367.189 147.185 367.582 145.934 367.072C144.364 366.434 144.004 365.574 144.714 364.119C145.361 362.78 146.146 362.494 147.471 363.099L147.46 363.088Z" fill="#4C65BD"/>
<path d="M221.847 305.535C220.49 304.909 220.15 304.112 220.712 302.816C221.306 301.435 222.133 301.042 223.384 301.552C224.954 302.189 225.314 303.05 224.604 304.505C223.957 305.833 223.172 306.13 221.847 305.525L221.847 305.535Z" fill="#4C65BD"/>
<path d="M212.94 313.8C214.297 314.427 214.636 315.223 214.085 316.519C213.491 317.9 212.664 318.293 211.413 317.783C209.843 317.146 209.483 316.285 210.193 314.83C210.84 313.492 211.625 313.205 212.95 313.81L212.94 313.8Z" fill="#4C65BD"/>
<path d="M233.978 289.75C234.37 290.951 234.773 291.864 234.932 292.82C235.017 293.362 232.313 294.382 232.037 293.904C231.56 293.075 230.913 291.875 231.199 291.184C231.486 290.515 232.832 290.292 233.978 289.75Z" fill="#4C65BD"/>
<path d="M189.166 342.066C188.826 340.834 188.434 339.899 188.349 338.943C188.296 338.37 191.053 337.488 191.286 337.966C191.711 338.837 192.315 340.048 191.997 340.728C191.689 341.387 190.332 341.557 189.166 342.066Z" fill="#4C65BD"/>
<path d="M117.886 15.9123C116.656 16.2097 115.468 16.8896 114.832 16.5496C114.185 16.1991 113.931 14.8606 113.782 13.9152C113.698 13.3735 116.433 12.4599 116.709 12.938C117.186 13.7771 117.441 14.7438 117.886 15.9229L117.886 15.9123Z" fill="#4C65BD"/>
<path d="M237.382 141.864C237.668 143.096 238.325 144.296 237.975 144.934C237.615 145.582 236.279 145.815 235.335 145.953C234.794 146.028 233.914 143.266 234.391 143C235.24 142.533 236.205 142.289 237.382 141.853L237.382 141.864Z" fill="#4C65BD"/>
<path d="M202.081 90.3444C200.925 90.7587 199.801 91.5766 199.133 91.3004C198.433 91.0136 198.094 89.6964 197.755 88.7723C197.585 88.3049 200.194 87.0408 200.586 87.4975C201.201 88.2199 201.509 89.2078 202.081 90.3444Z" fill="#4C65BD"/>
<path d="M251.082 175.271C251.368 176.504 252.026 177.704 251.676 178.341C251.315 178.989 249.979 179.223 249.035 179.361C248.494 179.435 247.614 176.674 248.091 176.408C248.94 175.941 249.905 175.696 251.082 175.261L251.082 175.271Z" fill="#4C65BD"/>
<path d="M203.799 328.894C202.611 329.298 201.71 329.702 200.756 329.882C200.236 329.978 199.176 327.269 199.642 326.993C200.469 326.504 201.657 325.846 202.336 326.122C203.014 326.398 203.248 327.747 203.799 328.894Z" fill="#4C65BD"/>
<path d="M128.766 23.0614C129.179 24.2192 129.996 25.3452 129.72 26.0144C129.434 26.7155 128.119 27.0555 127.196 27.3954C126.73 27.5653 125.468 24.9522 125.924 24.5592C126.645 23.9431 127.631 23.635 128.766 23.0614Z" fill="#4C65BD"/>
<path d="M255.546 246.315C254.316 246.655 253.393 247.048 252.439 247.133C251.867 247.186 250.976 244.435 251.464 244.201C252.333 243.776 253.542 243.16 254.21 243.479C254.867 243.787 255.048 245.146 255.546 246.315Z" fill="#4C65BD"/>
<path d="M137.694 377.004C137.016 378.491 137.037 378.438 135.69 377.864C134.799 377.482 134.386 377.131 134.958 376.09C135.711 374.709 135.616 374.709 136.963 375.294C137.853 375.676 138.394 376.069 137.694 377.004Z" fill="#4C65BD"/>
<path d="M180.64 350.076C181.541 350.341 181.891 350.777 181.329 351.807C180.576 353.188 180.672 353.177 179.325 352.604C178.434 352.221 178.021 351.871 178.593 350.83C179.346 349.449 179.272 349.406 180.64 350.065L180.64 350.076Z" fill="#4C65BD"/>
<path d="M212.102 101.286C211.646 102.688 210.861 101.838 210.214 101.53C209.037 100.978 209.143 100.946 209.843 99.3948C210.437 98.0776 211.116 98.8531 211.763 99.1611C212.94 99.7241 212.929 99.7879 212.112 101.286L212.102 101.286Z" fill="#4C65BD"/>
<path d="M244.762 280.7C244.465 281.837 243.808 281.624 242.97 281.167C241.687 280.477 241.75 280.551 242.365 279.096C242.832 278.002 243.373 278.129 244.21 278.586C245.494 279.277 245.515 279.234 244.762 280.7Z" fill="#4C65BD"/>
<path d="M249.968 155.545C249.014 155.737 248.229 156.14 247.795 155.906C247.349 155.662 247.264 154.781 247.021 154.186C247.71 153.952 248.431 153.495 249.078 153.58C249.406 153.623 249.597 154.664 249.968 155.545Z" fill="#4C65BD"/>
<path d="M224.774 111.579C223.957 111.897 223.374 112.248 222.748 112.322C222.186 112.386 221.454 110.782 221.889 110.389C222.335 109.985 223.172 109.582 223.639 109.741C224.105 109.9 224.318 110.772 224.774 111.579Z" fill="#4C65BD"/>
<path d="M262.184 186.107C262.417 187.052 262.895 187.997 262.661 188.231C262.205 188.698 261.346 188.762 260.657 188.996C260.487 188.369 260.042 187.615 260.244 187.148C260.434 186.701 261.304 186.542 262.184 186.107Z" fill="#4C65BD"/>
<path d="M263.563 208.934C263.881 209.752 264.231 210.336 264.305 210.963C264.369 211.526 262.767 212.259 262.375 211.824C261.972 211.377 261.569 210.538 261.728 210.071C261.887 209.604 262.757 209.391 263.563 208.934Z" fill="#4C65BD"/>
<path d="M256.49 268.728C255.599 268.994 254.984 269.323 254.369 269.323C253.775 269.323 253.16 267.719 253.627 267.358C254.104 266.986 254.942 266.636 255.408 266.827C255.864 267.008 256.044 267.879 256.49 268.728Z" fill="#4C65BD"/>
<path d="M264.411 233.738C264.135 233.897 263.722 234.12 263.308 234.354C263.096 233.674 262.873 232.994 262.661 232.314C263.266 232.134 263.987 231.656 264.464 231.836C265.514 232.229 264.549 232.92 264.422 233.738L264.411 233.738Z" fill="#4C65BD"/>
<path d="M191.202 363.481C191.223 362.844 191.138 362.43 191.286 362.132C191.361 361.973 192.039 361.877 192.082 361.952C192.251 362.27 192.368 362.674 192.336 363.024C192.326 363.152 191.838 363.237 191.202 363.481Z" fill="#4C65BD"/>
<path d="M233.925 315.744C233.946 315.106 233.861 314.692 234.01 314.395C234.084 314.235 234.762 314.14 234.805 314.214C234.974 314.533 235.091 314.936 235.059 315.287C235.049 315.414 234.561 315.499 233.925 315.744Z" fill="#4C65BD"/>
<path d="M199.271 66.9537C198.624 67.1555 198.19 67.3892 198.105 67.2936C197.861 67.0387 197.702 66.6456 197.649 66.2951C197.638 66.2101 198.221 65.8702 198.38 65.9445C198.677 66.0933 198.868 66.465 199.282 66.9537L199.271 66.9537Z" fill="#4C65BD"/>
<path d="M224.816 325.453C224.848 326.09 224.986 326.557 224.858 326.642C224.561 326.833 224.148 326.855 223.787 326.94C223.724 326.653 223.522 326.239 223.639 326.101C223.851 325.846 224.254 325.739 224.816 325.453Z" fill="#4C65BD"/>
<path d="M185.475 56.9153C185.497 56.2779 185.412 55.8636 185.56 55.5662C185.635 55.4069 186.313 55.3113 186.356 55.3856C186.525 55.7043 186.642 56.1079 186.61 56.4585C186.599 56.586 186.112 56.671 185.475 56.9153Z" fill="#4C65BD"/>
<path d="M124.726 389.453C124.609 388.837 124.429 388.455 124.503 388.126C124.545 387.945 124.991 387.86 125.256 387.722C125.415 388.062 125.659 388.402 125.691 388.752C125.701 388.901 125.256 389.082 124.726 389.453Z" fill="#4C65BD"/>
<path d="M169.941 362.568C169.973 363.205 170.11 363.673 169.983 363.758C169.686 363.949 169.273 363.97 168.912 364.055C168.848 363.768 168.647 363.354 168.764 363.216C168.976 362.961 169.379 362.855 169.941 362.568Z" fill="#4C65BD"/>
<path d="M209.695 78.8933C209.578 78.2772 209.398 77.8948 209.472 77.5655C209.514 77.3849 209.96 77.3 210.225 77.1619C210.384 77.5018 210.628 77.8417 210.66 78.1923C210.67 78.341 210.225 78.5215 209.695 78.8933Z" fill="#4C65BD"/>
<path d="M175.603 46.0272C174.956 46.229 174.522 46.4627 174.437 46.3671C174.193 46.1121 174.034 45.7191 173.981 45.3686C173.97 45.2836 174.553 44.9437 174.713 45.018C175.009 45.1667 175.2 45.5385 175.614 46.0272L175.603 46.0272Z" fill="#4C65BD"/>
<path d="M272.905 175.643C272.936 176.281 273.074 176.748 272.947 176.833C272.65 177.024 272.237 177.045 271.876 177.13C271.812 176.844 271.611 176.429 271.728 176.291C271.94 176.036 272.343 175.93 272.905 175.643Z" fill="#4C65BD"/>
<path d="M202.039 351.425C201.922 350.809 201.742 350.426 201.816 350.097C201.858 349.916 202.304 349.831 202.569 349.693C202.728 350.033 202.972 350.373 203.004 350.724C203.014 350.872 202.569 351.053 202.039 351.425Z" fill="#4C65BD"/>
<path d="M148.553 387.892C147.938 388.009 147.556 388.189 147.227 388.115C147.047 388.072 146.962 387.626 146.824 387.361C147.164 387.201 147.503 386.957 147.853 386.925C148.001 386.915 148.182 387.361 148.553 387.892Z" fill="#4C65BD"/>
<path d="M162.985 34.1512C163.016 34.7886 163.154 35.256 163.027 35.341C162.73 35.5322 162.316 35.5534 161.956 35.6384C161.892 35.3516 161.691 34.9373 161.808 34.7992C162.02 34.5443 162.423 34.4381 162.985 34.1512Z" fill="#4C65BD"/>
<path d="M261.399 165.913C260.763 165.892 260.35 165.977 260.053 165.828C259.894 165.754 259.798 165.074 259.872 165.031C260.191 164.861 260.594 164.744 260.943 164.776C261.071 164.787 261.156 165.276 261.399 165.913Z" fill="#4C65BD"/>
<path d="M151.479 24.4317C150.843 24.4104 150.43 24.4954 150.133 24.3467C149.974 24.2724 149.878 23.5925 149.952 23.55C150.27 23.3801 150.673 23.2632 151.023 23.2951C151.151 23.3057 151.235 23.7943 151.479 24.4317Z" fill="#4C65BD"/>
<path d="M159.337 374.741C159.369 375.378 159.506 375.846 159.379 375.931C159.082 376.122 158.669 376.143 158.308 376.228C158.245 375.941 158.043 375.527 158.16 375.389C158.372 375.134 158.775 375.028 159.337 374.741Z" fill="#4C65BD"/>
<path d="M214.021 338.603C213.406 338.72 213.024 338.901 212.696 338.826C212.515 338.784 212.431 338.338 212.293 338.072C212.632 337.913 212.971 337.668 213.321 337.637C213.47 337.626 213.65 338.072 214.021 338.603Z" fill="#4C65BD"/>
<path d="M138.055 14.2234C137.938 13.6073 137.758 13.2249 137.832 12.8956C137.875 12.715 138.32 12.63 138.585 12.4919C138.744 12.8318 138.988 13.1718 139.02 13.5223C139.03 13.671 138.585 13.8516 138.055 14.2234Z" fill="#4C65BD"/>
<path d="M259.512 141.598C259.544 142.235 259.682 142.703 259.554 142.788C259.257 142.979 258.844 143 258.483 143.085C258.42 142.798 258.218 142.384 258.335 142.246C258.547 141.991 258.95 141.885 259.512 141.598Z" fill="#4C65BD"/>
<path d="M247.996 131.284C248.028 131.921 248.166 132.388 248.038 132.473C247.742 132.665 247.328 132.686 246.967 132.771C246.904 132.484 246.702 132.07 246.819 131.932C247.031 131.677 247.434 131.57 247.996 131.284Z" fill="#4C65BD"/>
<path d="M235.621 120.555C235.823 121.203 236.056 121.638 235.961 121.723C235.706 121.968 235.314 122.127 234.964 122.18C234.879 122.191 234.54 121.606 234.614 121.447C234.762 121.15 235.134 120.958 235.621 120.544L235.621 120.555Z" fill="#4C65BD"/>
<path d="M246.172 303.007C245.525 303.209 245.091 303.443 245.006 303.347C244.762 303.092 244.603 302.699 244.55 302.349C244.539 302.264 245.122 301.924 245.281 301.998C245.578 302.147 245.769 302.519 246.183 303.007L246.172 303.007Z" fill="#4C65BD"/>
<path d="M234.635 99.4161C233.999 99.3948 233.585 99.4798 233.288 99.3311C233.129 99.2567 233.034 98.5769 233.108 98.5344C233.426 98.3645 233.829 98.2476 234.179 98.2795C234.306 98.2901 234.391 98.7787 234.635 99.4161Z" fill="#4C65BD"/>
<path d="M223.13 89.1016C222.494 89.0804 222.08 89.1654 221.783 89.0166C221.624 88.9423 221.529 88.2625 221.603 88.22C221.921 88.05 222.324 87.9331 222.674 87.965C222.801 87.9756 222.886 88.4643 223.13 89.1016Z" fill="#4C65BD"/>
<path d="M-50.7053 246.506C-16.4017 266.551 -5.96742 331.221 11.6244 353.741C27.7318 374.348 64.9833 385.332 94.6742 384.217C124.365 383.112 153.897 360.518 156.378 330.86C157.449 317.953 153.643 305.047 154.523 292.119C157.343 250.766 203.64 227.726 223.501 191.375C246.384 149.469 230.203 96.0594 202.357 57.2872C184.648 32.6323 161.161 10.4312 131.862 2.5812C102.574 -5.26887 67.0935 4.91817 52.704 31.6551C39.7354 55.7469 41.6441 92.4371 15.9827 101.827C-1.95916 108.392 -20.7175 95.592 -39.603 92.7133C-69.1985 88.2093 -98.6455 110.761 -107.691 139.346C-116.736 167.931 -118.295 194.116 -96.9913 215.18C-87.0449 225.006 -62.7619 239.474 -50.6947 246.527L-50.7053 246.506Z" fill="#4C65BD"/>
<path d="M181.138 279.17C181.382 250.107 190.555 221.819 207.044 197.876C250.159 135.256 229.164 67.4423 210.829 46.6327C189.526 22.4665 156.962 10.0913 124.768 9.12461C92.5746 8.16859 60.7311 17.7395 31.687 31.8356C8.99469 42.8618 -12.8175 57.1172 -28.0341 77.3106C-42.9008 97.0472 -50.5674 121.15 -57.513 144.88C-66.4309 175.388 -74.6595 206.672 -73.843 238.422C-73.1855 264.31 -63.3981 293.532 -39.3273 302.731C-18.7981 310.56 5.42119 301.095 25.8125 309.275C54.3582 320.736 60.7842 359.424 84.8974 378.555C113.03 400.883 151.394 393.936 164.172 372.978C177.491 351.127 180.873 311.378 181.138 279.17Z" stroke="#475164" stroke-width="3.14" stroke-miterlimit="10"/>
<path d="M151.119 292.842C153.918 251.775 199.886 228.905 219.609 192.81C242.334 151.201 226.258 98.1629 198.614 59.6668C181.032 35.1819 157.704 13.1508 128.617 5.34326C99.5414 -2.45368 64.3046 7.65897 50.0212 34.2047" fill="#4C65BD"/>
</g>
<defs>
<clipPath id="clip0_64_1726">
<rect width="394" height="387" fill="white" transform="translate(-114 394) rotate(-90)"/>
</clipPath>
</defs>
</svg>
